<?xml version="1.0" encoding="UTF-8"?>
<svg xmlns="http://www.w3.org/2000/svg" xmlns:xlink="http://www.w3.org/1999/xlink" width="128px" height="128px" viewBox="0 0 128 128" version="1.1">
<defs>
<filter id="alpha" filterUnits="objectBoundingBox" x="0%" y="0%" width="100%" height="100%">
  <feColorMatrix type="matrix" in="SourceGraphic" values="0 0 0 0 1 0 0 0 0 1 0 0 0 0 1 0 0 0 1 0"/>
</filter>
<mask id="mask0">
  <g filter="url(#alpha)">
<rect x="0" y="0" width="128" height="128" style="fill:rgb(0%,0%,0%);fill-opacity:0.901961;stroke:none;"/>
  </g>
</mask>
<clipPath id="clip1">
  <rect x="0" y="0" width="128" height="128"/>
</clipPath>
<g id="surface5" clip-path="url(#clip1)">
<path style="fill-rule:nonzero;fill:rgb(88.627451%,92.156863%,92.941176%);fill-opacity:1;stroke-width:1;stroke-linecap:butt;stroke-linejoin:miter;stroke:rgb(85.490196%,91.372549%,92.941176%);stroke-opacity:1;stroke-miterlimit:10;" d="M 144.140625 112.1521 C 143.280029 112.091064 142.504883 111.61499 142.071533 110.870361 C 141.650391 110.119629 141.143799 109.423828 140.551758 108.80127 C 136.2854 104.443359 129.467773 103.881836 124.54834 107.48291 C 123.864746 108.001709 123.242188 108.605957 122.698975 109.277344 C 121.813965 110.296631 120.3125 110.50415 119.189453 109.759521 C 118.658447 109.448242 118.286133 108.917236 118.170166 108.306885 C 118.054199 107.696533 118.206787 107.067871 118.591309 106.57959 C 119.372559 105.609131 120.269775 104.742432 121.258545 103.991699 C 128.356934 98.797607 138.189697 99.609375 144.342041 105.9021 C 145.196533 106.80542 145.941162 107.8125 146.551514 108.898926 C 146.832275 109.442139 146.875 110.076904 146.661377 110.650635 C 146.447754 111.224365 145.996094 111.676025 145.428467 111.901855 C 145.025635 112.084961 144.586182 112.17041 144.140625 112.1521 Z M 144.140625 112.1521 " transform="matrix(0.64,0,0,0.64,0,0)"/>
</g>
<mask id="mask1">
  <g filter="url(#alpha)">
<rect x="0" y="0" width="128" height="128" style="fill:rgb(0%,0%,0%);fill-opacity:0.8;stroke:none;"/>
  </g>
</mask>
<clipPath id="clip2">
  <rect x="0" y="0" width="128" height="128"/>
</clipPath>
<g id="surface8" clip-path="url(#clip2)">
<path style=" stroke:none;fill-rule:nonzero;fill:rgb(59.215686%,81.176471%,90.980392%);fill-opacity:1;" d="M 100.71875 76.574219 C 100.71875 85.515625 93.46875 92.761719 84.53125 92.761719 C 75.59375 92.761719 68.34375 85.515625 68.34375 76.574219 C 68.34375 67.636719 75.59375 60.390625 84.53125 60.390625 C 93.46875 60.390625 100.71875 67.636719 100.71875 76.574219 Z M 100.71875 76.574219 "/>
</g>
</defs>
<g id="surface1">
<path style=" stroke:none;fill-rule:nonzero;fill:rgb(30.980392%,26.27451%,21.960784%);fill-opacity:1;" d="M 69.84375 97.613281 C 69.070312 96.277344 67.789062 95.3125 66.292969 94.9375 C 64.894531 94.609375 63.445312 94.5625 62.027344 94.789062 C 62.808594 99.015625 66.585938 101.832031 70.476562 101.125 C 74.367188 100.421875 76.875 96.359375 76.152344 92.128906 C 74.746094 92.433594 73.414062 93.007812 72.222656 93.816406 C 70.953125 94.714844 70.097656 96.082031 69.84375 97.613281 Z M 69.84375 97.613281 "/>
<path style=" stroke:none;fill-rule:nonzero;fill:rgb(29.803922%,3.137255%,3.137255%);fill-opacity:1;" d="M 69.09375 93.445312 L 69.089844 93.445312 L 69.214844 94.144531 Z M 69.09375 93.445312 "/>
<path style=" stroke:none;fill-rule:nonzero;fill:rgb(39.607843%,44.313725%,48.627451%);fill-opacity:1;" d="M 14.195312 30.910156 L 7.449219 31.628906 C 5.894531 31.992188 4.917969 33.542969 5.261719 35.105469 L 17.976562 105.546875 C 18.082031 106.304688 18.484375 106.988281 19.09375 107.449219 C 19.703125 107.910156 20.472656 108.109375 21.230469 108 L 60.332031 102.292969 C 61.1875 102.152344 62.054688 102.445312 62.648438 103.070312 C 65.011719 105.136719 68.214844 105.960938 71.28125 105.292969 C 74.394531 104.789062 77.089844 102.855469 78.566406 100.070312 C 78.917969 99.269531 79.632812 98.683594 80.488281 98.496094 L 118.96875 89.601562 C 120.480469 89.320312 121.453125 87.761719 121.082031 85.675781 L 108.359375 15.210938 C 107.980469 13.8125 106.585938 12.9375 105.160156 13.210938 L 98.894531 14.945312 L 100.691406 17.742188 L 101.082031 19.019531 L 112.863281 82.378906 "/>
<path style=" stroke:none;fill-rule:nonzero;fill:rgb(27.843137%,31.372549%,33.72549%);fill-opacity:1;" d="M 76.382812 91.609375 L 76.121094 91.671875 C 76.875 95.902344 74.347656 99.9375 70.445312 100.671875 C 66.539062 101.40625 62.765625 98.558594 61.996094 94.335938 C 61.914062 94.335938 61.824219 94.335938 61.742188 94.375 "/>
<path style=" stroke:none;fill-rule:nonzero;fill:rgb(78.823529%,76.470588%,75.686275%);fill-opacity:1;" d="M 24.730469 100.402344 L 28.621094 92.679688 L 16.097656 23.308594 L 14.007812 31.609375 L 13.304688 35.40625 L 13.210938 36.613281 Z M 24.730469 100.402344 "/>
<path style=" stroke:none;fill-rule:nonzero;fill:rgb(62.745098%,60%,57.647059%);fill-opacity:1;" d="M 68.972656 92.800781 L 68.730469 91.460938 C 68.8125 91.890625 69.019531 93.023438 69.089844 93.433594 L 68.972656 92.792969 L 78.203125 91.519531 L 76.410156 92.101562 C 88.347656 88.214844 100.636719 85.496094 113.101562 83.992188 C 110.636719 82.425781 108.710938 80.152344 106.699219 77.992188 L 106.699219 78.046875 C 55.558594 88.960938 77.824219 111.886719 58.546875 22.1875 C 56.628906 23.636719 56.628906 23.898438 54.144531 23.019531 C 67.277344 113.664062 80.199219 84.390625 28.628906 92.722656 L 28.628906 92.683594 C 28.371094 93.210938 24.621094 100.363281 24.632812 100.652344 L 24.734375 100.402344 L 24.632812 100.652344 C 29.613281 99.042969 34.703125 97.78125 39.859375 96.875 C 47.101562 95.648438 54.425781 94.964844 61.773438 94.828125 "/>
<path style=" stroke:none;fill-rule:nonzero;fill:rgb(78.823529%,76.470588%,75.686275%);fill-opacity:1;" d="M 101.546875 19.960938 L 101.03125 18.253906 L 99.078125 15.707031 L 94.203125 8.574219 L 94.195312 8.589844 L 106.726562 77.957031 L 110.417969 81.976562 L 113.101562 83.960938 "/>
<path style=" stroke:none;fill-rule:nonzero;fill:rgb(62.745098%,60%,57.647059%);fill-opacity:1;" d="M 77.441406 91.617188 L 68.980469 92.800781 L 69.09375 93.441406 L 69.214844 94.136719 L 69.121094 93.441406 L 69.003906 92.800781 L 68.761719 91.460938 L 69.003906 92.800781 L 61.703125 94.71875 L 61.746094 94.847656 L 62.007812 94.808594 C 63.425781 94.582031 64.875 94.628906 66.273438 94.957031 C 67.769531 95.332031 69.050781 96.296875 69.824219 97.632812 C 70.078125 96.097656 70.9375 94.734375 72.203125 93.835938 C 73.402344 93.03125 74.746094 92.460938 76.160156 92.160156 L 76.414062 92.101562 Z M 77.441406 91.617188 "/>
<path style=" stroke:none;fill-rule:nonzero;fill:rgb(62.745098%,60%,57.647059%);fill-opacity:1;" d="M 106.726562 77.964844 L 94.195312 8.59375 C 81.746094 11.296875 68.011719 14.71875 57.683594 22.835938 L 57.8125 22.835938 L 69.390625 86.957031 C 70.9375 94.558594 76.820312 87.597656 80.351562 86.515625 C 88.179688 82.355469 98.304688 80.558594 106.734375 78.027344 Z M 106.726562 77.964844 "/>
<path style=" stroke:none;fill-rule:nonzero;fill:rgb(94.901961%,93.72549%,92.941176%);fill-opacity:1;" d="M 106.734375 78.023438 L 94.34375 9.40625 C 81.921875 12.101562 68.320312 15.40625 57.976562 23.441406 L 57.976562 23.546875 L 69.433594 86.976562 C 70.964844 94.488281 76.851562 87.570312 80.382812 86.515625 C 88.21875 82.378906 98.347656 80.582031 106.777344 78.066406 Z M 106.734375 78.023438 "/>
<path style=" stroke:none;fill-rule:nonzero;fill:rgb(60%,62.352941%,63.921569%);fill-opacity:1;" d="M 89.453125 28.007812 C 82.578125 29.226562 75.882812 31.308594 69.53125 34.203125 C 68.539062 34.644531 66.628906 36.261719 66.054688 34.574219 L 65.765625 32.972656 C 65.691406 31.601562 68.292969 30.546875 69.332031 30.175781 C 78.777344 26.785156 82.054688 25.933594 88.734375 24.511719 C 89.257812 24.402344 89.773438 24.722656 89.90625 25.242188 C 90.1875 26.152344 90.738281 27.726562 89.453125 28.007812 Z M 89.453125 28.007812 "/>
<path style=" stroke:none;fill-rule:nonzero;fill:rgb(60%,62.352941%,63.921569%);fill-opacity:1;" d="M 91.308594 37.476562 C 85.234375 38.875 78.734375 40.363281 73.035156 42.917969 C 71.722656 43.480469 70.433594 44.082031 69.164062 44.71875 C 68.898438 44.863281 68.582031 44.875 68.304688 44.75 C 68.03125 44.621094 67.832031 44.375 67.769531 44.078125 L 67.480469 42.488281 C 67.417969 42.078125 67.628906 41.671875 68 41.484375 C 69.195312 40.84375 70.417969 40.292969 71.660156 39.742188 C 77.5625 37.035156 84.121094 35.417969 90.464844 34.054688 C 91.03125 33.972656 91.558594 34.359375 91.65625 34.925781 C 91.828125 35.796875 92.382812 37.121094 91.308594 37.476562 Z M 91.308594 37.476562 "/>
<path style=" stroke:none;fill-rule:nonzero;fill:rgb(60%,62.352941%,63.921569%);fill-opacity:1;" d="M 93.234375 46.894531 C 85.703125 48.671875 77.695312 50.59375 70.878906 54.214844 C 70.613281 54.359375 70.296875 54.367188 70.023438 54.242188 C 69.75 54.117188 69.550781 53.871094 69.484375 53.574219 L 69.195312 51.992188 C 69.132812 51.582031 69.34375 51.179688 69.714844 50.996094 C 76.683594 47.359375 84.480469 45.183594 92.160156 43.578125 C 92.722656 43.511719 93.242188 43.890625 93.351562 44.449219 C 93.523438 45.183594 94.027344 46.457031 93.234375 46.894531 Z M 93.234375 46.894531 "/>
<path style=" stroke:none;fill-rule:nonzero;fill:rgb(60%,62.352941%,63.921569%);fill-opacity:1;" d="M 95.027344 56.320312 C 90.65625 57.683594 85.613281 58.378906 81.3125 60.050781 C 78.328125 61.085938 75.417969 62.3125 72.59375 63.726562 C 72.328125 63.851562 72.015625 63.855469 71.746094 63.730469 C 71.476562 63.609375 71.277344 63.371094 71.199219 63.085938 C 71.148438 62.355469 70.476562 60.921875 71.4375 60.523438 C 76.875 57.757812 82.632812 55.671875 88.582031 54.308594 L 91.140625 53.726562 L 93.742188 53.125 C 94.03125 53.042969 94.34375 53.085938 94.601562 53.246094 C 94.855469 53.410156 95.03125 53.671875 95.078125 53.972656 C 95.230469 54.65625 95.726562 55.878906 95.027344 56.320312 Z M 95.027344 56.320312 "/>
<path style=" stroke:none;fill-rule:nonzero;fill:rgb(62.745098%,60%,57.647059%);fill-opacity:1;" d="M 55.136719 23.320312 C 42.65625 19.511719 28.671875 21.300781 16.097656 23.320312 L 28.628906 92.703125 L 28.628906 92.742188 C 37.382812 92.03125 47.46875 90.023438 56.238281 91.058594 C 59.910156 90.757812 67.839844 95.136719 66.628906 87.476562 "/>
<path style=" stroke:none;fill-rule:nonzero;fill:rgb(95.686275%,94.509804%,93.72549%);fill-opacity:1;" d="M 28.640625 92.800781 C 39.761719 91.6875 51.75 89.535156 62.867188 91.957031 C 65.164062 92.398438 67.476562 91.425781 66.636719 87.507812 L 55.179688 24.0625 L 55.128906 23.988281 C 42.675781 20.242188 28.800781 22.105469 16.242188 24.128906 Z M 28.640625 92.800781 "/>
<path style=" stroke:none;fill-rule:nonzero;fill:rgb(60%,62.352941%,63.921569%);fill-opacity:1;" d="M 26.453125 39.886719 C 33.285156 38.519531 40.265625 38.019531 47.226562 38.398438 C 48.308594 38.453125 50.65625 39.265625 50.605469 37.476562 L 50.316406 35.878906 C 49.90625 34.597656 47.117188 34.535156 46.003906 34.597656 C 35.992188 34.875 32.632812 35.277344 25.894531 36.382812 C 25.367188 36.476562 25.003906 36.960938 25.0625 37.492188 C 25.121094 38.398438 25.144531 40.089844 26.453125 39.886719 Z M 26.453125 39.886719 "/>
<path style=" stroke:none;fill-rule:nonzero;fill:rgb(60%,62.352941%,63.921569%);fill-opacity:1;" d="M 28.027344 49.40625 C 34.1875 48.5 40.78125 47.488281 46.988281 47.828125 C 48.414062 47.878906 49.832031 47.960938 51.238281 48.097656 C 51.539062 48.136719 51.839844 48.035156 52.054688 47.820312 C 52.265625 47.605469 52.367188 47.300781 52.320312 47 L 52.039062 45.441406 C 51.960938 45.023438 51.621094 44.710938 51.199219 44.664062 C 49.867188 44.523438 48.523438 44.433594 47.175781 44.371094 C 40.71875 43.992188 34.023438 44.871094 27.621094 45.914062 C 27.046875 46.046875 26.6875 46.617188 26.816406 47.195312 C 26.949219 48 26.878906 49.472656 28.027344 49.40625 Z M 28.027344 49.40625 "/>
<path style=" stroke:none;fill-rule:nonzero;fill:rgb(60%,62.352941%,63.921569%);fill-opacity:1;" d="M 29.515625 58.878906 C 37.195312 57.792969 45.324219 56.671875 52.953125 57.566406 C 53.253906 57.605469 53.550781 57.5 53.761719 57.285156 C 53.972656 57.070312 54.074219 56.773438 54.035156 56.472656 L 53.761719 54.917969 C 53.675781 54.511719 53.335938 54.210938 52.921875 54.175781 C 45.132812 53.292969 37.089844 54.125 29.34375 55.457031 C 28.78125 55.605469 28.425781 56.164062 28.539062 56.734375 C 28.644531 57.414062 28.621094 58.785156 29.515625 58.878906 Z M 29.515625 58.878906 "/>
<path style=" stroke:none;fill-rule:nonzero;fill:rgb(60%,62.352941%,63.921569%);fill-opacity:1;" d="M 31.128906 68.359375 C 35.691406 68.039062 40.640625 66.847656 45.246094 66.847656 C 48.390625 66.722656 51.539062 66.804688 54.667969 67.097656 C 54.964844 67.121094 55.253906 67.011719 55.460938 66.800781 C 55.671875 66.589844 55.777344 66.296875 55.75 66.003906 C 55.546875 65.300781 55.671875 63.71875 54.628906 63.671875 C 48.570312 63.078125 42.464844 63.226562 36.441406 64.121094 L 33.835938 64.503906 L 31.199219 64.894531 C 30.898438 64.925781 30.621094 65.082031 30.441406 65.324219 C 30.261719 65.570312 30.1875 65.878906 30.246094 66.175781 C 30.363281 66.886719 30.324219 68.203125 31.128906 68.359375 Z M 31.128906 68.359375 "/>
<path style=" stroke:none;fill-rule:nonzero;fill:rgb(60%,62.352941%,63.921569%);fill-opacity:1;" d="M 32.804688 78.453125 C 33.171875 78.804688 35.28125 78.246094 35.738281 78.238281 C 42.59375 77.003906 49.582031 76.695312 56.519531 77.320312 C 56.820312 77.355469 57.121094 77.25 57.332031 77.03125 C 57.546875 76.816406 57.644531 76.511719 57.601562 76.210938 C 57.371094 75.511719 57.535156 73.847656 56.472656 73.824219 C 50.414062 73.1875 44.296875 73.316406 38.273438 74.214844 C 36.992188 74.40625 34.132812 74.855469 32.882812 75.015625 C 32.347656 75.09375 31.976562 75.589844 32.050781 76.128906 C 32.140625 76.742188 32.160156 78.222656 32.804688 78.453125 Z M 32.804688 78.453125 "/>
<use xlink:href="#surface5" mask="url(#mask0)"/>
<path style=" stroke:none;fill-rule:nonzero;fill:rgb(38.431373%,47.058824%,53.72549%);fill-opacity:1;" d="M 97.171875 99.636719 C 96.519531 98.851562 95.425781 98.589844 94.488281 98.996094 C 91.359375 100.394531 87.96875 101.121094 84.539062 101.121094 C 83.867188 101.121094 83.175781 101.121094 82.503906 101.035156 C 71.496094 100.109375 62.460938 91.941406 60.4375 81.082031 C 58.414062 70.222656 63.894531 59.347656 73.832031 54.519531 C 83.765625 49.6875 95.703125 52.089844 102.992188 60.390625 C 110.285156 68.6875 111.132812 80.835938 105.0625 90.066406 C 104.488281 90.917969 104.550781 92.042969 105.214844 92.824219 L 110.574219 99.15625 L 102.539062 105.964844 Z M 84.511719 61.34375 C 76.222656 61.359375 69.472656 68 69.316406 76.289062 C 69.15625 84.574219 75.652344 91.464844 83.933594 91.796875 C 92.214844 92.128906 99.242188 85.777344 99.746094 77.503906 C 100.253906 69.234375 94.050781 62.074219 85.792969 61.394531 C 85.355469 61.355469 84.933594 61.34375 84.511719 61.34375 Z M 84.511719 61.34375 "/>
<path style=" stroke:none;fill-rule:nonzero;fill:rgb(100%,100%,100%);fill-opacity:1;" d="M 84.480469 52.960938 C 93.164062 52.960938 101.144531 57.722656 105.269531 65.363281 C 109.394531 73.003906 109 82.289062 104.238281 89.546875 C 103.433594 90.753906 103.523438 92.34375 104.453125 93.453125 L 109.195312 99.046875 L 102.625 104.613281 L 97.921875 99.015625 C 96.980469 97.914062 95.433594 97.5625 94.113281 98.152344 C 91.101562 99.480469 87.84375 100.167969 84.550781 100.167969 C 83.898438 100.167969 83.246094 100.140625 82.59375 100.089844 C 69.964844 99.070312 60.394531 88.261719 60.910156 75.601562 C 61.425781 62.945312 71.84375 52.949219 84.511719 52.960938 M 84.542969 92.742188 C 93.234375 92.761719 100.386719 85.90625 100.742188 77.222656 C 101.097656 68.539062 94.527344 61.125 85.863281 60.433594 C 85.414062 60.398438 84.964844 60.382812 84.519531 60.382812 C 75.582031 60.382812 68.339844 67.628906 68.339844 76.5625 C 68.339844 85.5 75.582031 92.742188 84.519531 92.742188 M 84.480469 51.039062 C 70.8125 51.070312 59.589844 61.863281 59.035156 75.523438 C 58.476562 89.179688 68.777344 100.851562 82.398438 101.996094 C 83.097656 102.0625 83.808594 102.085938 84.511719 102.085938 C 88.074219 102.09375 91.597656 101.347656 94.855469 99.902344 C 95.394531 99.664062 96.03125 99.808594 96.414062 100.257812 L 101.160156 105.855469 L 102.398438 107.320312 L 103.867188 106.078125 L 110.4375 100.511719 L 111.902344 99.269531 L 110.71875 97.804688 L 105.976562 92.210938 C 105.59375 91.753906 105.5625 91.097656 105.894531 90.605469 C 111.066406 82.75 111.496094 72.6875 107.019531 64.417969 C 102.542969 56.148438 93.882812 51.007812 84.480469 51.039062 Z M 84.511719 90.824219 C 76.636719 90.824219 70.253906 84.4375 70.253906 76.5625 C 70.253906 68.6875 76.636719 62.304688 84.511719 62.304688 C 84.910156 62.304688 85.304688 62.304688 85.703125 62.347656 C 93.339844 62.957031 99.132812 69.488281 98.820312 77.144531 C 98.507812 84.800781 92.199219 90.839844 84.539062 90.824219 Z M 84.511719 90.824219 "/>
<path style=" stroke:none;fill-rule:nonzero;fill:rgb(40.784314%,31.372549%,1.568627%);fill-opacity:1;" d="M 119.558594 118.117188 C 118.5 119.015625 117.132812 119.457031 115.75 119.339844 C 114.367188 119.226562 113.085938 118.570312 112.191406 117.511719 L 101.121094 104.460938 C 100.269531 103.453125 100.367188 101.953125 101.34375 101.070312 L 105.433594 97.371094 C 105.933594 96.917969 106.597656 96.6875 107.269531 96.730469 C 107.941406 96.777344 108.570312 97.089844 109.003906 97.605469 L 120.152344 110.757812 C 122.019531 112.957031 121.753906 116.25 119.558594 118.117188 Z M 119.558594 118.117188 "/>
<use xlink:href="#surface8" mask="url(#mask1)"/>
</g>
</svg>
