<?xml version="1.0" encoding="UTF-8" standalone="no"?>
<svg
   id="svg4379"
   height="128"
   width="128"
   version="1.1"
   sodipodi:docname="128.svg"
   xml:space="preserve"
   inkscape:version="1.4.2 (ebf0e940d0, 2025-05-08)"
   xmlns:inkscape="http://www.inkscape.org/namespaces/inkscape"
   xmlns:sodipodi="http://sodipodi.sourceforge.net/DTD/sodipodi-0.dtd"
   xmlns:xlink="http://www.w3.org/1999/xlink"
   xmlns="http://www.w3.org/2000/svg"
   xmlns:svg="http://www.w3.org/2000/svg"
   xmlns:rdf="http://www.w3.org/1999/02/22-rdf-syntax-ns#"
   xmlns:cc="http://creativecommons.org/ns#"
   xmlns:dc="http://purl.org/dc/elements/1.1/"><sodipodi:namedview
     id="namedview1"
     pagecolor="#ffffff"
     bordercolor="#000000"
     borderopacity="0.25"
     inkscape:showpageshadow="2"
     inkscape:pageopacity="0.0"
     inkscape:pagecheckerboard="0"
     inkscape:deskcolor="#d1d1d1"
     inkscape:current-layer="svg4379"
     showgrid="false"
     showguides="false"><inkscape:page
       x="0"
       y="0"
       width="128"
       height="128"
       id="page1"
       margin="0"
       bleed="0" /><inkscape:grid
       id="grid25"
       units="px"
       originx="0"
       originy="0"
       spacingx="0.5"
       spacingy="0.5"
       empcolor="#0099e5"
       empopacity="0.30196078"
       color="#0099e5"
       opacity="0.078431373"
       empspacing="2"
       enabled="true"
       visible="false" /></sodipodi:namedview><defs
     id="defs4381"><linearGradient
       id="linearGradient89"
       inkscape:collect="always"><stop
         style="stop-color:#ffffff;stop-opacity:1;"
         offset="0"
         id="stop86" /><stop
         style="stop-color:#ffffff;stop-opacity:0.25;"
         offset="0.15273535"
         id="stop87" /><stop
         style="stop-color:#ffffff;stop-opacity:0.25;"
         offset="0.82958394"
         id="stop88" /><stop
         style="stop-color:#ffffff;stop-opacity:0.5;"
         offset="1"
         id="stop89" /></linearGradient><linearGradient
       id="linearGradient84"
       inkscape:collect="always"><stop
         style="stop-color:#ffffff;stop-opacity:1;"
         offset="0"
         id="stop81" /><stop
         style="stop-color:#ffffff;stop-opacity:0.25;"
         offset="0.09803922"
         id="stop82" /><stop
         style="stop-color:#ffffff;stop-opacity:0.25;"
         offset="0.90196079"
         id="stop83" /><stop
         style="stop-color:#ffffff;stop-opacity:0.5;"
         offset="1"
         id="stop84" /></linearGradient><linearGradient
       id="linearGradient80"
       inkscape:collect="always"><stop
         style="stop-color:#ffffff;stop-opacity:1;"
         offset="0"
         id="stop77" /><stop
         style="stop-color:#ffffff;stop-opacity:0.25;"
         offset="0.09803922"
         id="stop78" /><stop
         style="stop-color:#ffffff;stop-opacity:0.25;"
         offset="0.90196079"
         id="stop79" /><stop
         style="stop-color:#ffffff;stop-opacity:0.5;"
         offset="1"
         id="stop80" /></linearGradient><linearGradient
       id="linearGradient76"
       inkscape:collect="always"><stop
         style="stop-color:#ffffff;stop-opacity:1;"
         offset="0"
         id="stop69" /><stop
         style="stop-color:#ffffff;stop-opacity:0.25;"
         offset="0.09803922"
         id="stop70" /><stop
         style="stop-color:#ffffff;stop-opacity:0.25;"
         offset="0.90196079"
         id="stop71" /><stop
         style="stop-color:#ffffff;stop-opacity:0.5;"
         offset="1"
         id="stop76" /></linearGradient><linearGradient
       id="linearGradient68"
       inkscape:collect="always"><stop
         style="stop-color:#ffffff;stop-opacity:1;"
         offset="0"
         id="stop57" /><stop
         style="stop-color:#ffffff;stop-opacity:0.25;"
         offset="0.09009009"
         id="stop62" /><stop
         style="stop-color:#ffffff;stop-opacity:0.25;"
         offset="0.9099099"
         id="stop63" /><stop
         style="stop-color:#ffffff;stop-opacity:0.5;"
         offset="1"
         id="stop68" /></linearGradient><linearGradient
       id="linearGradient880"><stop
         style="stop-color:#cd9ef7;stop-opacity:1"
         offset="0"
         id="stop876" /><stop
         style="stop-color:#a56de2;stop-opacity:1"
         offset="1"
         id="stop878" /></linearGradient><linearGradient
       gradientTransform="matrix(2.7297298,0,0,2.7297298,-1.5135124,1.486514)"
       gradientUnits="userSpaceOnUse"
       xlink:href="#linearGradient3924-776"
       id="linearGradient3159"
       y2="43"
       x2="23.99999"
       y1="4.999989"
       x1="23.99999" /><linearGradient
       id="linearGradient3924-776"><stop
         offset="0"
         style="stop-color:#ffffff;stop-opacity:1"
         id="stop3124" /><stop
         offset="0.06316455"
         style="stop-color:#ffffff;stop-opacity:0.23529412"
         id="stop3126" /><stop
         offset="0.95056331"
         style="stop-color:#ffffff;stop-opacity:0.15686275"
         id="stop3128" /><stop
         offset="1"
         style="stop-color:#ffffff;stop-opacity:0.39215687"
         id="stop3130" /></linearGradient><radialGradient
       gradientTransform="matrix(2.003784,0,0,1.4,27.98813,-17.4)"
       gradientUnits="userSpaceOnUse"
       xlink:href="#linearGradient3688-166-749-5"
       id="radialGradient2455-1"
       fy="43.5"
       fx="4.9929786"
       r="2.5"
       cy="43.5"
       cx="4.9929786" /><linearGradient
       id="linearGradient3688-166-749-5"><stop
         offset="0"
         style="stop-color:#181818;stop-opacity:1"
         id="stop2883-0" /><stop
         offset="1"
         style="stop-color:#181818;stop-opacity:0"
         id="stop2885-5" /></linearGradient><radialGradient
       gradientTransform="matrix(2.003784,0,0,1.4,-20.01187,-104.4)"
       gradientUnits="userSpaceOnUse"
       xlink:href="#linearGradient3688-464-309-8"
       id="radialGradient2457-5"
       fy="43.5"
       fx="4.9929786"
       r="2.5"
       cy="43.5"
       cx="4.9929786" /><linearGradient
       id="linearGradient3688-464-309-8"><stop
         offset="0"
         style="stop-color:#181818;stop-opacity:1"
         id="stop2889-9" /><stop
         offset="1"
         style="stop-color:#181818;stop-opacity:0"
         id="stop2891-4" /></linearGradient><linearGradient
       gradientUnits="userSpaceOnUse"
       xlink:href="#linearGradient3702-501-757-0"
       id="linearGradient2459-7"
       y2="39.999443"
       x2="25.058096"
       y1="47.027729"
       x1="25.058096" /><linearGradient
       id="linearGradient3702-501-757-0"><stop
         offset="0"
         style="stop-color:#181818;stop-opacity:0"
         id="stop2895-0" /><stop
         offset="0.5"
         style="stop-color:#181818;stop-opacity:1"
         id="stop2897-2" /><stop
         offset="1"
         style="stop-color:#181818;stop-opacity:0"
         id="stop2899-6" /></linearGradient><linearGradient
       id="linearGradient3811"><stop
         offset="0"
         style="stop-color:#000000;stop-opacity:1"
         id="stop3813" /><stop
         offset="1"
         style="stop-color:#000000;stop-opacity:0"
         id="stop3815" /></linearGradient><radialGradient
       gradientTransform="matrix(1.5563924,0,0,0.16978827,70.270358,102.13029)"
       gradientUnits="userSpaceOnUse"
       xlink:href="#linearGradient3811"
       id="radialGradient4377"
       fy="93.467628"
       fx="-4.0287771"
       r="35.338131"
       cy="93.467628"
       cx="-4.0287771" /><linearGradient
       xlink:href="#linearGradient880"
       id="linearGradient882"
       x1="62.871635"
       y1="15.90732"
       x2="62.871635"
       y2="118.42699"
       gradientUnits="userSpaceOnUse" /><inkscape:path-effect
       effect="fillet_chamfer"
       id="path-effect29"
       is_visible="true"
       lpeversion="1"
       nodesatellites_param="F,0,0,1,0,0,0,1 @ F,0,0,1,0,15,0,1 @ F,0,0,1,0,13.038405,0,1 @ F,0,0,1,0,0,0,1"
       radius="0"
       unit="px"
       method="auto"
       mode="F"
       chamfer_steps="1"
       flexible="false"
       use_knot_distance="true"
       apply_no_radius="true"
       apply_with_radius="true"
       only_selected="false"
       hide_knots="false" /><inkscape:path-effect
       effect="fillet_chamfer"
       id="path-effect27"
       is_visible="true"
       lpeversion="1"
       nodesatellites_param="F,0,0,1,0,0,0,1 @ F,0,0,1,0,15,0,1 @ F,0,0,1,0,13.038405,0,1 @ F,0,0,1,0,0,0,1"
       radius="0"
       unit="px"
       method="auto"
       mode="F"
       chamfer_steps="1"
       flexible="false"
       use_knot_distance="true"
       apply_no_radius="true"
       apply_with_radius="true"
       only_selected="false"
       hide_knots="false" /><linearGradient
       y2="42.091705"
       x2="23.99999"
       y1="5.9093657"
       x1="23.99999"
       gradientTransform="matrix(1.4324324,0,0,1.4362832,-2.3783747,-2.4707827)"
       gradientUnits="userSpaceOnUse"
       id="linearGradient3904"
       xlink:href="#linearGradient4270" /><linearGradient
       id="linearGradient4270"><stop
         id="stop4272"
         style="stop-color:#ffffff;stop-opacity:1"
         offset="0" /><stop
         id="stop4274"
         style="stop-color:#ffffff;stop-opacity:0.23529412"
         offset="0.0348749" /><stop
         id="stop4276"
         style="stop-color:#ffffff;stop-opacity:0.15686275"
         offset="0.96216321" /><stop
         id="stop4278"
         style="stop-color:#ffffff;stop-opacity:0.39215687"
         offset="1" /></linearGradient><radialGradient
       cx="4.9929786"
       cy="43.5"
       r="2.5"
       fx="4.9929786"
       fy="43.5"
       id="radialGradient3337-2-2"
       xlink:href="#linearGradient3688-166-749-5"
       gradientUnits="userSpaceOnUse"
       gradientTransform="matrix(2.4045407,0,0,0.99999998,41.985755,15.500001)" /><radialGradient
       cx="4.9929786"
       cy="43.5"
       r="2.5"
       fx="4.9929786"
       fy="43.5"
       id="radialGradient3339-1-4"
       xlink:href="#linearGradient3688-166-749-5"
       gradientUnits="userSpaceOnUse"
       gradientTransform="matrix(2.4045407,0,0,0.99999998,-22.014244,-102.5)" /><linearGradient
       x1="25.058096"
       y1="47.027729"
       x2="25.058096"
       y2="39.999443"
       id="linearGradient6394"
       xlink:href="#linearGradient3702-501-757-0"
       gradientUnits="userSpaceOnUse"
       gradientTransform="matrix(1.5714286,0,0,0.7142857,-5.7142853,27.928572)" /><linearGradient
       xlink:href="#linearGradient880"
       id="linearGradient899"
       x1="31.781376"
       y1="4.9266648"
       x2="31.781376"
       y2="59.148476"
       gradientUnits="userSpaceOnUse" /><linearGradient
       id="linearGradient7"
       inkscape:collect="always"><stop
         style="stop-color:#57392d;stop-opacity:1;"
         offset="0"
         id="stop9" /><stop
         style="stop-color:#715344;stop-opacity:1;"
         offset="1"
         id="stop10" /></linearGradient><inkscape:path-effect
       effect="fillet_chamfer"
       id="path-effect3"
       is_visible="true"
       lpeversion="1"
       nodesatellites_param="F,0,0,1,0,0,0,1 @ F,0,0,1,0,15,0,1 @ F,0,0,1,0,13.038405,0,1 @ F,0,0,1,0,0,0,1"
       radius="0"
       unit="px"
       method="auto"
       mode="F"
       chamfer_steps="1"
       flexible="false"
       use_knot_distance="true"
       apply_no_radius="true"
       apply_with_radius="true"
       only_selected="false"
       hide_knots="false" /><linearGradient
       id="linearGradient1"
       inkscape:collect="always"><stop
         style="stop-color:#cfa25e;stop-opacity:1;"
         offset="0"
         id="stop1" /><stop
         style="stop-color:#e7c591;stop-opacity:1;"
         offset="1"
         id="stop2" /></linearGradient><linearGradient
       id="linearGradient5"
       inkscape:collect="always"><stop
         style="stop-color:#cfa25e;stop-opacity:1;"
         offset="0"
         id="stop5" /><stop
         style="stop-color:#b6802e;stop-opacity:1;"
         offset="1"
         id="stop6" /></linearGradient><inkscape:path-effect
       effect="fillet_chamfer"
       id="path-effect16"
       is_visible="true"
       lpeversion="1"
       nodesatellites_param="F,0,0,1,0,0,0,1 @ F,0,0,1,0,4.1230503,0,1 @ F,0,0,1,0,0,0,1"
       radius="0"
       unit="px"
       method="auto"
       mode="F"
       chamfer_steps="1"
       flexible="false"
       use_knot_distance="true"
       apply_no_radius="true"
       apply_with_radius="true"
       only_selected="false"
       hide_knots="false" /><inkscape:path-effect
       effect="fillet_chamfer"
       id="path-effect14"
       is_visible="true"
       lpeversion="1"
       nodesatellites_param="F,0,0,1,0,0,0,1 @ F,0,0,1,0,4.1230503,0,1 @ F,0,0,1,0,0,0,1"
       radius="0"
       unit="px"
       method="auto"
       mode="F"
       chamfer_steps="1"
       flexible="false"
       use_knot_distance="true"
       apply_no_radius="true"
       apply_with_radius="true"
       only_selected="false"
       hide_knots="false" /><inkscape:path-effect
       effect="fillet_chamfer"
       id="path-effect10"
       is_visible="true"
       lpeversion="1"
       nodesatellites_param="F,0,0,1,0,0,0,1 @ F,0,0,1,0,15,0,1 @ F,0,0,1,0,13.038405,0,1 @ F,0,0,1,0,0,0,1"
       radius="0"
       unit="px"
       method="auto"
       mode="F"
       chamfer_steps="1"
       flexible="false"
       use_knot_distance="true"
       apply_no_radius="true"
       apply_with_radius="true"
       only_selected="false"
       hide_knots="false" /><inkscape:path-effect
       effect="fillet_chamfer"
       id="path-effect8"
       is_visible="true"
       lpeversion="1"
       nodesatellites_param="F,0,0,1,0,0,0,1 @ F,0,0,1,0,15,0,1 @ F,0,0,1,0,13.038405,0,1 @ F,0,0,1,0,0,0,1"
       radius="0"
       unit="px"
       method="auto"
       mode="F"
       chamfer_steps="1"
       flexible="false"
       use_knot_distance="true"
       apply_no_radius="true"
       apply_with_radius="true"
       only_selected="false"
       hide_knots="false" /><linearGradient
       id="linearGradient1201"><stop
         id="stop1193"
         style="stop-color:#ffffff;stop-opacity:1"
         offset="0" /><stop
         id="stop1195"
         style="stop-color:#ffffff;stop-opacity:0.23529412"
         offset="0.06781636" /><stop
         id="stop1197"
         style="stop-color:#ffffff;stop-opacity:0.15686275"
         offset="0.94694352" /><stop
         id="stop1199"
         style="stop-color:#ffffff;stop-opacity:0.39215687"
         offset="1" /></linearGradient><radialGradient
       cx="4.9929786"
       cy="43.5"
       r="2.5"
       fx="4.9929786"
       fy="43.5"
       id="radialGradient3013-6"
       xlink:href="#linearGradient3688-166-749-5"
       gradientUnits="userSpaceOnUse"
       gradientTransform="matrix(2.003784,0,0,0.89999994,29.98813,4.8500025)" /><radialGradient
       cx="4.9929786"
       cy="43.5"
       r="2.5"
       fx="4.9929786"
       fy="43.5"
       id="radialGradient3015-1"
       xlink:href="#linearGradient3688-166-749-5"
       gradientUnits="userSpaceOnUse"
       gradientTransform="matrix(2.003784,0,0,0.89999994,-18.01187,-83.149997)" /><linearGradient
       x1="38.999996"
       y1="5.9999938"
       x2="38.999996"
       y2="41.945408"
       id="linearGradient3058-5"
       xlink:href="#linearGradient1201"
       gradientUnits="userSpaceOnUse"
       gradientTransform="translate(4e-6,1.0000062)" /><linearGradient
       xlink:href="#linearGradient3702-501-757-0"
       id="linearGradient1191"
       gradientUnits="userSpaceOnUse"
       x1="25.058096"
       y1="47.027729"
       x2="25.058096"
       y2="39.999443"
       gradientTransform="matrix(1.1428571,0,0,0.6428571,-3.428569,16.035716)" /><linearGradient
       xlink:href="#linearGradient880"
       id="linearGradient930-9-2"
       x1="16.767664"
       y1="2.7676599"
       x2="16.767664"
       y2="29.896721"
       gradientUnits="userSpaceOnUse"
       gradientTransform="matrix(1.444444,0,0,1.444444,0.888913,1.888891)" /><linearGradient
       inkscape:collect="always"
       xlink:href="#linearGradient1"
       id="linearGradient38"
       x1="26.5"
       y1="93.055092"
       x2="26.5"
       y2="122"
       gradientUnits="userSpaceOnUse" /><linearGradient
       inkscape:collect="always"
       xlink:href="#linearGradient5"
       id="linearGradient40"
       x1="63.5"
       y1="16"
       x2="63.5"
       y2="92"
       gradientUnits="userSpaceOnUse" /><linearGradient
       inkscape:collect="always"
       xlink:href="#linearGradient5"
       id="linearGradient41"
       x1="60.5"
       y1="16.097328"
       x2="60.5"
       y2="92"
       gradientUnits="userSpaceOnUse" /><linearGradient
       inkscape:collect="always"
       xlink:href="#linearGradient7"
       id="linearGradient43"
       x1="94"
       y1="93"
       x2="94"
       y2="122.0486"
       gradientUnits="userSpaceOnUse" /><linearGradient
       inkscape:collect="always"
       xlink:href="#linearGradient84"
       id="linearGradient47"
       x1="70"
       y1="18"
       x2="70"
       y2="120"
       gradientUnits="userSpaceOnUse" /><linearGradient
       inkscape:collect="always"
       xlink:href="#linearGradient80"
       id="linearGradient49"
       x1="46"
       y1="18"
       x2="46"
       y2="120"
       gradientUnits="userSpaceOnUse" /><linearGradient
       inkscape:collect="always"
       xlink:href="#linearGradient76"
       id="linearGradient51"
       x1="63"
       y1="18"
       x2="63"
       y2="120"
       gradientUnits="userSpaceOnUse" /><linearGradient
       inkscape:collect="always"
       xlink:href="#linearGradient68"
       id="linearGradient52"
       x1="53"
       y1="9"
       x2="53"
       y2="120"
       gradientUnits="userSpaceOnUse" /><linearGradient
       inkscape:collect="always"
       xlink:href="#linearGradient89"
       id="linearGradient86"
       x1="99.910515"
       y1="31.022423"
       x2="99.910515"
       y2="93.074707"
       gradientUnits="userSpaceOnUse" /><linearGradient
       inkscape:collect="always"
       xlink:href="#linearGradient7"
       id="linearGradient4"
       x1="45"
       y1="21"
       x2="45"
       y2="8.8804522"
       gradientUnits="userSpaceOnUse" /><linearGradient
       inkscape:collect="always"
       xlink:href="#linearGradient7"
       id="linearGradient6"
       x1="86"
       y1="21"
       x2="86"
       y2="9"
       gradientUnits="userSpaceOnUse" /></defs><metadata
     id="metadata4384"><rdf:RDF><cc:Work
         rdf:about=""><dc:format>image/svg+xml</dc:format><dc:type
           rdf:resource="http://purl.org/dc/dcmitype/StillImage" /></cc:Work></rdf:RDF></metadata><path
     id="path33"
     style="opacity:1;fill:none;stroke:#3d211b;stroke-width:2;stroke-linejoin:round;stroke-dasharray:none;stroke-opacity:0.5"
     d="m 50.222656,8.8730469 c -5.421602,0.179734 -10.871423,0.844722 -15.922491,2.8253161 -1.854396,0.778024 -3.902483,1.648289 -4.999726,3.426927 -0.515604,0.921756 -0.05663,2.015851 0.762711,2.5774 1.603648,1.291207 3.687438,1.764029 5.65146,2.215038 4.801713,0.929709 9.730252,0.842768 14.593587,0.333365 2.890349,-0.334815 5.872754,-0.933844 8.689619,-1.830573 1.953288,-0.635124 3.805088,-1.401507 5.472434,-2.618626 1.147892,-0.371643 1.943572,0.818243 2.930444,1.165936 3.99008,2.0465 8.485275,2.821671 12.89708,3.342031 5.225451,0.547411 10.629178,0.48077 15.737237,-0.84182 1.705198,-0.475874 3.75781,-1.16952 4.763509,-2.81999 0.47938,-1.20503 -0.48136,-2.310445 -1.389342,-2.974419 -1.971155,-1.566225 -4.365797,-2.301022 -6.6998,-3.0057 C 86.673258,9.0175285 80.39019,8.5639512 74.170402,9.0989662 71.15246,9.3784224 68.110885,10.011162 65.427734,11.464844 64.484759,11.821173 63.795688,10.883874 62.949414,10.653991 60.692124,9.6914797 58.248939,9.3491556 55.769449,9.0760112 53.926353,8.8994647 52.073519,8.8449712 50.222656,8.8730469 Z" /><path
     id="path31"
     style="opacity:1;fill:url(#linearGradient6);stroke:none;stroke-width:1;stroke-linejoin:round;stroke-dasharray:none;stroke-opacity:1"
     d="m 77.470703,8.3964844 c -4.216041,0.1760989 -8.73105,0.544517 -12.453635,2.8013956 -1.089584,0.732954 -1.93437,2.266996 -1.106912,3.497432 1.087304,1.864676 3.2127,2.719853 5.09239,3.557142 5.388416,2.109245 11.229531,2.767544 16.978313,2.866687 4.077641,0.01998 8.242288,-0.386811 12.110912,-1.815117 1.382989,-0.580639 2.975499,-1.456073 3.322289,-3.040352 0.15615,-1.682968 -1.36112,-2.81205 -2.608569,-3.630882 C 96.394642,11.103867 93.650138,10.396482 90.945312,9.7011719 86.539366,8.6832985 82.003724,8.3186298 77.470703,8.3964844 Z" /><path
     d="m 115.93998,92.5 c 2.76235,3.214049 4.24625,7.058255 4.2461,11 0,10.49341 -10.29745,19 -23.000004,19 -29.546455,0 -60.5,-19 -60.183594,-30 H 78.43217 94.686076 Z"
     style="opacity:1;fill:url(#linearGradient43);stroke:#3d211b;stroke-linejoin:round;stroke-opacity:0.5"
     id="path30"
     sodipodi:nodetypes="ccccccc" /><path
     id="rect25"
     style="opacity:1;fill:url(#linearGradient41);stroke:#804b00;stroke-linejoin:round;stroke-opacity:0.5"
     d="M 61.986328,15.503906 C 32.35456,15.720712 8.5004712,25.430815 8.5,37.5 v 55 h 21 v -57 c 0,-4 4.625481,-8.209013 9,-11 4.997356,-2.998414 15.321692,-6.662586 23.486328,-8.996094 z" /><path
     id="path26"
     style="opacity:1;fill:url(#linearGradient40);stroke:#804b00;stroke-linejoin:round;stroke-opacity:0.5"
     d="M 61.986328,15.503906 C 53.821692,17.837414 43.497356,21.501586 38.5,24.5 c -4.374519,2.790987 -9,7 -9,11 v 57 h 77 l 11,-13 v -42 c -4.8e-4,-12.206412 -24.400818,-22 -54.5,-22 -0.338382,0 -0.676757,0.0014 -1.013672,0.0039 z" /><path
     d="M 8.2460938,92.5 C 5.4837463,95.714049 3.9998501,99.558255 4,103.5 c 0,10.49341 10.297451,19 23,19 29.546455,0 60.5,-19 60.183594,-30 H 45.753906 29.5 Z"
     style="opacity:1;fill:url(#linearGradient38);stroke:#804b00;stroke-linejoin:round;stroke-opacity:0.5"
     id="path29"
     sodipodi:nodetypes="ccccccc" /><path
     id="path34"
     style="opacity:0.5;fill:none;stroke:url(#linearGradient47);stroke-linejoin:round;stroke-opacity:1"
     d="m 59.619141,17.253906 c -6.463539,1.988417 -13.001191,4.216207 -19.07429,7.2546 -3.357859,1.811568 -6.478438,4.222492 -8.719388,7.336991 -1.003998,1.406098 -1.51156,3.148387 -1.325463,4.872862 0,18.260547 0,36.521094 0,54.781641 25.179687,0 50.359375,0 75.53906,0 3.48698,-4.121094 6.97396,-8.242187 10.46094,-12.363281 -0.009,-14.090233 0.0278,-28.182056 -0.0284,-42.271286 -0.32487,-3.682249 -2.96903,-6.647177 -5.79065,-8.794167 -5.84256,-4.384582 -12.904289,-6.731332 -19.917258,-8.481422 -9.369735,-2.254637 -19.004948,-3.112226 -28.632813,-3.085938 -0.837239,0.25 -1.674479,0.5 -2.511718,0.75 z" /><path
     id="path35"
     style="opacity:0.5;fill:none;stroke:url(#linearGradient49);stroke-linejoin:round;stroke-opacity:1"
     d="m 54.101562,16.796875 c -7.963678,0.539216 -16.000264,1.790197 -23.669921,4.091797 -5.429869,1.680039 -10.717571,3.837102 -15.25568,7.280727 -2.503886,1.990413 -4.901641,4.545342 -5.5158048,7.793492 C 9.3149923,37.993967 9.5817676,40.065665 9.5,42.114844 c 0,16.461718 0,32.923437 0,49.385156 6.333333,0 12.666667,0 19,0 0.0038,-18.831344 -0.01707,-37.662995 0.01953,-56.494141 0.378339,-3.512144 2.964822,-6.216225 5.492276,-8.443593 3.298087,-2.90102 7.298151,-4.819938 11.347796,-6.430656 3.008906,-1.240054 6.076957,-2.331505 9.163835,-3.360126 -0.140626,0.0085 -0.28125,0.01693 -0.421876,0.02539 z" /><path
     id="path2"
     style="opacity:0.15;fill:#000000;fill-opacity:1;stroke:#000000;stroke-width:2;stroke-linejoin:round;stroke-dasharray:none;stroke-opacity:1"
     d="m 64,15.5 c 0.02941,0.638849 -0.186079,1.37243 0.453125,1.775391 6.739813,0.507128 13.501412,2.15233 19.375599,5.576799 3.318758,1.952287 6.336944,4.559327 8.28651,7.917341 0.742774,0.460043 1.686869,0.13164 2.521875,0.230469 1.648959,0 3.297917,0 4.946875,0 0.528736,-0.551689 0.358164,-1.085792 -0.104772,-1.612542 C 97.25392,25.830055 93.880898,23.129386 90.261016,21.083733 84.784763,18.009192 78.6271,16.287364 72.420601,15.498502 69.795188,15.150456 67.146823,15.020635 64.5,15 64.333333,15.166667 64.166667,15.333333 64,15.5 Z" /><path
     id="path89"
     style="opacity:0.15;fill:#000000;fill-opacity:1;stroke:none;stroke-width:1;stroke-linejoin:round;stroke-dasharray:none;stroke-opacity:1"
     d="m 64,15.5 c 0.02941,0.638849 -0.186079,1.37243 0.453125,1.775391 6.739813,0.507128 13.501412,2.15233 19.375599,5.576799 3.318758,1.952287 6.336944,4.559327 8.28651,7.917341 0.742774,0.460043 1.686869,0.13164 2.521875,0.230469 1.648959,0 3.297917,0 4.946875,0 0.528736,-0.551689 0.358164,-1.085792 -0.104772,-1.612542 C 97.25392,25.830055 93.880898,23.129386 90.261016,21.083733 84.784763,18.009192 78.6271,16.287364 72.420601,15.498502 69.795188,15.150456 67.146823,15.020635 64.5,15 64.333333,15.166667 64.166667,15.333333 64,15.5 Z" /><path
     id="path3"
     style="opacity:0.15;fill:#000000;stroke:#000000;stroke-width:2;stroke-linejoin:round;stroke-dasharray:none;stroke-opacity:1"
     d="M 50.195312,9.3789062 C 43.707993,9.6248236 36.940862,10.447347 31.168055,13.6857 c -1.318553,0.78994 -2.82975,2.099568 -2.522869,3.807866 0.530014,1.768465 2.436679,2.502635 4.004755,3.106638 3.748392,1.26217 7.648766,1.506441 11.560132,1.519689 5.681065,-0.09206 11.407945,-0.831941 16.746521,-2.887026 1.847734,-0.773744 3.812548,-1.680991 5.014299,-3.350917 0.669185,-0.938968 0.560737,-2.287154 -0.296621,-3.074847 C 64.298601,11.408035 62.320781,10.839047 60.476928,10.34016 57.119288,9.5268438 53.638005,9.3599375 50.195312,9.3789062 Z" /><path
     id="path90"
     style="opacity:0.15;fill:#000000;stroke:none;stroke-width:1;stroke-linejoin:round;stroke-dasharray:none;stroke-opacity:1"
     d="M 50.195312,9.3789062 C 43.707993,9.6248236 36.940862,10.447347 31.168055,13.6857 c -1.318553,0.78994 -2.82975,2.099568 -2.522869,3.807866 0.530014,1.768465 2.436679,2.502635 4.004755,3.106638 3.748392,1.26217 7.648766,1.506441 11.560132,1.519689 5.681065,-0.09206 11.407945,-0.831941 16.746521,-2.887026 1.847734,-0.773744 3.812548,-1.680991 5.014299,-3.350917 0.669185,-0.938968 0.560737,-2.287154 -0.296621,-3.074847 C 64.298601,11.408035 62.320781,10.839047 60.476928,10.34016 57.119288,9.5268438 53.638005,9.3599375 50.195312,9.3789062 Z" /><path
     id="ellipse31"
     style="opacity:1;fill:url(#linearGradient4);stroke:none;stroke-width:1;stroke-linejoin:round;stroke-dasharray:none;stroke-opacity:1"
     d="M 50.195312,8.3789062 C 43.707993,8.6248236 36.940862,9.4473474 31.168055,12.6857 c -1.318553,0.78994 -2.82975,2.099568 -2.522869,3.807866 0.530014,1.768465 2.436679,2.502635 4.004755,3.106638 3.748392,1.26217 7.648766,1.506441 11.560132,1.519689 5.681065,-0.09206 11.407945,-0.831941 16.746521,-2.887026 1.847734,-0.773744 3.812548,-1.680991 5.014299,-3.350917 0.669185,-0.938968 0.560737,-2.287154 -0.296621,-3.074847 C 64.298601,10.408035 62.320781,9.8390467 60.476928,9.3401598 57.119288,8.5268438 53.638005,8.3599375 50.195312,8.3789062 Z" /><path
     id="path32"
     style="opacity:1;fill:#57392d;fill-opacity:1;stroke:none;stroke-width:1;stroke-linejoin:round;stroke-dasharray:none;stroke-opacity:1"
     d="m 64,14.5 c 0.02941,0.638849 -0.186079,1.37243 0.453125,1.775391 6.739813,0.507128 13.501412,2.15233 19.375599,5.576799 3.318758,1.952287 6.336944,4.559327 8.28651,7.917341 0.742774,0.460043 1.686869,0.13164 2.521875,0.230469 1.648959,0 3.297917,0 4.946875,0 0.528736,-0.551689 0.358164,-1.085792 -0.104772,-1.612542 C 97.25392,24.830055 93.880898,22.129386 90.261016,20.083733 84.784763,17.009192 78.6271,15.287364 72.420601,14.498502 69.795188,14.150456 67.146823,14.020635 64.5,14 64.333333,14.166667 64.166667,14.333333 64,14.5 Z" /><rect
     style="opacity:0.15;fill:#000000;fill-opacity:1;stroke:#000000;stroke-width:2;stroke-linejoin:round;stroke-dasharray:none;stroke-opacity:1"
     id="rect1"
     width="41"
     height="65"
     x="77.5"
     y="28.5"
     ry="12"
     rx="10" /><rect
     style="opacity:0.15;fill:#000000;fill-opacity:1;stroke:none;stroke-width:1;stroke-linejoin:round;stroke-dasharray:none;stroke-opacity:0.5"
     id="rect89"
     width="41"
     height="65"
     x="77.5"
     y="28.5"
     ry="12"
     rx="10" /><rect
     style="opacity:1;fill:#cfa25e;stroke:#804b00;stroke-width:1;stroke-linejoin:round;stroke-dasharray:none;stroke-opacity:0.5"
     id="rect26"
     width="41"
     height="65"
     x="78.5"
     y="29.5"
     ry="12"
     rx="10" /><path
     id="rect34"
     style="opacity:0.5;fill:none;stroke:url(#linearGradient86);stroke-width:1;stroke-linejoin:round;stroke-dasharray:none;stroke-opacity:1"
     d="m 108.90234,30.5 c -7.05495,0.01825 -14.113045,-0.04622 -21.166008,0.04216 -3.586858,0.350714 -6.401957,3.319114 -7.506115,6.611932 -0.79983,2.165636 -0.763607,4.382324 -0.73037,6.656849 0.01524,13.225047 -0.04075,26.452019 0.04036,39.67585 0.244191,3.81257 2.302046,7.757786 5.905103,9.358916 1.99716,0.95291 4.240235,0.589092 6.369922,0.655302 6.183495,-0.01816 12.370628,0.05308 18.551778,-0.05477 3.63496,-0.407835 6.43567,-3.482186 7.48409,-6.843288 0.75319,-2.164344 0.66485,-4.35034 0.64907,-6.613886 -0.0152,-13.158381 0.0406,-26.318686 -0.0404,-39.47585 -0.24256,-3.742795 -2.22023,-7.607364 -5.70741,-9.267766 -1.1968,-0.556697 -2.53004,-0.83193 -3.85004,-0.745447 z" /><path
     id="path36"
     style="opacity:0.5;fill:none;stroke:url(#linearGradient52);stroke-width:1;stroke-linejoin:round;stroke-dasharray:none;stroke-opacity:1"
     d="M 49.087891,9.4238281 C 43.09367,9.7356628 36.854905,10.592847 31.548828,13.625 c -0.884186,0.600867 -2.04323,1.420004 -1.916016,2.623047 0.502592,1.416596 2.11343,1.90237 3.376954,2.414062 3.752781,1.276804 7.72533,1.460764 11.637836,1.443491 5.568487,-0.08835 11.224894,-0.916058 16.444195,-2.994272 1.200844,-0.490605 2.284951,-1.223268 3.431641,-1.80664 1.500835,-0.274858 2.483031,1.170291 3.810783,1.550979 4.993186,2.291092 10.582798,2.932543 15.986433,3.231452 4.395366,0.163324 8.793027,-0.167392 12.998294,-1.565267 1.224463,-0.444364 2.664106,-1.098291 3.089252,-2.430055 C 100.3465,14.6588 98.892699,13.895587 97.819878,13.219314 94.357001,11.291233 90.351788,10.540034 86.514197,9.9137688 81.226475,9.1757169 75.847955,9.1614261 70.592091,10.138054 68.755463,10.512825 67.017956,11.242937 65.314453,11.994141 63.977854,12.146364 63.019711,10.962054 61.75509,10.755181 57.737025,9.4483372 53.449631,9.3182957 49.260703,9.4163396 l -0.09991,0.00433 z" /><path
     id="path37"
     style="opacity:0.5;fill:none;stroke:url(#linearGradient51);stroke-linejoin:round;stroke-opacity:1"
     d="m 8.5273438,93.732422 c -2.0598746,2.589821 -3.3538743,5.779737 -3.5097657,9.060548 -0.2982845,5.44414 2.6819444,10.67877 6.9872989,13.86849 4.398567,3.36359 10.02989,4.92002 15.490826,4.83854 9.634635,-0.11228 19.199295,-2.09368 28.27181,-5.38813 7.27549,-2.68262 14.34593,-6.13475 20.622557,-10.76039 3.193401,-2.43917 6.356031,-5.11291 8.459381,-8.587274 0.590599,-1.014758 1.041586,-2.113603 1.279455,-3.264206 -25.802734,0 -51.605469,0 -77.4082029,0 -0.064453,0.07747 -0.1289062,0.154948 -0.1933593,0.232422 z" /></svg>
