<?xml version="1.0" encoding="UTF-8"?>
<svg xmlns="http://www.w3.org/2000/svg" xmlns:xlink="http://www.w3.org/1999/xlink" width="16px" height="16px" viewBox="0 0 16 16" version="1.1">
<defs>
<filter id="alpha" filterUnits="objectBoundingBox" x="0%" y="0%" width="100%" height="100%">
  <feColorMatrix type="matrix" in="SourceGraphic" values="0 0 0 0 1 0 0 0 0 1 0 0 0 0 1 0 0 0 1 0"/>
</filter>
<mask id="mask0">
  <g filter="url(#alpha)">
<rect x="0" y="0" width="16" height="16" style="fill:rgb(0%,0%,0%);fill-opacity:0.901961;stroke:none;"/>
  </g>
</mask>
<clipPath id="clip1">
  <rect x="0" y="0" width="16" height="16"/>
</clipPath>
<g id="surface5" clip-path="url(#clip1)">
<path style="fill-rule:nonzero;fill:rgb(88.627451%,92.156863%,92.941176%);fill-opacity:1;stroke-width:1;stroke-linecap:butt;stroke-linejoin:miter;stroke:rgb(85.490196%,91.372549%,92.941176%);stroke-opacity:1;stroke-miterlimit:10;" d="M 144.140625 112.158203 C 143.261719 112.109375 142.529297 111.621094 142.089844 110.888672 C 141.650391 110.107422 141.162109 109.423828 140.527344 108.789062 C 136.279297 104.443359 129.492188 103.857422 124.560547 107.470703 C 123.876953 108.007812 123.242188 108.59375 122.705078 109.277344 C 121.826172 110.302734 120.3125 110.498047 119.189453 109.765625 C 118.652344 109.423828 118.261719 108.935547 118.164062 108.300781 C 118.066406 107.714844 118.212891 107.080078 118.603516 106.591797 C 119.384766 105.615234 120.263672 104.736328 121.240234 104.003906 C 128.369141 98.779297 138.183594 99.609375 144.335938 105.908203 C 145.214844 106.787109 145.947266 107.8125 146.533203 108.886719 C 146.826172 109.423828 146.875 110.058594 146.679688 110.644531 C 146.435547 111.230469 145.996094 111.669922 145.410156 111.914062 C 145.019531 112.109375 144.580078 112.158203 144.140625 112.158203 Z M 144.140625 112.158203 " transform="matrix(0.08,0,0,0.08,0,0)"/>
</g>
<mask id="mask1">
  <g filter="url(#alpha)">
<rect x="0" y="0" width="16" height="16" style="fill:rgb(0%,0%,0%);fill-opacity:0.8;stroke:none;"/>
  </g>
</mask>
<clipPath id="clip2">
  <rect x="0" y="0" width="16" height="16"/>
</clipPath>
<g id="surface8" clip-path="url(#clip2)">
<path style=" stroke:none;fill-rule:nonzero;fill:rgb(59.215686%,81.176471%,90.980392%);fill-opacity:1;" d="M 12.589844 9.570312 C 12.589844 10.6875 11.683594 11.59375 10.566406 11.59375 C 9.449219 11.59375 8.542969 10.6875 8.542969 9.570312 C 8.542969 8.453125 9.449219 7.546875 10.566406 7.546875 C 11.683594 7.546875 12.589844 8.453125 12.589844 9.570312 Z M 12.589844 9.570312 "/>
</g>
</defs>
<g id="surface1">
<path style=" stroke:none;fill-rule:nonzero;fill:rgb(30.980392%,26.27451%,21.960784%);fill-opacity:1;" d="M 8.730469 12.203125 C 8.632812 12.035156 8.472656 11.914062 8.285156 11.867188 C 8.113281 11.828125 7.929688 11.820312 7.753906 11.847656 C 7.851562 12.375 8.324219 12.730469 8.808594 12.640625 C 9.296875 12.554688 9.609375 12.042969 9.519531 11.515625 C 9.34375 11.554688 9.175781 11.625 9.027344 11.726562 C 8.871094 11.839844 8.761719 12.011719 8.730469 12.203125 Z M 8.730469 12.203125 "/>
<path style=" stroke:none;fill-rule:nonzero;fill:rgb(29.803922%,3.137255%,3.137255%);fill-opacity:1;" d="M 8.636719 11.679688 L 8.652344 11.769531 Z M 8.636719 11.679688 "/>
<path style=" stroke:none;fill-rule:nonzero;fill:rgb(39.607843%,44.313725%,48.627451%);fill-opacity:1;" d="M 1.773438 3.863281 L 0.929688 3.953125 C 0.738281 4 0.613281 4.191406 0.65625 4.386719 L 2.246094 13.195312 C 2.261719 13.289062 2.308594 13.375 2.386719 13.429688 C 2.464844 13.488281 2.558594 13.511719 2.652344 13.5 L 7.542969 12.785156 C 7.648438 12.769531 7.757812 12.804688 7.832031 12.882812 C 8.125 13.140625 8.527344 13.246094 8.910156 13.160156 C 9.300781 13.097656 9.636719 12.855469 9.820312 12.507812 C 9.863281 12.410156 9.953125 12.335938 10.0625 12.3125 L 14.871094 11.199219 C 15.058594 11.164062 15.179688 10.96875 15.136719 10.710938 L 13.542969 1.902344 C 13.496094 1.726562 13.324219 1.617188 13.144531 1.652344 L 12.363281 1.867188 L 12.585938 2.21875 L 12.636719 2.378906 L 14.109375 10.296875 "/>
<path style=" stroke:none;fill-rule:nonzero;fill:rgb(27.843137%,31.372549%,33.72549%);fill-opacity:1;" d="M 9.546875 11.453125 L 9.515625 11.460938 C 9.609375 11.988281 9.292969 12.492188 8.804688 12.585938 C 8.316406 12.675781 7.84375 12.320312 7.75 11.792969 C 7.738281 11.792969 7.726562 11.792969 7.71875 11.796875 "/>
<path style=" stroke:none;fill-rule:nonzero;fill:rgb(78.823529%,76.470588%,75.686275%);fill-opacity:1;" d="M 3.089844 12.550781 L 3.578125 11.585938 L 2.011719 2.914062 L 1.75 3.953125 L 1.664062 4.425781 L 1.652344 4.578125 Z M 3.089844 12.550781 "/>
<path style=" stroke:none;fill-rule:nonzero;fill:rgb(62.745098%,60%,57.647059%);fill-opacity:1;" d="M 8.621094 11.601562 L 8.589844 11.433594 C 8.601562 11.488281 8.628906 11.628906 8.636719 11.679688 L 8.621094 11.597656 L 9.773438 11.441406 L 9.550781 11.511719 C 11.042969 11.027344 12.578125 10.6875 14.136719 10.5 C 13.828125 10.304688 13.589844 10.019531 13.335938 9.75 L 13.335938 9.757812 C 6.945312 11.121094 9.726562 13.984375 7.320312 2.773438 C 7.078125 2.953125 7.078125 2.988281 6.769531 2.878906 C 8.410156 14.207031 10.023438 10.546875 3.578125 11.589844 L 3.578125 11.585938 C 3.546875 11.652344 3.078125 12.546875 3.078125 12.582031 L 3.09375 12.550781 L 3.078125 12.582031 C 3.703125 12.378906 4.335938 12.222656 4.980469 12.109375 C 5.886719 11.957031 6.804688 11.871094 7.722656 11.855469 "/>
<path style=" stroke:none;fill-rule:nonzero;fill:rgb(78.823529%,76.470588%,75.686275%);fill-opacity:1;" d="M 12.695312 2.496094 L 12.628906 2.28125 L 12.386719 1.964844 L 11.773438 1.070312 L 11.773438 1.074219 L 13.339844 9.746094 L 13.800781 10.246094 L 14.136719 10.496094 "/>
<path style=" stroke:none;fill-rule:nonzero;fill:rgb(62.745098%,60%,57.647059%);fill-opacity:1;" d="M 9.679688 11.453125 L 8.621094 11.601562 L 8.636719 11.679688 L 8.652344 11.765625 L 8.640625 11.679688 L 8.625 11.601562 L 8.59375 11.433594 L 8.625 11.601562 L 7.710938 11.839844 L 7.71875 11.855469 L 7.75 11.851562 C 7.929688 11.824219 8.109375 11.828125 8.285156 11.871094 C 8.472656 11.917969 8.632812 12.035156 8.726562 12.203125 C 8.761719 12.011719 8.867188 11.839844 9.027344 11.730469 C 9.175781 11.628906 9.34375 11.558594 9.519531 11.519531 L 9.550781 11.511719 Z M 9.679688 11.453125 "/>
<path style=" stroke:none;fill-rule:nonzero;fill:rgb(62.745098%,60%,57.647059%);fill-opacity:1;" d="M 13.339844 9.746094 L 11.773438 1.074219 C 10.21875 1.410156 8.5 1.839844 7.210938 2.855469 L 7.226562 2.855469 L 8.671875 10.871094 C 8.867188 11.820312 9.601562 10.949219 10.042969 10.8125 C 11.023438 10.292969 12.289062 10.070312 13.339844 9.753906 Z M 13.339844 9.746094 "/>
<path style=" stroke:none;fill-rule:nonzero;fill:rgb(94.901961%,93.72549%,92.941176%);fill-opacity:1;" d="M 13.339844 9.753906 L 11.792969 1.175781 C 10.238281 1.511719 8.539062 1.925781 7.246094 2.929688 L 7.246094 2.941406 L 8.679688 10.871094 C 8.871094 11.8125 9.605469 10.945312 10.046875 10.8125 C 11.027344 10.296875 12.292969 10.074219 13.347656 9.757812 Z M 13.339844 9.753906 "/>
<path style=" stroke:none;fill-rule:nonzero;fill:rgb(60%,62.352941%,63.921569%);fill-opacity:1;" d="M 11.179688 3.5 C 10.324219 3.652344 9.484375 3.914062 8.691406 4.273438 C 8.566406 4.332031 8.328125 4.53125 8.257812 4.320312 L 8.222656 4.121094 C 8.210938 3.949219 8.535156 3.820312 8.667969 3.773438 C 9.847656 3.347656 10.257812 3.242188 11.09375 3.0625 C 11.15625 3.050781 11.222656 3.089844 11.238281 3.15625 C 11.273438 3.269531 11.34375 3.464844 11.179688 3.5 Z M 11.179688 3.5 "/>
<path style=" stroke:none;fill-rule:nonzero;fill:rgb(60%,62.352941%,63.921569%);fill-opacity:1;" d="M 11.414062 4.683594 C 10.65625 4.859375 9.839844 5.046875 9.128906 5.363281 C 8.964844 5.433594 8.804688 5.511719 8.644531 5.589844 C 8.613281 5.609375 8.574219 5.609375 8.539062 5.59375 C 8.503906 5.578125 8.480469 5.546875 8.472656 5.507812 L 8.433594 5.3125 C 8.425781 5.257812 8.453125 5.207031 8.5 5.1875 C 8.648438 5.105469 8.800781 5.035156 8.957031 4.96875 C 9.695312 4.628906 10.515625 4.425781 11.308594 4.257812 C 11.378906 4.246094 11.445312 4.296875 11.457031 4.367188 C 11.476562 4.472656 11.546875 4.640625 11.414062 4.683594 Z M 11.414062 4.683594 "/>
<path style=" stroke:none;fill-rule:nonzero;fill:rgb(60%,62.352941%,63.921569%);fill-opacity:1;" d="M 11.65625 5.863281 C 10.710938 6.085938 9.710938 6.324219 8.859375 6.777344 C 8.828125 6.792969 8.789062 6.796875 8.753906 6.78125 C 8.71875 6.765625 8.695312 6.734375 8.6875 6.695312 L 8.648438 6.5 C 8.640625 6.449219 8.667969 6.398438 8.714844 6.375 C 9.585938 5.921875 10.558594 5.648438 11.519531 5.445312 C 11.589844 5.4375 11.65625 5.484375 11.667969 5.554688 C 11.691406 5.648438 11.753906 5.808594 11.65625 5.863281 Z M 11.65625 5.863281 "/>
<path style=" stroke:none;fill-rule:nonzero;fill:rgb(60%,62.352941%,63.921569%);fill-opacity:1;" d="M 11.878906 7.039062 C 11.332031 7.210938 10.703125 7.296875 10.164062 7.507812 C 9.792969 7.636719 9.425781 7.789062 9.074219 7.964844 C 9.039062 7.980469 9.003906 7.980469 8.96875 7.964844 C 8.933594 7.949219 8.910156 7.921875 8.898438 7.886719 C 8.894531 7.792969 8.808594 7.613281 8.929688 7.566406 C 9.609375 7.21875 10.328125 6.960938 11.074219 6.789062 L 11.394531 6.714844 L 11.71875 6.640625 C 11.753906 6.628906 11.792969 6.636719 11.824219 6.65625 C 11.855469 6.675781 11.878906 6.710938 11.886719 6.746094 C 11.902344 6.832031 11.964844 6.984375 11.878906 7.039062 Z M 11.878906 7.039062 "/>
<path style=" stroke:none;fill-rule:nonzero;fill:rgb(62.745098%,60%,57.647059%);fill-opacity:1;" d="M 6.890625 2.914062 C 5.332031 2.4375 3.585938 2.664062 2.011719 2.914062 L 3.578125 11.589844 L 3.578125 11.59375 C 4.671875 11.503906 5.933594 11.253906 7.03125 11.382812 C 7.488281 11.34375 8.480469 11.890625 8.328125 10.933594 "/>
<path style=" stroke:none;fill-rule:nonzero;fill:rgb(95.686275%,94.509804%,93.72549%);fill-opacity:1;" d="M 3.578125 11.601562 C 4.96875 11.460938 6.46875 11.191406 7.859375 11.496094 C 8.144531 11.550781 8.433594 11.429688 8.328125 10.9375 L 6.898438 3.007812 L 6.890625 3 C 5.335938 2.53125 3.601562 2.761719 2.03125 3.015625 Z M 3.578125 11.601562 "/>
<path style=" stroke:none;fill-rule:nonzero;fill:rgb(60%,62.352941%,63.921569%);fill-opacity:1;" d="M 3.304688 4.984375 C 4.160156 4.816406 5.035156 4.753906 5.902344 4.800781 C 6.039062 4.804688 6.332031 4.90625 6.324219 4.683594 L 6.289062 4.484375 C 6.238281 4.324219 5.890625 4.316406 5.75 4.324219 C 4.5 4.359375 4.078125 4.410156 3.238281 4.546875 C 3.171875 4.558594 3.125 4.621094 3.132812 4.6875 C 3.140625 4.800781 3.144531 5.011719 3.304688 4.984375 Z M 3.304688 4.984375 "/>
<path style=" stroke:none;fill-rule:nonzero;fill:rgb(60%,62.352941%,63.921569%);fill-opacity:1;" d="M 3.503906 6.175781 C 4.273438 6.0625 5.097656 5.9375 5.875 5.976562 C 6.050781 5.984375 6.230469 5.996094 6.40625 6.011719 C 6.441406 6.015625 6.480469 6.003906 6.507812 5.976562 C 6.535156 5.949219 6.546875 5.914062 6.539062 5.875 L 6.503906 5.679688 C 6.496094 5.628906 6.453125 5.589844 6.398438 5.582031 C 6.234375 5.566406 6.066406 5.554688 5.898438 5.546875 C 5.089844 5.5 4.253906 5.609375 3.453125 5.738281 C 3.382812 5.757812 3.335938 5.828125 3.351562 5.898438 C 3.367188 6 3.359375 6.183594 3.503906 6.175781 Z M 3.503906 6.175781 "/>
<path style=" stroke:none;fill-rule:nonzero;fill:rgb(60%,62.352941%,63.921569%);fill-opacity:1;" d="M 3.691406 7.359375 C 4.648438 7.222656 5.664062 7.085938 6.621094 7.195312 C 6.65625 7.199219 6.695312 7.1875 6.71875 7.160156 C 6.746094 7.132812 6.757812 7.097656 6.753906 7.058594 L 6.71875 6.863281 C 6.710938 6.8125 6.667969 6.777344 6.613281 6.773438 C 5.640625 6.660156 4.636719 6.765625 3.667969 6.933594 C 3.597656 6.949219 3.554688 7.019531 3.566406 7.09375 C 3.582031 7.175781 3.578125 7.347656 3.691406 7.359375 Z M 3.691406 7.359375 "/>
<path style=" stroke:none;fill-rule:nonzero;fill:rgb(60%,62.352941%,63.921569%);fill-opacity:1;" d="M 3.890625 8.542969 C 4.460938 8.503906 5.078125 8.355469 5.65625 8.355469 C 6.046875 8.339844 6.441406 8.351562 6.832031 8.386719 C 6.871094 8.390625 6.90625 8.375 6.933594 8.351562 C 6.957031 8.324219 6.972656 8.289062 6.96875 8.25 C 6.941406 8.164062 6.960938 7.964844 6.828125 7.960938 C 6.070312 7.882812 5.308594 7.902344 4.554688 8.015625 L 4.230469 8.0625 L 3.898438 8.113281 C 3.863281 8.117188 3.828125 8.136719 3.804688 8.164062 C 3.78125 8.195312 3.773438 8.234375 3.78125 8.273438 C 3.796875 8.359375 3.789062 8.527344 3.890625 8.542969 Z M 3.890625 8.542969 "/>
<path style=" stroke:none;fill-rule:nonzero;fill:rgb(60%,62.352941%,63.921569%);fill-opacity:1;" d="M 4.101562 9.804688 C 4.144531 9.851562 4.410156 9.78125 4.46875 9.78125 C 5.324219 9.625 6.199219 9.585938 7.066406 9.664062 C 7.101562 9.667969 7.140625 9.65625 7.167969 9.628906 C 7.191406 9.601562 7.207031 9.5625 7.199219 9.527344 C 7.171875 9.4375 7.191406 9.230469 7.058594 9.226562 C 6.300781 9.148438 5.539062 9.164062 4.785156 9.277344 C 4.625 9.300781 4.265625 9.355469 4.109375 9.375 C 4.042969 9.386719 3.996094 9.449219 4.007812 9.515625 C 4.019531 9.59375 4.019531 9.777344 4.101562 9.804688 Z M 4.101562 9.804688 "/>
<use xlink:href="#surface5" mask="url(#mask0)"/>
<path style=" stroke:none;fill-rule:nonzero;fill:rgb(38.431373%,47.058824%,53.72549%);fill-opacity:1;" d="M 12.144531 12.453125 C 12.066406 12.355469 11.929688 12.324219 11.8125 12.375 C 11.417969 12.550781 10.996094 12.640625 10.566406 12.640625 C 10.484375 12.640625 10.398438 12.640625 10.3125 12.628906 C 8.9375 12.515625 7.808594 11.492188 7.554688 10.136719 C 7.300781 8.777344 7.988281 7.417969 9.230469 6.816406 C 10.46875 6.210938 11.960938 6.511719 12.875 7.546875 C 13.785156 8.585938 13.890625 10.105469 13.132812 11.257812 C 13.0625 11.363281 13.070312 11.503906 13.152344 11.601562 L 13.820312 12.394531 L 12.816406 13.246094 Z M 10.5625 7.667969 C 9.527344 7.671875 8.683594 8.5 8.664062 9.535156 C 8.644531 10.570312 9.457031 11.433594 10.492188 11.472656 C 11.527344 11.515625 12.40625 10.722656 12.46875 9.6875 C 12.53125 8.652344 11.757812 7.757812 10.722656 7.675781 C 10.667969 7.667969 10.617188 7.667969 10.5625 7.667969 Z M 10.5625 7.667969 "/>
<path style=" stroke:none;fill-rule:nonzero;fill:rgb(100%,100%,100%);fill-opacity:1;" d="M 10.558594 6.621094 C 11.644531 6.621094 12.644531 7.214844 13.160156 8.171875 C 13.675781 9.125 13.625 10.285156 13.03125 11.195312 C 12.929688 11.34375 12.941406 11.542969 13.058594 11.679688 L 13.648438 12.378906 L 12.828125 13.078125 L 12.238281 12.375 C 12.121094 12.238281 11.929688 12.195312 11.765625 12.269531 C 11.386719 12.433594 10.980469 12.519531 10.570312 12.519531 C 10.488281 12.519531 10.40625 12.519531 10.324219 12.511719 C 8.746094 12.382812 7.550781 11.03125 7.613281 9.449219 C 7.679688 7.867188 8.980469 6.617188 10.5625 6.621094 M 10.566406 11.59375 C 11.65625 11.59375 12.546875 10.738281 12.59375 9.652344 C 12.636719 8.566406 11.816406 7.640625 10.734375 7.554688 C 10.675781 7.550781 10.621094 7.546875 10.566406 7.546875 C 9.449219 7.546875 8.542969 8.453125 8.542969 9.570312 C 8.542969 10.6875 9.449219 11.59375 10.566406 11.59375 M 10.558594 6.378906 C 8.851562 6.382812 7.449219 7.734375 7.378906 9.441406 C 7.308594 11.148438 8.597656 12.605469 10.300781 12.75 C 10.386719 12.757812 10.476562 12.761719 10.5625 12.761719 C 11.007812 12.761719 11.449219 12.667969 11.855469 12.488281 C 11.925781 12.457031 12.003906 12.476562 12.050781 12.53125 L 12.644531 13.230469 L 12.800781 13.414062 L 12.984375 13.261719 L 13.804688 12.5625 L 13.988281 12.410156 L 13.839844 12.226562 L 13.246094 11.527344 C 13.199219 11.46875 13.195312 11.386719 13.238281 11.324219 C 13.882812 10.34375 13.9375 9.085938 13.378906 8.050781 C 12.816406 7.019531 11.734375 6.375 10.558594 6.378906 Z M 10.5625 11.351562 C 9.578125 11.351562 8.78125 10.554688 8.78125 9.570312 C 8.78125 8.585938 9.578125 7.789062 10.5625 7.789062 C 10.613281 7.789062 10.664062 7.789062 10.710938 7.792969 C 11.667969 7.871094 12.390625 8.6875 12.351562 9.644531 C 12.3125 10.601562 11.523438 11.355469 10.566406 11.351562 Z M 10.5625 11.351562 "/>
<path style=" stroke:none;fill-rule:nonzero;fill:rgb(40.784314%,31.372549%,1.568627%);fill-opacity:1;" d="M 14.945312 14.765625 C 14.8125 14.878906 14.640625 14.933594 14.46875 14.917969 C 14.296875 14.902344 14.136719 14.820312 14.023438 14.6875 L 12.640625 13.058594 C 12.535156 12.933594 12.546875 12.746094 12.667969 12.632812 L 13.179688 12.171875 C 13.242188 12.113281 13.324219 12.085938 13.410156 12.089844 C 13.492188 12.097656 13.570312 12.136719 13.625 12.199219 L 15.019531 13.84375 C 15.253906 14.121094 15.21875 14.53125 14.945312 14.765625 Z M 14.945312 14.765625 "/>
<use xlink:href="#surface8" mask="url(#mask1)"/>
</g>
</svg>
