<?xml version="1.0" encoding="UTF-8"?>
<svg xmlns="http://www.w3.org/2000/svg" xmlns:xlink="http://www.w3.org/1999/xlink" width="24px" height="24px" viewBox="0 0 24 24" version="1.1">
<defs>
<filter id="alpha" filterUnits="objectBoundingBox" x="0%" y="0%" width="100%" height="100%">
  <feColorMatrix type="matrix" in="SourceGraphic" values="0 0 0 0 1 0 0 0 0 1 0 0 0 0 1 0 0 0 1 0"/>
</filter>
<mask id="mask0">
  <g filter="url(#alpha)">
<rect x="0" y="0" width="24" height="24" style="fill:rgb(0%,0%,0%);fill-opacity:0.901961;stroke:none;"/>
  </g>
</mask>
<clipPath id="clip1">
  <rect x="0" y="0" width="24" height="24"/>
</clipPath>
<g id="surface5" clip-path="url(#clip1)">
<path style="fill-rule:nonzero;fill:rgb(88.627451%,92.156863%,92.941176%);fill-opacity:1;stroke-width:1;stroke-linecap:butt;stroke-linejoin:miter;stroke:rgb(85.490196%,91.372549%,92.941176%);stroke-opacity:1;stroke-miterlimit:10;" d="M 144.140625 112.141927 C 143.294271 112.076823 142.513021 111.621094 142.057292 110.872396 C 141.666667 110.123698 141.145833 109.407552 140.559896 108.789063 C 136.295573 104.459635 129.459635 103.873698 124.544271 107.486979 C 123.860677 108.007813 123.242188 108.59375 122.688802 109.277344 C 121.809896 110.286458 120.3125 110.514323 119.205729 109.765625 C 118.652344 109.440104 118.294271 108.919271 118.164063 108.300781 C 118.066406 107.682292 118.196615 107.063802 118.58724 106.575521 C 119.36849 105.598958 120.279948 104.752604 121.25651 104.003906 C 128.352865 98.795573 138.183594 99.609375 144.335938 105.891927 C 145.182292 106.803385 145.93099 107.8125 146.549479 108.886719 C 146.842448 109.440104 146.875 110.091146 146.647135 110.644531 C 146.451823 111.230469 145.996094 111.686198 145.442708 111.914063 C 145.019531 112.076823 144.596354 112.174479 144.140625 112.141927 Z M 144.140625 112.141927 " transform="matrix(0.12,0,0,0.12,0,0)"/>
</g>
<mask id="mask1">
  <g filter="url(#alpha)">
<rect x="0" y="0" width="24" height="24" style="fill:rgb(0%,0%,0%);fill-opacity:0.8;stroke:none;"/>
  </g>
</mask>
<clipPath id="clip2">
  <rect x="0" y="0" width="24" height="24"/>
</clipPath>
<g id="surface8" clip-path="url(#clip2)">
<path style=" stroke:none;fill-rule:nonzero;fill:rgb(59.215686%,81.176471%,90.980392%);fill-opacity:1;" d="M 18.882812 14.359375 C 18.882812 16.035156 17.527344 17.394531 15.847656 17.394531 C 14.171875 17.394531 12.816406 16.035156 12.816406 14.359375 C 12.816406 12.683594 14.171875 11.324219 15.847656 11.324219 C 17.527344 11.324219 18.882812 12.683594 18.882812 14.359375 Z M 18.882812 14.359375 "/>
</g>
</defs>
<g id="surface1">
<path style=" stroke:none;fill-rule:nonzero;fill:rgb(30.980392%,26.27451%,21.960784%);fill-opacity:1;" d="M 13.09375 18.300781 C 12.949219 18.050781 12.710938 17.871094 12.429688 17.800781 C 12.167969 17.738281 11.894531 17.730469 11.628906 17.773438 C 11.777344 18.566406 12.484375 19.09375 13.214844 18.960938 C 13.945312 18.828125 14.414062 18.066406 14.277344 17.273438 C 14.015625 17.332031 13.765625 17.4375 13.542969 17.589844 C 13.304688 17.757812 13.144531 18.015625 13.09375 18.300781 Z M 13.09375 18.300781 "/>
<path style=" stroke:none;fill-rule:nonzero;fill:rgb(29.803922%,3.137255%,3.137255%);fill-opacity:1;" d="M 12.957031 17.519531 L 12.953125 17.519531 L 12.976562 17.652344 Z M 12.957031 17.519531 "/>
<path style=" stroke:none;fill-rule:nonzero;fill:rgb(39.607843%,44.313725%,48.627451%);fill-opacity:1;" d="M 2.660156 5.796875 L 1.398438 5.929688 C 1.105469 6 0.921875 6.289062 0.988281 6.582031 L 3.371094 19.789062 C 3.390625 19.933594 3.464844 20.0625 3.582031 20.148438 C 3.695312 20.234375 3.839844 20.269531 3.980469 20.25 L 11.3125 19.179688 C 11.472656 19.152344 11.636719 19.207031 11.746094 19.324219 C 12.191406 19.714844 12.789062 19.867188 13.367188 19.742188 C 13.949219 19.648438 14.453125 19.285156 14.730469 18.761719 C 14.796875 18.613281 14.929688 18.503906 15.089844 18.46875 L 22.308594 16.800781 C 22.589844 16.746094 22.773438 16.457031 22.703125 16.0625 L 20.316406 2.851562 C 20.246094 2.589844 19.984375 2.425781 19.71875 2.476562 L 18.542969 2.800781 L 18.878906 3.328125 L 18.953125 3.566406 L 21.160156 15.445312 "/>
<path style=" stroke:none;fill-rule:nonzero;fill:rgb(27.843137%,31.372549%,33.72549%);fill-opacity:1;" d="M 14.320312 17.175781 L 14.273438 17.1875 C 14.414062 17.980469 13.941406 18.738281 13.207031 18.875 C 12.476562 19.015625 11.769531 18.480469 11.625 17.6875 C 11.609375 17.6875 11.59375 17.6875 11.578125 17.695312 "/>
<path style=" stroke:none;fill-rule:nonzero;fill:rgb(78.823529%,76.470588%,75.686275%);fill-opacity:1;" d="M 4.636719 18.824219 L 5.367188 17.378906 L 3.019531 4.371094 L 2.625 5.925781 L 2.496094 6.636719 L 2.476562 6.863281 Z M 4.636719 18.824219 "/>
<path style=" stroke:none;fill-rule:nonzero;fill:rgb(62.745098%,60%,57.647059%);fill-opacity:1;" d="M 12.933594 17.398438 L 12.886719 17.148438 C 12.902344 17.230469 12.941406 17.441406 12.953125 17.519531 L 12.933594 17.398438 L 14.664062 17.160156 L 14.328125 17.269531 C 16.566406 16.539062 18.871094 16.03125 21.207031 15.75 C 20.746094 15.453125 20.382812 15.027344 20.007812 14.625 L 20.007812 14.632812 C 10.417969 16.679688 14.59375 20.976562 10.976562 4.160156 C 10.617188 4.429688 10.617188 4.480469 10.152344 4.316406 C 12.613281 21.3125 15.039062 15.824219 5.367188 17.386719 L 5.367188 17.378906 C 5.320312 17.476562 4.617188 18.820312 4.617188 18.871094 L 4.636719 18.824219 L 4.617188 18.871094 C 5.554688 18.570312 6.507812 18.332031 7.472656 18.164062 C 8.832031 17.933594 10.207031 17.804688 11.582031 17.78125 "/>
<path style=" stroke:none;fill-rule:nonzero;fill:rgb(78.823529%,76.470588%,75.686275%);fill-opacity:1;" d="M 19.039062 3.742188 L 18.941406 3.421875 L 18.578125 2.945312 L 17.664062 1.609375 L 17.660156 1.609375 L 20.011719 14.617188 L 20.703125 15.371094 L 21.207031 15.742188 "/>
<path style=" stroke:none;fill-rule:nonzero;fill:rgb(62.745098%,60%,57.647059%);fill-opacity:1;" d="M 14.519531 17.179688 L 12.933594 17.398438 L 12.957031 17.519531 L 12.976562 17.652344 L 12.960938 17.519531 L 12.9375 17.398438 L 12.894531 17.148438 L 12.9375 17.398438 L 11.570312 17.761719 L 11.578125 17.785156 L 11.625 17.777344 C 11.890625 17.734375 12.164062 17.742188 12.425781 17.804688 C 12.707031 17.875 12.945312 18.054688 13.09375 18.304688 C 13.140625 18.019531 13.300781 17.761719 13.539062 17.59375 C 13.761719 17.441406 14.015625 17.335938 14.28125 17.28125 L 14.328125 17.269531 Z M 14.519531 17.179688 "/>
<path style=" stroke:none;fill-rule:nonzero;fill:rgb(62.745098%,60%,57.647059%);fill-opacity:1;" d="M 20.011719 14.617188 L 17.660156 1.613281 C 15.328125 2.117188 12.753906 2.761719 10.816406 4.28125 L 10.839844 4.28125 L 13.011719 16.304688 C 13.300781 17.730469 14.402344 16.425781 15.066406 16.222656 C 16.535156 15.441406 18.433594 15.105469 20.011719 14.628906 Z M 20.011719 14.617188 "/>
<path style=" stroke:none;fill-rule:nonzero;fill:rgb(94.901961%,93.72549%,92.941176%);fill-opacity:1;" d="M 20.011719 14.628906 L 17.6875 1.765625 C 15.359375 2.269531 12.808594 2.886719 10.871094 4.394531 L 10.871094 4.414062 L 13.019531 16.308594 C 13.304688 17.71875 14.410156 16.417969 15.070312 16.222656 C 16.539062 15.445312 18.441406 15.109375 20.019531 14.636719 Z M 20.011719 14.628906 "/>
<path style=" stroke:none;fill-rule:nonzero;fill:rgb(60%,62.352941%,63.921569%);fill-opacity:1;" d="M 16.773438 5.25 C 15.484375 5.480469 14.226562 5.871094 13.035156 6.414062 C 12.851562 6.496094 12.492188 6.800781 12.386719 6.480469 L 12.332031 6.183594 C 12.316406 5.925781 12.804688 5.726562 13 5.65625 C 14.769531 5.023438 15.386719 4.863281 16.636719 4.597656 C 16.734375 4.574219 16.832031 4.636719 16.859375 4.734375 C 16.910156 4.902344 17.011719 5.199219 16.773438 5.25 Z M 16.773438 5.25 "/>
<path style=" stroke:none;fill-rule:nonzero;fill:rgb(60%,62.352941%,63.921569%);fill-opacity:1;" d="M 17.121094 7.027344 C 15.980469 7.289062 14.761719 7.570312 13.695312 8.046875 C 13.449219 8.152344 13.207031 8.265625 12.96875 8.382812 C 12.917969 8.410156 12.859375 8.414062 12.808594 8.390625 C 12.753906 8.367188 12.71875 8.320312 12.707031 8.265625 L 12.652344 7.96875 C 12.640625 7.890625 12.679688 7.8125 12.75 7.777344 C 12.972656 7.660156 13.203125 7.554688 13.4375 7.453125 C 14.542969 6.945312 15.773438 6.640625 16.960938 6.386719 C 17.066406 6.371094 17.167969 6.441406 17.183594 6.546875 C 17.21875 6.710938 17.320312 6.960938 17.121094 7.027344 Z M 17.121094 7.027344 "/>
<path style=" stroke:none;fill-rule:nonzero;fill:rgb(60%,62.352941%,63.921569%);fill-opacity:1;" d="M 17.480469 8.792969 C 16.070312 9.125 14.566406 9.484375 13.289062 10.164062 C 13.238281 10.191406 13.179688 10.195312 13.128906 10.171875 C 13.078125 10.148438 13.039062 10.101562 13.027344 10.046875 L 12.972656 9.75 C 12.960938 9.671875 13 9.597656 13.070312 9.5625 C 14.378906 8.878906 15.839844 8.472656 17.28125 8.171875 C 17.386719 8.15625 17.484375 8.230469 17.503906 8.335938 C 17.535156 8.472656 17.628906 8.710938 17.480469 8.792969 Z M 17.480469 8.792969 "/>
<path style=" stroke:none;fill-rule:nonzero;fill:rgb(60%,62.352941%,63.921569%);fill-opacity:1;" d="M 17.816406 10.558594 C 16.996094 10.816406 16.050781 10.945312 15.246094 11.257812 C 14.6875 11.453125 14.140625 11.683594 13.613281 11.949219 C 13.5625 11.972656 13.503906 11.972656 13.453125 11.949219 C 13.402344 11.925781 13.363281 11.882812 13.351562 11.828125 C 13.339844 11.691406 13.214844 11.421875 13.394531 11.347656 C 14.414062 10.828125 15.492188 10.4375 16.609375 10.183594 L 17.089844 10.074219 L 17.578125 9.960938 C 17.632812 9.945312 17.691406 9.953125 17.738281 9.984375 C 17.785156 10.015625 17.816406 10.0625 17.828125 10.121094 C 17.855469 10.246094 17.949219 10.476562 17.816406 10.558594 Z M 17.816406 10.558594 "/>
<path style=" stroke:none;fill-rule:nonzero;fill:rgb(62.745098%,60%,57.647059%);fill-opacity:1;" d="M 10.339844 4.371094 C 7.996094 3.660156 5.375 3.992188 3.019531 4.371094 L 5.367188 17.382812 L 5.367188 17.390625 C 7.007812 17.257812 8.902344 16.878906 10.542969 17.074219 C 11.234375 17.015625 12.71875 17.839844 12.492188 16.402344 "/>
<path style=" stroke:none;fill-rule:nonzero;fill:rgb(95.686275%,94.509804%,93.72549%);fill-opacity:1;" d="M 5.371094 17.398438 C 7.457031 17.191406 9.703125 16.789062 11.789062 17.242188 C 12.21875 17.324219 12.652344 17.140625 12.496094 16.40625 L 10.347656 4.511719 L 10.335938 4.496094 C 8 3.796875 5.398438 4.144531 3.046875 4.523438 Z M 5.371094 17.398438 "/>
<path style=" stroke:none;fill-rule:nonzero;fill:rgb(60%,62.352941%,63.921569%);fill-opacity:1;" d="M 4.960938 7.476562 C 6.242188 7.222656 7.550781 7.128906 8.855469 7.199219 C 9.058594 7.210938 9.496094 7.363281 9.488281 7.027344 L 9.433594 6.726562 C 9.359375 6.488281 8.835938 6.476562 8.625 6.488281 C 6.75 6.539062 6.117188 6.613281 4.855469 6.820312 C 4.757812 6.839844 4.6875 6.929688 4.699219 7.03125 C 4.710938 7.199219 4.714844 7.515625 4.960938 7.476562 Z M 4.960938 7.476562 "/>
<path style=" stroke:none;fill-rule:nonzero;fill:rgb(60%,62.352941%,63.921569%);fill-opacity:1;" d="M 5.253906 9.265625 C 6.410156 9.09375 7.644531 8.902344 8.808594 8.96875 C 9.078125 8.976562 9.34375 8.992188 9.605469 9.019531 C 9.664062 9.027344 9.71875 9.007812 9.761719 8.964844 C 9.800781 8.925781 9.820312 8.867188 9.808594 8.8125 L 9.757812 8.519531 C 9.742188 8.441406 9.679688 8.382812 9.601562 8.375 C 9.351562 8.347656 9.097656 8.332031 8.84375 8.320312 C 7.632812 8.25 6.378906 8.414062 5.179688 8.609375 C 5.070312 8.632812 5.003906 8.742188 5.027344 8.847656 C 5.054688 9 5.039062 9.277344 5.253906 9.265625 Z M 5.253906 9.265625 "/>
<path style=" stroke:none;fill-rule:nonzero;fill:rgb(60%,62.352941%,63.921569%);fill-opacity:1;" d="M 5.535156 11.039062 C 6.972656 10.835938 8.5 10.625 9.929688 10.792969 C 9.984375 10.800781 10.039062 10.78125 10.082031 10.742188 C 10.121094 10.699219 10.140625 10.644531 10.132812 10.589844 L 10.078125 10.296875 C 10.0625 10.222656 10 10.164062 9.921875 10.15625 C 8.460938 9.992188 6.953125 10.148438 5.503906 10.398438 C 5.394531 10.425781 5.332031 10.53125 5.351562 10.636719 C 5.371094 10.765625 5.367188 11.023438 5.535156 11.039062 Z M 5.535156 11.039062 "/>
<path style=" stroke:none;fill-rule:nonzero;fill:rgb(60%,62.352941%,63.921569%);fill-opacity:1;" d="M 5.835938 12.816406 C 6.691406 12.757812 7.621094 12.535156 8.484375 12.535156 C 9.074219 12.511719 9.664062 12.527344 10.25 12.582031 C 10.304688 12.585938 10.359375 12.566406 10.398438 12.523438 C 10.4375 12.484375 10.457031 12.429688 10.453125 12.375 C 10.414062 12.242188 10.4375 11.945312 10.242188 11.9375 C 9.105469 11.828125 7.960938 11.855469 6.832031 12.023438 L 6.34375 12.09375 L 5.851562 12.167969 C 5.792969 12.171875 5.742188 12.203125 5.707031 12.25 C 5.671875 12.292969 5.660156 12.351562 5.671875 12.40625 C 5.691406 12.542969 5.6875 12.789062 5.835938 12.816406 Z M 5.835938 12.816406 "/>
<path style=" stroke:none;fill-rule:nonzero;fill:rgb(60%,62.352941%,63.921569%);fill-opacity:1;" d="M 6.152344 14.710938 C 6.21875 14.777344 6.617188 14.671875 6.699219 14.671875 C 7.984375 14.4375 9.296875 14.378906 10.597656 14.496094 C 10.652344 14.503906 10.710938 14.484375 10.75 14.445312 C 10.789062 14.402344 10.808594 14.347656 10.800781 14.289062 C 10.757812 14.160156 10.789062 13.847656 10.589844 13.84375 C 9.453125 13.722656 8.304688 13.746094 7.175781 13.914062 C 6.9375 13.953125 6.398438 14.035156 6.164062 14.066406 C 6.066406 14.078125 5.996094 14.171875 6.007812 14.273438 C 6.027344 14.390625 6.03125 14.667969 6.152344 14.710938 Z M 6.152344 14.710938 "/>
<use xlink:href="#surface5" mask="url(#mask0)"/>
<path style=" stroke:none;fill-rule:nonzero;fill:rgb(38.431373%,47.058824%,53.72549%);fill-opacity:1;" d="M 18.21875 18.679688 C 18.097656 18.535156 17.890625 18.484375 17.71875 18.5625 C 17.128906 18.824219 16.492188 18.960938 15.851562 18.960938 C 15.726562 18.960938 15.59375 18.960938 15.46875 18.945312 C 13.40625 18.769531 11.710938 17.238281 11.332031 15.203125 C 10.953125 13.167969 11.980469 11.128906 13.84375 10.222656 C 15.707031 9.316406 17.945312 9.765625 19.3125 11.324219 C 20.679688 12.878906 20.835938 15.15625 19.699219 16.886719 C 19.589844 17.046875 19.601562 17.257812 19.726562 17.40625 L 20.730469 18.589844 L 19.226562 19.867188 Z M 15.847656 11.503906 C 14.292969 11.503906 13.027344 12.75 12.996094 14.304688 C 12.96875 15.859375 14.183594 17.148438 15.738281 17.210938 C 17.289062 17.273438 18.609375 16.082031 18.703125 14.53125 C 18.796875 12.980469 17.632812 11.640625 16.085938 11.511719 C 16.003906 11.503906 15.925781 11.503906 15.847656 11.503906 Z M 15.847656 11.503906 "/>
<path style=" stroke:none;fill-rule:nonzero;fill:rgb(100%,100%,100%);fill-opacity:1;" d="M 15.839844 9.929688 C 17.46875 9.929688 18.964844 10.824219 19.738281 12.253906 C 20.511719 13.6875 20.4375 15.429688 19.542969 16.789062 C 19.394531 17.015625 19.410156 17.316406 19.585938 17.523438 L 20.472656 18.570312 L 19.242188 19.613281 L 18.359375 18.566406 C 18.183594 18.359375 17.894531 18.292969 17.644531 18.402344 C 17.082031 18.652344 16.46875 18.78125 15.851562 18.78125 C 15.730469 18.78125 15.609375 18.777344 15.484375 18.765625 C 13.117188 18.574219 11.324219 16.550781 11.421875 14.175781 C 11.515625 11.800781 13.46875 9.929688 15.847656 9.929688 M 15.851562 17.390625 C 17.480469 17.390625 18.824219 16.109375 18.890625 14.480469 C 18.957031 12.851562 17.722656 11.460938 16.097656 11.332031 C 16.015625 11.324219 15.929688 11.320312 15.847656 11.320312 C 14.171875 11.320312 12.8125 12.679688 12.8125 14.355469 C 12.8125 16.03125 14.171875 17.390625 15.847656 17.390625 M 15.839844 9.570312 C 13.277344 9.574219 11.171875 11.597656 11.070312 14.160156 C 10.964844 16.722656 12.894531 18.910156 15.449219 19.125 C 15.582031 19.136719 15.714844 19.140625 15.847656 19.140625 C 16.515625 19.140625 17.175781 19.003906 17.785156 18.730469 C 17.886719 18.6875 18.003906 18.714844 18.078125 18.796875 L 18.96875 19.847656 L 19.199219 20.121094 L 19.476562 19.890625 L 20.707031 18.847656 L 20.980469 18.613281 L 20.761719 18.339844 L 19.871094 17.289062 C 19.800781 17.203125 19.792969 17.082031 19.855469 16.988281 C 20.824219 15.515625 20.90625 13.628906 20.066406 12.078125 C 19.226562 10.527344 17.601562 9.5625 15.839844 9.570312 Z M 15.847656 17.027344 C 14.371094 17.027344 13.171875 15.832031 13.171875 14.355469 C 13.171875 12.878906 14.371094 11.683594 15.847656 11.683594 C 15.921875 11.683594 15.996094 11.683594 16.070312 11.691406 C 17.5 11.804688 18.585938 13.03125 18.527344 14.464844 C 18.46875 15.898438 17.289062 17.03125 15.851562 17.027344 Z M 15.847656 17.027344 "/>
<path style=" stroke:none;fill-rule:nonzero;fill:rgb(40.784314%,31.372549%,1.568627%);fill-opacity:1;" d="M 22.417969 22.148438 C 22.21875 22.316406 21.960938 22.398438 21.703125 22.375 C 21.445312 22.355469 21.203125 22.230469 21.035156 22.03125 L 18.960938 19.585938 C 18.800781 19.398438 18.820312 19.117188 19.003906 18.949219 L 19.769531 18.257812 C 19.863281 18.171875 19.988281 18.128906 20.113281 18.136719 C 20.238281 18.144531 20.355469 18.203125 20.4375 18.300781 L 22.527344 20.765625 C 22.878906 21.179688 22.828125 21.796875 22.417969 22.148438 Z M 22.417969 22.148438 "/>
<use xlink:href="#surface8" mask="url(#mask1)"/>
</g>
</svg>
