<?xml version="1.0" encoding="UTF-8"?>
<svg xmlns="http://www.w3.org/2000/svg" xmlns:xlink="http://www.w3.org/1999/xlink" width="32px" height="32px" viewBox="0 0 32 32" version="1.1">
<defs>
<filter id="alpha" filterUnits="objectBoundingBox" x="0%" y="0%" width="100%" height="100%">
  <feColorMatrix type="matrix" in="SourceGraphic" values="0 0 0 0 1 0 0 0 0 1 0 0 0 0 1 0 0 0 1 0"/>
</filter>
<mask id="mask0">
  <g filter="url(#alpha)">
<rect x="0" y="0" width="32" height="32" style="fill:rgb(0%,0%,0%);fill-opacity:0.901961;stroke:none;"/>
  </g>
</mask>
<clipPath id="clip1">
  <rect x="0" y="0" width="32" height="32"/>
</clipPath>
<g id="surface5" clip-path="url(#clip1)">
<path style="fill-rule:nonzero;fill:rgb(88.627451%,92.156863%,92.941176%);fill-opacity:1;stroke-width:1;stroke-linecap:butt;stroke-linejoin:miter;stroke:rgb(85.490196%,91.372549%,92.941176%);stroke-opacity:1;stroke-miterlimit:10;" d="M 144.140625 112.158203 C 143.286133 112.084961 142.504883 111.621094 142.06543 110.864258 C 141.650391 110.107422 141.137695 109.423828 140.551758 108.789062 C 136.279297 104.443359 129.467773 103.881836 124.560547 107.470703 C 123.852539 108.007812 123.242188 108.618164 122.705078 109.277344 C 121.826172 110.302734 120.3125 110.498047 119.189453 109.765625 C 118.652344 109.448242 118.286133 108.911133 118.164062 108.300781 C 118.041992 107.69043 118.212891 107.055664 118.579102 106.591797 C 119.360352 105.615234 120.263672 104.736328 121.264648 103.979492 C 128.369141 98.803711 138.183594 99.609375 144.335938 105.908203 C 145.19043 106.811523 145.947266 107.8125 146.557617 108.911133 C 146.826172 109.448242 146.875 110.083008 146.655273 110.644531 C 146.435547 111.230469 145.996094 111.669922 145.43457 111.889648 C 145.019531 112.084961 144.580078 112.182617 144.140625 112.158203 Z M 144.140625 112.158203 " transform="matrix(0.16,0,0,0.16,0,0)"/>
</g>
<mask id="mask1">
  <g filter="url(#alpha)">
<rect x="0" y="0" width="32" height="32" style="fill:rgb(0%,0%,0%);fill-opacity:0.8;stroke:none;"/>
  </g>
</mask>
<clipPath id="clip2">
  <rect x="0" y="0" width="32" height="32"/>
</clipPath>
<g id="surface8" clip-path="url(#clip2)">
<path style=" stroke:none;fill-rule:nonzero;fill:rgb(59.215686%,81.176471%,90.980392%);fill-opacity:1;" d="M 25.179688 19.144531 C 25.179688 21.378906 23.367188 23.191406 21.132812 23.191406 C 18.898438 23.191406 17.085938 21.378906 17.085938 19.144531 C 17.085938 16.910156 18.898438 15.097656 21.132812 15.097656 C 23.367188 15.097656 25.179688 16.910156 25.179688 19.144531 Z M 25.179688 19.144531 "/>
</g>
</defs>
<g id="surface1">
<path style=" stroke:none;fill-rule:nonzero;fill:rgb(30.980392%,26.27451%,21.960784%);fill-opacity:1;" d="M 17.460938 24.402344 C 17.265625 24.070312 16.945312 23.828125 16.574219 23.734375 C 16.222656 23.652344 15.863281 23.640625 15.507812 23.699219 C 15.703125 24.753906 16.644531 25.457031 17.621094 25.28125 C 18.59375 25.105469 19.21875 24.089844 19.039062 23.03125 C 18.6875 23.109375 18.351562 23.253906 18.054688 23.453125 C 17.738281 23.679688 17.523438 24.019531 17.460938 24.402344 Z M 17.460938 24.402344 "/>
<path style=" stroke:none;fill-rule:nonzero;fill:rgb(29.803922%,3.137255%,3.137255%);fill-opacity:1;" d="M 17.273438 23.363281 L 17.304688 23.535156 Z M 17.273438 23.363281 "/>
<path style=" stroke:none;fill-rule:nonzero;fill:rgb(39.607843%,44.313725%,48.627451%);fill-opacity:1;" d="M 3.546875 7.726562 L 1.863281 7.90625 C 1.472656 8 1.230469 8.386719 1.316406 8.777344 L 4.496094 26.386719 C 4.519531 26.578125 4.621094 26.746094 4.773438 26.863281 C 4.925781 26.976562 5.117188 27.027344 5.308594 27 L 15.082031 25.574219 C 15.296875 25.539062 15.511719 25.609375 15.664062 25.769531 C 16.253906 26.285156 17.054688 26.492188 17.820312 26.324219 C 18.597656 26.199219 19.273438 25.714844 19.640625 25.019531 C 19.730469 24.816406 19.90625 24.671875 20.121094 24.625 L 29.742188 22.398438 C 30.121094 22.328125 30.363281 21.941406 30.269531 21.417969 L 27.089844 3.804688 C 26.996094 3.453125 26.644531 3.234375 26.289062 3.300781 L 24.722656 3.734375 L 25.171875 4.433594 L 25.269531 4.753906 L 28.214844 20.59375 "/>
<path style=" stroke:none;fill-rule:nonzero;fill:rgb(27.843137%,31.372549%,33.72549%);fill-opacity:1;" d="M 19.097656 22.902344 L 19.03125 22.917969 C 19.21875 23.976562 18.585938 24.984375 17.609375 25.167969 C 16.636719 25.351562 15.691406 24.640625 15.5 23.585938 C 15.476562 23.585938 15.457031 23.585938 15.433594 23.59375 "/>
<path style=" stroke:none;fill-rule:nonzero;fill:rgb(78.823529%,76.470588%,75.686275%);fill-opacity:1;" d="M 6.183594 25.101562 L 7.15625 23.167969 L 4.023438 5.828125 L 3.503906 7.902344 L 3.328125 8.851562 L 3.300781 9.152344 Z M 6.183594 25.101562 "/>
<path style=" stroke:none;fill-rule:nonzero;fill:rgb(62.745098%,60%,57.647059%);fill-opacity:1;" d="M 17.242188 23.199219 L 17.183594 22.867188 C 17.203125 22.972656 17.253906 23.257812 17.273438 23.359375 L 17.242188 23.199219 L 19.550781 22.878906 L 19.101562 23.027344 C 22.085938 22.054688 25.160156 21.375 28.273438 21 C 27.660156 20.605469 27.175781 20.039062 26.675781 19.496094 L 26.675781 19.511719 C 13.890625 22.238281 19.457031 27.972656 14.636719 5.546875 C 14.15625 5.910156 14.15625 5.972656 13.535156 5.753906 C 16.820312 28.414062 20.050781 21.097656 7.15625 23.179688 L 7.15625 23.171875 C 7.09375 23.300781 6.15625 25.089844 6.160156 25.164062 L 6.183594 25.101562 L 6.160156 25.164062 C 7.402344 24.761719 8.675781 24.445312 9.964844 24.21875 C 11.777344 23.914062 13.605469 23.742188 15.441406 23.707031 "/>
<path style=" stroke:none;fill-rule:nonzero;fill:rgb(78.823529%,76.470588%,75.686275%);fill-opacity:1;" d="M 25.386719 4.992188 L 25.257812 4.5625 L 24.769531 3.925781 L 23.550781 2.144531 L 23.546875 2.148438 L 26.679688 19.488281 L 27.605469 20.496094 L 28.273438 20.992188 "/>
<path style=" stroke:none;fill-rule:nonzero;fill:rgb(62.745098%,60%,57.647059%);fill-opacity:1;" d="M 19.359375 22.902344 L 17.246094 23.199219 L 17.273438 23.359375 L 17.304688 23.535156 L 17.28125 23.359375 L 17.25 23.199219 L 17.191406 22.867188 L 17.25 23.199219 L 15.425781 23.679688 L 15.4375 23.710938 L 15.503906 23.703125 C 15.855469 23.644531 16.21875 23.65625 16.566406 23.738281 C 16.941406 23.832031 17.261719 24.074219 17.457031 24.40625 C 17.519531 24.023438 17.734375 23.683594 18.050781 23.460938 C 18.351562 23.257812 18.6875 23.113281 19.039062 23.039062 L 19.105469 23.027344 Z M 19.359375 22.902344 "/>
<path style=" stroke:none;fill-rule:nonzero;fill:rgb(62.745098%,60%,57.647059%);fill-opacity:1;" d="M 26.679688 19.492188 L 23.546875 2.148438 C 20.4375 2.824219 17.003906 3.679688 14.421875 5.707031 L 14.453125 5.707031 L 17.347656 21.738281 C 17.734375 23.640625 19.203125 21.898438 20.089844 21.628906 C 22.042969 20.589844 24.574219 20.140625 26.683594 19.507812 Z M 26.679688 19.492188 "/>
<path style=" stroke:none;fill-rule:nonzero;fill:rgb(94.901961%,93.72549%,92.941176%);fill-opacity:1;" d="M 26.683594 19.503906 L 23.585938 2.351562 C 20.480469 3.027344 17.078125 3.851562 14.496094 5.859375 L 14.496094 5.886719 L 17.359375 21.742188 C 17.742188 23.621094 19.210938 21.894531 20.097656 21.628906 C 22.054688 20.59375 24.585938 20.144531 26.695312 19.515625 Z M 26.683594 19.503906 "/>
<path style=" stroke:none;fill-rule:nonzero;fill:rgb(60%,62.352941%,63.921569%);fill-opacity:1;" d="M 22.363281 7 C 20.644531 7.308594 18.972656 7.828125 17.382812 8.550781 C 17.132812 8.660156 16.65625 9.066406 16.511719 8.644531 L 16.441406 8.242188 C 16.421875 7.902344 17.074219 7.636719 17.332031 7.542969 C 19.695312 6.695312 20.511719 6.484375 22.183594 6.128906 C 22.316406 6.101562 22.445312 6.179688 22.476562 6.308594 C 22.546875 6.539062 22.683594 6.929688 22.363281 7 Z M 22.363281 7 "/>
<path style=" stroke:none;fill-rule:nonzero;fill:rgb(60%,62.352941%,63.921569%);fill-opacity:1;" d="M 22.828125 9.371094 C 21.308594 9.71875 19.683594 10.089844 18.257812 10.730469 C 17.929688 10.871094 17.609375 11.019531 17.292969 11.179688 C 17.226562 11.214844 17.144531 11.21875 17.078125 11.1875 C 17.007812 11.15625 16.957031 11.09375 16.941406 11.019531 L 16.871094 10.621094 C 16.855469 10.519531 16.90625 10.417969 17 10.371094 C 17.300781 10.210938 17.605469 10.074219 17.914062 9.9375 C 19.390625 9.257812 21.03125 8.855469 22.617188 8.511719 C 22.757812 8.492188 22.890625 8.589844 22.914062 8.730469 C 22.957031 8.949219 23.097656 9.28125 22.828125 9.371094 Z M 22.828125 9.371094 "/>
<path style=" stroke:none;fill-rule:nonzero;fill:rgb(60%,62.352941%,63.921569%);fill-opacity:1;" d="M 23.308594 11.722656 C 21.425781 12.167969 19.425781 12.648438 17.71875 13.554688 C 17.652344 13.589844 17.574219 13.59375 17.503906 13.5625 C 17.4375 13.527344 17.386719 13.46875 17.371094 13.394531 L 17.300781 13 C 17.285156 12.894531 17.335938 12.796875 17.429688 12.75 C 19.171875 11.839844 21.121094 11.296875 23.039062 10.894531 C 23.179688 10.878906 23.3125 10.972656 23.335938 11.113281 C 23.378906 11.296875 23.507812 11.613281 23.308594 11.722656 Z M 23.308594 11.722656 "/>
<path style=" stroke:none;fill-rule:nonzero;fill:rgb(60%,62.352941%,63.921569%);fill-opacity:1;" d="M 23.757812 14.078125 C 22.664062 14.421875 21.402344 14.59375 20.328125 15.011719 C 19.582031 15.269531 18.855469 15.578125 18.148438 15.929688 C 18.082031 15.964844 18.003906 15.964844 17.9375 15.933594 C 17.871094 15.902344 17.820312 15.84375 17.800781 15.769531 C 17.789062 15.589844 17.621094 15.230469 17.859375 15.132812 C 19.21875 14.441406 20.660156 13.917969 22.144531 13.578125 L 22.785156 13.433594 L 23.433594 13.28125 C 23.507812 13.261719 23.585938 13.269531 23.648438 13.3125 C 23.714844 13.351562 23.757812 13.417969 23.769531 13.492188 C 23.808594 13.664062 23.929688 13.96875 23.757812 14.078125 Z M 23.757812 14.078125 "/>
<path style=" stroke:none;fill-rule:nonzero;fill:rgb(62.745098%,60%,57.647059%);fill-opacity:1;" d="M 13.785156 5.832031 C 10.664062 4.878906 7.167969 5.324219 4.023438 5.832031 L 7.15625 23.175781 L 7.15625 23.1875 C 9.34375 23.007812 11.867188 22.503906 14.058594 22.765625 C 14.976562 22.691406 16.960938 23.785156 16.65625 21.867188 "/>
<path style=" stroke:none;fill-rule:nonzero;fill:rgb(95.686275%,94.509804%,93.72549%);fill-opacity:1;" d="M 7.160156 23.199219 C 9.941406 22.921875 12.9375 22.382812 15.71875 22.988281 C 16.292969 23.097656 16.867188 22.855469 16.660156 21.875 L 13.796875 6.015625 L 13.78125 5.996094 C 10.667969 5.0625 7.199219 5.527344 4.0625 6.03125 Z M 7.160156 23.199219 "/>
<path style=" stroke:none;fill-rule:nonzero;fill:rgb(60%,62.352941%,63.921569%);fill-opacity:1;" d="M 6.613281 9.972656 C 8.320312 9.628906 10.066406 9.503906 11.804688 9.601562 C 12.078125 9.613281 12.664062 9.816406 12.652344 9.371094 L 12.578125 8.96875 C 12.476562 8.648438 11.777344 8.632812 11.5 8.648438 C 9 8.71875 8.160156 8.820312 6.472656 9.097656 C 6.34375 9.117188 6.25 9.238281 6.265625 9.371094 C 6.28125 9.601562 6.285156 10.023438 6.613281 9.972656 Z M 6.613281 9.972656 "/>
<path style=" stroke:none;fill-rule:nonzero;fill:rgb(60%,62.352941%,63.921569%);fill-opacity:1;" d="M 7.007812 12.351562 C 8.546875 12.125 10.195312 11.871094 11.746094 11.957031 C 12.105469 11.96875 12.457031 11.992188 12.808594 12.023438 C 12.882812 12.035156 12.960938 12.007812 13.011719 11.953125 C 13.066406 11.902344 13.089844 11.824219 13.078125 11.75 L 13.007812 11.359375 C 12.992188 11.257812 12.90625 11.175781 12.800781 11.167969 C 12.46875 11.132812 12.132812 11.109375 11.792969 11.09375 C 10.179688 11 8.503906 11.21875 6.90625 11.476562 C 6.761719 11.511719 6.671875 11.65625 6.703125 11.796875 C 6.738281 12 6.71875 12.367188 7.007812 12.351562 Z M 7.007812 12.351562 "/>
<path style=" stroke:none;fill-rule:nonzero;fill:rgb(60%,62.352941%,63.921569%);fill-opacity:1;" d="M 7.378906 14.71875 C 9.300781 14.449219 11.332031 14.167969 13.238281 14.390625 C 13.3125 14.402344 13.386719 14.375 13.441406 14.320312 C 13.492188 14.269531 13.519531 14.191406 13.507812 14.117188 L 13.441406 13.730469 C 13.417969 13.628906 13.332031 13.550781 13.230469 13.542969 C 11.28125 13.324219 9.273438 13.53125 7.335938 13.863281 C 7.195312 13.902344 7.105469 14.039062 7.132812 14.183594 C 7.160156 14.355469 7.15625 14.695312 7.378906 14.71875 Z M 7.378906 14.71875 "/>
<path style=" stroke:none;fill-rule:nonzero;fill:rgb(60%,62.352941%,63.921569%);fill-opacity:1;" d="M 7.78125 17.089844 C 8.921875 17.007812 10.160156 16.710938 11.3125 16.710938 C 12.097656 16.679688 12.882812 16.703125 13.667969 16.773438 C 13.742188 16.78125 13.8125 16.753906 13.867188 16.699219 C 13.917969 16.648438 13.945312 16.574219 13.9375 16.5 C 13.886719 16.324219 13.917969 15.929688 13.65625 15.917969 C 12.144531 15.769531 10.617188 15.808594 9.109375 16.03125 L 8.460938 16.125 L 7.800781 16.222656 C 7.722656 16.230469 7.65625 16.269531 7.609375 16.332031 C 7.566406 16.390625 7.546875 16.46875 7.5625 16.542969 C 7.589844 16.722656 7.582031 17.050781 7.78125 17.089844 Z M 7.78125 17.089844 "/>
<path style=" stroke:none;fill-rule:nonzero;fill:rgb(60%,62.352941%,63.921569%);fill-opacity:1;" d="M 8.203125 19.613281 C 8.292969 19.699219 8.820312 19.5625 8.933594 19.558594 C 10.648438 19.25 12.394531 19.171875 14.128906 19.328125 C 14.203125 19.339844 14.28125 19.3125 14.332031 19.257812 C 14.386719 19.203125 14.410156 19.128906 14.398438 19.054688 C 14.34375 18.878906 14.382812 18.460938 14.117188 18.457031 C 12.605469 18.296875 11.074219 18.328125 9.566406 18.554688 C 9.246094 18.601562 8.53125 18.714844 8.222656 18.753906 C 8.085938 18.773438 7.992188 18.898438 8.011719 19.03125 C 8.035156 19.1875 8.039062 19.554688 8.203125 19.613281 Z M 8.203125 19.613281 "/>
<use xlink:href="#surface5" mask="url(#mask0)"/>
<path style=" stroke:none;fill-rule:nonzero;fill:rgb(38.431373%,47.058824%,53.72549%);fill-opacity:1;" d="M 24.292969 24.910156 C 24.128906 24.710938 23.855469 24.648438 23.621094 24.75 C 22.839844 25.097656 21.992188 25.28125 21.132812 25.28125 C 20.964844 25.28125 20.792969 25.28125 20.625 25.257812 C 17.875 25.027344 15.617188 22.984375 15.109375 20.269531 C 14.601562 17.554688 15.972656 14.835938 18.457031 13.628906 C 20.941406 12.421875 23.925781 13.023438 25.75 15.097656 C 27.570312 17.171875 27.78125 20.210938 26.265625 22.515625 C 26.121094 22.730469 26.136719 23.011719 26.304688 23.207031 L 27.644531 24.789062 L 25.636719 26.492188 Z M 21.128906 15.335938 C 19.054688 15.339844 17.367188 17 17.328125 19.070312 C 17.289062 21.144531 18.914062 22.867188 20.984375 22.949219 C 23.054688 23.03125 24.808594 21.445312 24.9375 19.375 C 25.0625 17.308594 23.511719 15.519531 21.449219 15.347656 C 21.339844 15.339844 21.234375 15.335938 21.128906 15.335938 Z M 21.128906 15.335938 "/>
<path style=" stroke:none;fill-rule:nonzero;fill:rgb(100%,100%,100%);fill-opacity:1;" d="M 21.121094 13.238281 C 23.289062 13.238281 25.285156 14.429688 26.316406 16.339844 C 27.347656 18.25 27.25 20.570312 26.058594 22.386719 C 25.859375 22.6875 25.878906 23.085938 26.113281 23.363281 L 27.300781 24.761719 L 25.65625 26.152344 L 24.480469 24.753906 C 24.246094 24.480469 23.859375 24.390625 23.527344 24.539062 C 22.773438 24.871094 21.960938 25.042969 21.136719 25.042969 C 20.972656 25.042969 20.8125 25.035156 20.648438 25.023438 C 17.492188 24.765625 15.097656 22.066406 15.226562 18.902344 C 15.355469 15.734375 17.960938 13.238281 21.128906 13.238281 M 21.136719 23.1875 C 23.308594 23.191406 25.097656 21.476562 25.1875 19.304688 C 25.273438 17.132812 23.632812 15.28125 21.464844 15.109375 C 21.355469 15.097656 21.242188 15.097656 21.128906 15.097656 C 18.894531 15.097656 17.085938 16.90625 17.085938 19.140625 C 17.085938 21.375 18.894531 23.1875 21.128906 23.1875 M 21.121094 12.761719 C 17.703125 12.765625 14.898438 15.464844 14.757812 18.878906 C 14.617188 22.296875 17.195312 25.214844 20.601562 25.5 C 20.773438 25.515625 20.953125 25.523438 21.128906 25.523438 C 22.019531 25.523438 22.898438 25.335938 23.714844 24.976562 C 23.847656 24.917969 24.007812 24.953125 24.105469 25.0625 L 25.289062 26.464844 L 25.601562 26.832031 L 25.964844 26.519531 L 27.609375 25.128906 L 27.976562 24.816406 L 27.679688 24.453125 L 26.496094 23.054688 C 26.398438 22.9375 26.390625 22.773438 26.472656 22.652344 C 27.765625 20.6875 27.875 18.171875 26.753906 16.105469 C 25.636719 14.035156 23.472656 12.75 21.121094 12.761719 Z M 21.128906 22.707031 C 19.160156 22.707031 17.5625 21.109375 17.5625 19.140625 C 17.5625 17.171875 19.160156 15.574219 21.128906 15.574219 C 21.226562 15.574219 21.328125 15.574219 21.425781 15.585938 C 23.335938 15.738281 24.785156 17.371094 24.707031 19.285156 C 24.625 21.199219 23.050781 22.710938 21.132812 22.707031 Z M 21.128906 22.707031 "/>
<path style=" stroke:none;fill-rule:nonzero;fill:rgb(40.784314%,31.372549%,1.568627%);fill-opacity:1;" d="M 29.890625 29.53125 C 29.625 29.753906 29.28125 29.863281 28.9375 29.835938 C 28.59375 29.808594 28.273438 29.640625 28.046875 29.378906 L 25.28125 26.113281 C 25.066406 25.863281 25.089844 25.488281 25.335938 25.265625 L 26.359375 24.34375 C 26.484375 24.230469 26.648438 24.171875 26.816406 24.183594 C 26.984375 24.195312 27.140625 24.273438 27.25 24.402344 L 30.039062 27.691406 C 30.503906 28.238281 30.4375 29.0625 29.890625 29.53125 Z M 29.890625 29.53125 "/>
<use xlink:href="#surface8" mask="url(#mask1)"/>
</g>
</svg>
