<?xml version="1.0" encoding="UTF-8"?>
<svg xmlns="http://www.w3.org/2000/svg" xmlns:xlink="http://www.w3.org/1999/xlink" width="48px" height="48px" viewBox="0 0 48 48" version="1.1">
<defs>
<filter id="alpha" filterUnits="objectBoundingBox" x="0%" y="0%" width="100%" height="100%">
  <feColorMatrix type="matrix" in="SourceGraphic" values="0 0 0 0 1 0 0 0 0 1 0 0 0 0 1 0 0 0 1 0"/>
</filter>
<mask id="mask0">
  <g filter="url(#alpha)">
<rect x="0" y="0" width="48" height="48" style="fill:rgb(0%,0%,0%);fill-opacity:0.901961;stroke:none;"/>
  </g>
</mask>
<clipPath id="clip1">
  <rect x="0" y="0" width="48" height="48"/>
</clipPath>
<g id="surface5" clip-path="url(#clip1)">
<path style="fill-rule:nonzero;fill:rgb(88.627451%,92.156863%,92.941176%);fill-opacity:1;stroke-width:1;stroke-linecap:butt;stroke-linejoin:miter;stroke:rgb(85.490196%,91.372549%,92.941176%);stroke-opacity:1;stroke-miterlimit:10;" d="M 144.140625 112.141927 C 143.277995 112.093099 142.513021 111.604818 142.073568 110.872396 C 141.650391 110.123698 141.145833 109.423828 140.54362 108.805339 C 136.279297 104.443359 129.475911 103.873698 124.544271 107.486979 C 123.860677 108.007813 123.242188 108.610026 122.705078 109.277344 C 121.809896 110.302734 120.3125 110.498047 119.189453 109.765625 C 118.652344 109.440104 118.277995 108.919271 118.164063 108.300781 C 118.05013 107.698568 118.212891 107.063802 118.58724 106.575521 C 119.36849 105.615234 120.263672 104.736328 121.25651 103.98763 C 128.352865 98.795573 138.19987 99.609375 144.335938 105.891927 C 145.198568 106.803385 145.947266 107.8125 146.549479 108.902995 C 146.826172 109.440104 146.875 110.07487 146.663411 110.644531 C 146.451823 111.230469 145.996094 111.669922 145.426432 111.897786 C 145.019531 112.093099 144.580078 112.174479 144.140625 112.141927 Z M 144.140625 112.141927 " transform="matrix(0.24,0,0,0.24,0,0)"/>
</g>
<mask id="mask1">
  <g filter="url(#alpha)">
<rect x="0" y="0" width="48" height="48" style="fill:rgb(0%,0%,0%);fill-opacity:0.8;stroke:none;"/>
  </g>
</mask>
<clipPath id="clip2">
  <rect x="0" y="0" width="48" height="48"/>
</clipPath>
<g id="surface8" clip-path="url(#clip2)">
<path style=" stroke:none;fill-rule:nonzero;fill:rgb(59.215686%,81.176471%,90.980392%);fill-opacity:1;" d="M 37.769531 28.714844 C 37.769531 32.066406 35.050781 34.785156 31.699219 34.785156 C 28.347656 34.785156 25.628906 32.066406 25.628906 28.714844 C 25.628906 25.363281 28.347656 22.644531 31.699219 22.644531 C 35.050781 22.644531 37.769531 25.363281 37.769531 28.714844 Z M 37.769531 28.714844 "/>
</g>
</defs>
<g id="surface1">
<path style=" stroke:none;fill-rule:nonzero;fill:rgb(30.980392%,26.27451%,21.960784%);fill-opacity:1;" d="M 26.191406 36.605469 C 25.902344 36.105469 25.421875 35.742188 24.859375 35.601562 C 24.335938 35.480469 23.792969 35.460938 23.261719 35.546875 C 23.554688 37.128906 24.96875 38.1875 26.429688 37.921875 C 27.886719 37.660156 28.828125 36.132812 28.558594 34.546875 C 28.03125 34.664062 27.53125 34.878906 27.085938 35.179688 C 26.609375 35.519531 26.285156 36.03125 26.191406 36.605469 Z M 26.191406 36.605469 "/>
<path style=" stroke:none;fill-rule:nonzero;fill:rgb(29.803922%,3.137255%,3.137255%);fill-opacity:1;" d="M 25.910156 35.042969 L 25.90625 35.042969 L 25.957031 35.304688 Z M 25.910156 35.042969 "/>
<path style=" stroke:none;fill-rule:nonzero;fill:rgb(39.607843%,44.313725%,48.627451%);fill-opacity:1;" d="M 5.324219 11.59375 L 2.792969 11.859375 C 2.210938 11.996094 1.84375 12.578125 1.972656 13.164062 L 6.742188 39.582031 C 6.78125 39.863281 6.929688 40.121094 7.160156 40.292969 C 7.390625 40.464844 7.675781 40.539062 7.960938 40.5 L 22.625 38.359375 C 22.945312 38.308594 23.269531 38.417969 23.492188 38.652344 C 24.378906 39.425781 25.582031 39.734375 26.730469 39.484375 C 27.898438 39.296875 28.910156 38.570312 29.460938 37.527344 C 29.59375 37.226562 29.863281 37.007812 30.183594 36.9375 L 44.613281 33.601562 C 45.179688 33.496094 45.542969 32.910156 45.40625 32.128906 L 40.632812 5.703125 C 40.492188 5.179688 39.96875 4.851562 39.433594 4.953125 L 37.085938 5.605469 L 37.757812 6.652344 L 37.90625 7.132812 L 42.324219 30.894531 "/>
<path style=" stroke:none;fill-rule:nonzero;fill:rgb(27.843137%,31.372549%,33.72549%);fill-opacity:1;" d="M 28.644531 34.355469 L 28.546875 34.378906 C 28.828125 35.964844 27.878906 37.476562 26.417969 37.753906 C 24.953125 38.027344 23.535156 36.960938 23.25 35.375 C 23.21875 35.375 23.183594 35.375 23.152344 35.390625 "/>
<path style=" stroke:none;fill-rule:nonzero;fill:rgb(78.823529%,76.470588%,75.686275%);fill-opacity:1;" d="M 9.273438 37.652344 L 10.734375 34.753906 L 6.035156 8.742188 L 5.253906 11.855469 L 4.988281 13.277344 L 4.953125 13.730469 Z M 9.273438 37.652344 "/>
<path style=" stroke:none;fill-rule:nonzero;fill:rgb(62.745098%,60%,57.647059%);fill-opacity:1;" d="M 25.863281 34.800781 L 25.773438 34.296875 C 25.804688 34.460938 25.882812 34.882812 25.90625 35.039062 L 25.863281 34.796875 L 29.324219 34.320312 L 28.652344 34.539062 C 33.128906 33.082031 37.738281 32.0625 42.414062 31.496094 C 41.488281 30.910156 40.765625 30.058594 40.011719 29.246094 L 40.011719 29.269531 C 20.835938 33.359375 29.183594 41.957031 21.957031 8.320312 C 21.234375 8.863281 21.234375 8.960938 20.304688 8.632812 C 25.230469 42.625 30.074219 31.644531 10.734375 34.769531 L 10.734375 34.757812 C 10.640625 34.953125 9.234375 37.636719 9.238281 37.746094 L 9.277344 37.652344 L 9.238281 37.746094 C 11.105469 37.140625 13.011719 36.667969 14.945312 36.328125 C 17.664062 35.867188 20.410156 35.613281 23.164062 35.5625 "/>
<path style=" stroke:none;fill-rule:nonzero;fill:rgb(78.823529%,76.470588%,75.686275%);fill-opacity:1;" d="M 38.082031 7.484375 L 37.886719 6.84375 L 37.15625 5.890625 L 35.324219 3.214844 L 35.324219 3.222656 L 40.023438 29.234375 L 41.40625 30.742188 L 42.414062 31.484375 "/>
<path style=" stroke:none;fill-rule:nonzero;fill:rgb(62.745098%,60%,57.647059%);fill-opacity:1;" d="M 29.039062 34.355469 L 25.867188 34.800781 L 25.910156 35.039062 L 25.957031 35.300781 L 25.921875 35.039062 L 25.875 34.800781 L 25.785156 34.296875 L 25.875 34.800781 L 23.136719 35.519531 L 23.15625 35.566406 L 23.253906 35.554688 C 23.785156 35.46875 24.328125 35.484375 24.851562 35.609375 C 25.414062 35.75 25.894531 36.109375 26.183594 36.613281 C 26.28125 36.039062 26.601562 35.523438 27.078125 35.1875 C 27.527344 34.886719 28.03125 34.671875 28.558594 34.558594 L 28.65625 34.539062 Z M 29.039062 34.355469 "/>
<path style=" stroke:none;fill-rule:nonzero;fill:rgb(62.745098%,60%,57.647059%);fill-opacity:1;" d="M 40.023438 29.238281 L 35.324219 3.222656 C 30.65625 4.234375 25.503906 5.519531 21.632812 8.5625 L 21.679688 8.5625 L 26.019531 32.609375 C 26.601562 35.460938 28.808594 32.847656 30.132812 32.441406 C 33.066406 30.882812 36.863281 30.207031 40.023438 29.261719 Z M 40.023438 29.238281 "/>
<path style=" stroke:none;fill-rule:nonzero;fill:rgb(94.901961%,93.72549%,92.941176%);fill-opacity:1;" d="M 40.023438 29.257812 L 35.378906 3.527344 C 30.71875 4.539062 25.621094 5.777344 21.742188 8.792969 L 21.742188 8.828125 L 26.039062 32.617188 C 26.609375 35.433594 28.820312 32.839844 30.144531 32.441406 C 33.082031 30.894531 36.878906 30.21875 40.042969 29.273438 Z M 40.023438 29.257812 "/>
<path style=" stroke:none;fill-rule:nonzero;fill:rgb(60%,62.352941%,63.921569%);fill-opacity:1;" d="M 33.542969 10.503906 C 30.96875 10.960938 28.457031 11.742188 26.074219 12.824219 C 25.703125 12.992188 24.988281 13.597656 24.769531 12.964844 L 24.664062 12.363281 C 24.632812 11.851562 25.609375 11.457031 26 11.316406 C 29.542969 10.042969 30.769531 9.726562 33.277344 9.191406 C 33.472656 9.152344 33.664062 9.273438 33.714844 9.464844 C 33.820312 9.804688 34.027344 10.398438 33.542969 10.503906 Z M 33.542969 10.503906 "/>
<path style=" stroke:none;fill-rule:nonzero;fill:rgb(60%,62.352941%,63.921569%);fill-opacity:1;" d="M 34.242188 14.054688 C 31.964844 14.578125 29.523438 15.136719 27.390625 16.09375 C 26.894531 16.304688 26.410156 16.53125 25.9375 16.769531 C 25.835938 16.824219 25.71875 16.828125 25.613281 16.78125 C 25.511719 16.734375 25.4375 16.640625 25.414062 16.527344 L 25.304688 15.933594 C 25.28125 15.777344 25.359375 15.625 25.5 15.558594 C 25.949219 15.316406 26.40625 15.109375 26.871094 14.902344 C 29.085938 13.890625 31.546875 13.28125 33.925781 12.769531 C 34.136719 12.738281 34.335938 12.886719 34.371094 13.097656 C 34.433594 13.421875 34.644531 13.921875 34.242188 14.054688 Z M 34.242188 14.054688 "/>
<path style=" stroke:none;fill-rule:nonzero;fill:rgb(60%,62.352941%,63.921569%);fill-opacity:1;" d="M 34.964844 17.585938 C 32.136719 18.253906 29.136719 18.972656 26.578125 20.332031 C 26.480469 20.382812 26.363281 20.386719 26.257812 20.339844 C 26.15625 20.292969 26.082031 20.199219 26.058594 20.089844 L 25.949219 19.496094 C 25.925781 19.34375 26.003906 19.191406 26.144531 19.125 C 28.757812 17.761719 31.679688 16.945312 34.558594 16.339844 C 34.769531 16.316406 34.964844 16.457031 35.007812 16.667969 C 35.070312 16.945312 35.261719 17.421875 34.964844 17.585938 Z M 34.964844 17.585938 "/>
<path style=" stroke:none;fill-rule:nonzero;fill:rgb(60%,62.352941%,63.921569%);fill-opacity:1;" d="M 35.636719 21.121094 C 33.996094 21.632812 32.105469 21.894531 30.492188 22.519531 C 29.375 22.90625 28.28125 23.367188 27.222656 23.898438 C 27.121094 23.945312 27.007812 23.945312 26.90625 23.898438 C 26.804688 23.851562 26.730469 23.765625 26.699219 23.65625 C 26.679688 23.382812 26.429688 22.84375 26.789062 22.695312 C 28.828125 21.660156 30.988281 20.878906 33.21875 20.367188 L 34.179688 20.148438 L 35.152344 19.921875 C 35.261719 19.890625 35.378906 19.90625 35.476562 19.96875 C 35.570312 20.027344 35.636719 20.128906 35.65625 20.238281 C 35.710938 20.496094 35.898438 20.953125 35.636719 21.121094 Z M 35.636719 21.121094 "/>
<path style=" stroke:none;fill-rule:nonzero;fill:rgb(62.745098%,60%,57.647059%);fill-opacity:1;" d="M 20.675781 8.746094 C 15.996094 7.316406 10.753906 7.988281 6.035156 8.746094 L 10.734375 34.765625 L 10.734375 34.777344 C 14.019531 34.511719 17.800781 33.757812 21.089844 34.148438 C 22.464844 34.035156 25.441406 35.675781 24.988281 32.804688 "/>
<path style=" stroke:none;fill-rule:nonzero;fill:rgb(95.686275%,94.509804%,93.72549%);fill-opacity:1;" d="M 10.738281 34.800781 C 14.910156 34.382812 19.40625 33.574219 23.574219 34.484375 C 24.4375 34.648438 25.304688 34.285156 24.988281 32.816406 L 20.691406 9.023438 L 20.671875 8.996094 C 16.003906 7.589844 10.800781 8.289062 6.089844 9.046875 Z M 10.738281 34.800781 "/>
<path style=" stroke:none;fill-rule:nonzero;fill:rgb(60%,62.352941%,63.921569%);fill-opacity:1;" d="M 9.917969 14.957031 C 12.480469 14.445312 15.101562 14.257812 17.710938 14.398438 C 18.113281 14.417969 18.996094 14.722656 18.976562 14.054688 L 18.867188 13.453125 C 18.714844 12.972656 17.667969 12.949219 17.25 12.972656 C 13.496094 13.078125 12.238281 13.230469 9.710938 13.644531 C 9.511719 13.679688 9.375 13.859375 9.398438 14.058594 C 9.421875 14.398438 9.429688 15.035156 9.917969 14.957031 Z M 9.917969 14.957031 "/>
<path style=" stroke:none;fill-rule:nonzero;fill:rgb(60%,62.352941%,63.921569%);fill-opacity:1;" d="M 10.507812 18.527344 C 12.820312 18.1875 15.292969 17.808594 17.621094 17.933594 C 18.15625 17.953125 18.6875 17.984375 19.214844 18.035156 C 19.328125 18.050781 19.441406 18.011719 19.519531 17.933594 C 19.601562 17.851562 19.636719 17.738281 19.621094 17.625 L 19.515625 17.039062 C 19.484375 16.882812 19.359375 16.765625 19.199219 16.75 C 18.699219 16.695312 18.195312 16.664062 17.691406 16.640625 C 15.269531 16.496094 12.757812 16.828125 10.359375 17.21875 C 10.144531 17.269531 10.007812 17.480469 10.054688 17.699219 C 10.105469 18 10.078125 18.550781 10.507812 18.527344 Z M 10.507812 18.527344 "/>
<path style=" stroke:none;fill-rule:nonzero;fill:rgb(60%,62.352941%,63.921569%);fill-opacity:1;" d="M 11.070312 22.078125 C 13.949219 21.671875 16.996094 21.253906 19.859375 21.589844 C 19.96875 21.601562 20.082031 21.5625 20.160156 21.480469 C 20.242188 21.402344 20.277344 21.289062 20.261719 21.175781 L 20.160156 20.59375 C 20.128906 20.441406 20 20.328125 19.84375 20.316406 C 16.925781 19.984375 13.90625 20.296875 11.003906 20.796875 C 10.792969 20.851562 10.660156 21.0625 10.703125 21.277344 C 10.742188 21.53125 10.734375 22.042969 11.070312 22.078125 Z M 11.070312 22.078125 "/>
<path style=" stroke:none;fill-rule:nonzero;fill:rgb(60%,62.352941%,63.921569%);fill-opacity:1;" d="M 11.671875 25.632812 C 13.386719 25.515625 15.238281 25.066406 16.96875 25.066406 C 18.144531 25.019531 19.328125 25.050781 20.5 25.160156 C 20.613281 25.167969 20.71875 25.128906 20.796875 25.050781 C 20.875 24.972656 20.914062 24.863281 20.90625 24.75 C 20.828125 24.488281 20.878906 23.894531 20.488281 23.878906 C 18.214844 23.652344 15.921875 23.710938 13.664062 24.046875 L 12.6875 24.191406 L 11.699219 24.335938 C 11.585938 24.347656 11.484375 24.40625 11.414062 24.496094 C 11.347656 24.589844 11.320312 24.703125 11.34375 24.816406 C 11.386719 25.082031 11.371094 25.578125 11.671875 25.632812 Z M 11.671875 25.632812 "/>
<path style=" stroke:none;fill-rule:nonzero;fill:rgb(60%,62.352941%,63.921569%);fill-opacity:1;" d="M 12.300781 29.417969 C 12.4375 29.550781 13.230469 29.34375 13.402344 29.339844 C 15.972656 28.875 18.59375 28.761719 21.195312 28.996094 C 21.308594 29.007812 21.421875 28.96875 21.5 28.886719 C 21.578125 28.804688 21.617188 28.691406 21.601562 28.578125 C 21.511719 28.316406 21.574219 27.695312 21.175781 27.683594 C 18.90625 27.445312 16.613281 27.492188 14.351562 27.832031 C 13.871094 27.902344 12.800781 28.070312 12.332031 28.128906 C 12.128906 28.160156 11.992188 28.347656 12.019531 28.546875 C 12.054688 28.777344 12.058594 29.332031 12.300781 29.417969 Z M 12.300781 29.417969 "/>
<use xlink:href="#surface5" mask="url(#mask0)"/>
<path style=" stroke:none;fill-rule:nonzero;fill:rgb(38.431373%,47.058824%,53.72549%);fill-opacity:1;" d="M 36.4375 37.363281 C 36.195312 37.070312 35.785156 36.972656 35.433594 37.125 C 34.257812 37.648438 32.988281 37.921875 31.703125 37.921875 C 31.449219 37.921875 31.191406 37.921875 30.9375 37.890625 C 26.808594 37.542969 23.421875 34.476562 22.664062 30.40625 C 21.90625 26.332031 23.960938 22.257812 27.6875 20.445312 C 31.410156 18.632812 35.886719 19.535156 38.621094 22.644531 C 41.355469 25.757812 41.675781 30.3125 39.398438 33.773438 C 39.183594 34.09375 39.207031 34.515625 39.457031 34.808594 L 41.464844 37.183594 L 38.453125 39.738281 Z M 31.691406 23.003906 C 28.585938 23.011719 26.050781 25.5 25.992188 28.609375 C 25.933594 31.714844 28.371094 34.300781 31.476562 34.421875 C 34.582031 34.546875 37.214844 32.167969 37.40625 29.0625 C 37.59375 25.960938 35.269531 23.277344 32.171875 23.023438 C 32.007812 23.007812 31.851562 23.003906 31.691406 23.003906 Z M 31.691406 23.003906 "/>
<path style=" stroke:none;fill-rule:nonzero;fill:rgb(100%,100%,100%);fill-opacity:1;" d="M 31.679688 19.859375 C 34.9375 19.859375 37.929688 21.644531 39.476562 24.511719 C 41.023438 27.375 40.875 30.859375 39.089844 33.582031 C 38.789062 34.03125 38.820312 34.628906 39.171875 35.042969 L 40.949219 37.140625 L 38.484375 39.230469 L 36.71875 37.128906 C 36.367188 36.71875 35.789062 36.585938 35.292969 36.804688 C 34.164062 37.304688 32.941406 37.5625 31.707031 37.5625 C 31.460938 37.5625 31.21875 37.554688 30.972656 37.535156 C 26.238281 37.152344 22.648438 33.097656 22.839844 28.351562 C 23.035156 23.605469 26.941406 19.855469 31.691406 19.859375 M 31.703125 34.777344 C 34.964844 34.785156 37.644531 32.214844 37.777344 28.957031 C 37.910156 25.703125 35.449219 22.921875 32.199219 22.664062 C 32.03125 22.648438 31.863281 22.644531 31.695312 22.644531 C 28.34375 22.644531 25.628906 25.359375 25.628906 28.710938 C 25.628906 32.0625 28.34375 34.777344 31.695312 34.777344 M 31.679688 19.140625 C 26.554688 19.152344 22.347656 23.199219 22.136719 28.320312 C 21.929688 33.441406 25.792969 37.820312 30.898438 38.25 C 31.160156 38.273438 31.429688 38.28125 31.691406 38.28125 C 33.027344 38.285156 34.347656 38.003906 35.570312 37.464844 C 35.773438 37.375 36.011719 37.429688 36.15625 37.597656 L 37.933594 39.695312 L 38.398438 40.246094 L 38.949219 39.78125 L 41.414062 37.691406 L 41.964844 37.226562 L 41.519531 36.675781 L 39.742188 34.578125 C 39.597656 34.40625 39.585938 34.164062 39.710938 33.976562 C 41.648438 31.03125 41.8125 27.257812 40.132812 24.15625 C 38.453125 21.054688 35.207031 19.128906 31.679688 19.140625 Z M 31.691406 34.058594 C 28.738281 34.058594 26.34375 31.664062 26.34375 28.710938 C 26.34375 25.757812 28.738281 23.363281 31.691406 23.363281 C 31.839844 23.363281 31.988281 23.363281 32.136719 23.378906 C 35.003906 23.609375 37.175781 26.058594 37.058594 28.929688 C 36.941406 31.800781 34.574219 34.066406 31.703125 34.058594 Z M 31.691406 34.058594 "/>
<path style=" stroke:none;fill-rule:nonzero;fill:rgb(40.784314%,31.372549%,1.568627%);fill-opacity:1;" d="M 44.835938 44.292969 C 44.4375 44.632812 43.925781 44.796875 43.40625 44.753906 C 42.886719 44.710938 42.40625 44.464844 42.070312 44.066406 L 37.921875 39.171875 C 37.601562 38.796875 37.636719 38.234375 38.003906 37.902344 L 39.539062 36.511719 C 39.726562 36.34375 39.972656 36.257812 40.226562 36.273438 C 40.476562 36.289062 40.714844 36.410156 40.875 36.601562 L 45.058594 41.535156 C 45.757812 42.359375 45.65625 43.59375 44.835938 44.292969 Z M 44.835938 44.292969 "/>
<use xlink:href="#surface8" mask="url(#mask1)"/>
</g>
</svg>
