<?xml version="1.0" encoding="UTF-8" standalone="no"?>
<svg
   version="1.1"
   width="48"
   height="48"
   id="svg6649"
   sodipodi:docname="48.svg"
   inkscape:version="1.4.2 (ebf0e940d0, 2025-05-08)"
   inkscape:export-filename="48.png"
   inkscape:export-xdpi="300"
   inkscape:export-ydpi="300"
   xmlns:inkscape="http://www.inkscape.org/namespaces/inkscape"
   xmlns:sodipodi="http://sodipodi.sourceforge.net/DTD/sodipodi-0.dtd"
   xmlns:xlink="http://www.w3.org/1999/xlink"
   xmlns="http://www.w3.org/2000/svg"
   xmlns:svg="http://www.w3.org/2000/svg"
   xmlns:rdf="http://www.w3.org/1999/02/22-rdf-syntax-ns#"
   xmlns:cc="http://creativecommons.org/ns#"
   xmlns:dc="http://purl.org/dc/elements/1.1/">
  <sodipodi:namedview
     id="namedview1"
     pagecolor="#ffffff"
     bordercolor="#000000"
     borderopacity="0.25"
     inkscape:showpageshadow="2"
     inkscape:pageopacity="0.0"
     inkscape:pagecheckerboard="0"
     inkscape:deskcolor="#d1d1d1"
     showgrid="false"
     inkscape:current-layer="svg6649"
     showguides="true"
     inkscape:lockguides="false">
    <inkscape:grid
       id="grid1"
       units="px"
       originx="0"
       originy="0"
       spacingx="0.5"
       spacingy="0.5"
       empcolor="#0099e5"
       empopacity="0.30196078"
       color="#0099e5"
       opacity="0.078431373"
       empspacing="2"
       enabled="true"
       visible="false" />
  </sodipodi:namedview>
  <defs
     id="defs6651">
    <linearGradient
       id="linearGradient39"
       inkscape:collect="always">
      <stop
         style="stop-color:#ffffff;stop-opacity:1;"
         offset="0"
         id="stop36" />
      <stop
         style="stop-color:#ffffff;stop-opacity:0.25;"
         offset="0.078125"
         id="stop37" />
      <stop
         style="stop-color:#ffffff;stop-opacity:0.25;"
         offset="0.87837839"
         id="stop38" />
      <stop
         style="stop-color:#ffffff;stop-opacity:0.5;"
         offset="1"
         id="stop39" />
    </linearGradient>
    <linearGradient
       id="linearGradient3"
       inkscape:collect="always">
      <stop
         style="stop-color:#ffffff;stop-opacity:1;"
         offset="0"
         id="stop3" />
      <stop
         style="stop-color:#ffffff;stop-opacity:0.25;"
         offset="0.12162162"
         id="stop7" />
      <stop
         style="stop-color:#ffffff;stop-opacity:0.25;"
         offset="0.87837839"
         id="stop8" />
      <stop
         style="stop-color:#ffffff;stop-opacity:0.5;"
         offset="1"
         id="stop4" />
    </linearGradient>
    <inkscape:path-effect
       effect="fillet_chamfer"
       id="path-effect3"
       is_visible="true"
       lpeversion="1"
       nodesatellites_param="F,0,0,1,0,0,0,1 @ F,0,0,1,0,15,0,1 @ F,0,0,1,0,13.038405,0,1 @ F,0,0,1,0,0,0,1"
       radius="0"
       unit="px"
       method="auto"
       mode="F"
       chamfer_steps="1"
       flexible="false"
       use_knot_distance="true"
       apply_no_radius="true"
       apply_with_radius="true"
       only_selected="false"
       hide_knots="false" />
    <linearGradient
       id="linearGradient1"
       inkscape:collect="always">
      <stop
         style="stop-color:#cfa25e;stop-opacity:1;"
         offset="0"
         id="stop1" />
      <stop
         style="stop-color:#e7c591;stop-opacity:1;"
         offset="1"
         id="stop2" />
    </linearGradient>
    <linearGradient
       id="linearGradient5"
       inkscape:collect="always">
      <stop
         style="stop-color:#cfa25e;stop-opacity:1;"
         offset="0"
         id="stop5" />
      <stop
         style="stop-color:#b6802e;stop-opacity:1;"
         offset="1"
         id="stop6" />
    </linearGradient>
    <inkscape:path-effect
       effect="fillet_chamfer"
       id="path-effect16"
       is_visible="true"
       lpeversion="1"
       nodesatellites_param="F,0,0,1,0,0,0,1 @ F,0,0,1,0,4.1230503,0,1 @ F,0,0,1,0,0,0,1"
       radius="0"
       unit="px"
       method="auto"
       mode="F"
       chamfer_steps="1"
       flexible="false"
       use_knot_distance="true"
       apply_no_radius="true"
       apply_with_radius="true"
       only_selected="false"
       hide_knots="false" />
    <inkscape:path-effect
       effect="fillet_chamfer"
       id="path-effect14"
       is_visible="true"
       lpeversion="1"
       nodesatellites_param="F,0,0,1,0,0,0,1 @ F,0,0,1,0,4.1230503,0,1 @ F,0,0,1,0,0,0,1"
       radius="0"
       unit="px"
       method="auto"
       mode="F"
       chamfer_steps="1"
       flexible="false"
       use_knot_distance="true"
       apply_no_radius="true"
       apply_with_radius="true"
       only_selected="false"
       hide_knots="false" />
    <inkscape:path-effect
       effect="fillet_chamfer"
       id="path-effect10"
       is_visible="true"
       lpeversion="1"
       nodesatellites_param="F,0,0,1,0,0,0,1 @ F,0,0,1,0,15,0,1 @ F,0,0,1,0,13.038405,0,1 @ F,0,0,1,0,0,0,1"
       radius="0"
       unit="px"
       method="auto"
       mode="F"
       chamfer_steps="1"
       flexible="false"
       use_knot_distance="true"
       apply_no_radius="true"
       apply_with_radius="true"
       only_selected="false"
       hide_knots="false" />
    <inkscape:path-effect
       effect="fillet_chamfer"
       id="path-effect8"
       is_visible="true"
       lpeversion="1"
       nodesatellites_param="F,0,0,1,0,0,0,1 @ F,0,0,1,0,15,0,1 @ F,0,0,1,0,13.038405,0,1 @ F,0,0,1,0,0,0,1"
       radius="0"
       unit="px"
       method="auto"
       mode="F"
       chamfer_steps="1"
       flexible="false"
       use_knot_distance="true"
       apply_no_radius="true"
       apply_with_radius="true"
       only_selected="false"
       hide_knots="false" />
    <linearGradient
       id="linearGradient1201">
      <stop
         id="stop1193"
         style="stop-color:#ffffff;stop-opacity:1"
         offset="0" />
      <stop
         id="stop1195"
         style="stop-color:#ffffff;stop-opacity:0.23529412"
         offset="0.06781636" />
      <stop
         id="stop1197"
         style="stop-color:#ffffff;stop-opacity:0.15686275"
         offset="0.94694352" />
      <stop
         id="stop1199"
         style="stop-color:#ffffff;stop-opacity:0.39215687"
         offset="1" />
    </linearGradient>
    <linearGradient
       id="linearGradient3688-166-749">
      <stop
         id="stop2883"
         style="stop-color:#181818;stop-opacity:1"
         offset="0" />
      <stop
         id="stop2885"
         style="stop-color:#181818;stop-opacity:0"
         offset="1" />
    </linearGradient>
    <linearGradient
       id="linearGradient3702-501-757">
      <stop
         id="stop2895"
         style="stop-color:#181818;stop-opacity:0"
         offset="0" />
      <stop
         id="stop2897"
         style="stop-color:#181818;stop-opacity:1"
         offset="0.5" />
      <stop
         id="stop2899"
         style="stop-color:#181818;stop-opacity:0"
         offset="1" />
    </linearGradient>
    <radialGradient
       cx="4.9929786"
       cy="43.5"
       r="2.5"
       fx="4.9929786"
       fy="43.5"
       id="radialGradient3013-6"
       xlink:href="#linearGradient3688-166-749"
       gradientUnits="userSpaceOnUse"
       gradientTransform="matrix(2.003784,0,0,0.89999994,29.98813,4.8500025)" />
    <radialGradient
       cx="4.9929786"
       cy="43.5"
       r="2.5"
       fx="4.9929786"
       fy="43.5"
       id="radialGradient3015-1"
       xlink:href="#linearGradient3688-166-749"
       gradientUnits="userSpaceOnUse"
       gradientTransform="matrix(2.003784,0,0,0.89999994,-18.01187,-83.149997)" />
    <linearGradient
       x1="38.999996"
       y1="5.9999938"
       x2="38.999996"
       y2="41.945408"
       id="linearGradient3058-5"
       xlink:href="#linearGradient1201"
       gradientUnits="userSpaceOnUse"
       gradientTransform="translate(4e-6,1.0000062)" />
    <linearGradient
       xlink:href="#linearGradient3702-501-757"
       id="linearGradient1191"
       gradientUnits="userSpaceOnUse"
       x1="25.058096"
       y1="47.027729"
       x2="25.058096"
       y2="39.999443"
       gradientTransform="matrix(1.1428571,0,0,0.6428571,-3.428569,16.035716)" />
    <linearGradient
       xlink:href="#linearGradient870"
       id="linearGradient930-9-2"
       x1="16.767664"
       y1="2.7676599"
       x2="16.767664"
       y2="29.896721"
       gradientUnits="userSpaceOnUse"
       gradientTransform="matrix(1.444444,0,0,1.444444,0.888913,1.888891)" />
    <linearGradient
       id="linearGradient870">
      <stop
         id="stop866"
         offset="0"
         style="stop-color:#cd9ef7;stop-opacity:1" />
      <stop
         id="stop868"
         offset="1"
         style="stop-color:#a56de2;stop-opacity:1" />
    </linearGradient>
    <linearGradient
       inkscape:collect="always"
       xlink:href="#linearGradient5"
       id="linearGradient6"
       x1="25"
       y1="7"
       x2="25"
       y2="34"
       gradientUnits="userSpaceOnUse" />
    <linearGradient
       inkscape:collect="always"
       xlink:href="#linearGradient5"
       id="linearGradient8"
       x1="11"
       y1="7"
       x2="11"
       y2="33"
       gradientUnits="userSpaceOnUse" />
    <linearGradient
       inkscape:collect="always"
       xlink:href="#linearGradient1"
       id="linearGradient2"
       x1="18.5"
       y1="32.5"
       x2="18.5"
       y2="44"
       gradientUnits="userSpaceOnUse" />
    <linearGradient
       inkscape:collect="always"
       xlink:href="#linearGradient3"
       id="linearGradient4"
       x1="18"
       y1="7"
       x2="18"
       y2="44"
       gradientUnits="userSpaceOnUse" />
    <linearGradient
       inkscape:collect="always"
       xlink:href="#linearGradient3"
       id="linearGradient11"
       x1="23"
       y1="8"
       x2="23"
       y2="44"
       gradientUnits="userSpaceOnUse" />
    <linearGradient
       inkscape:collect="always"
       xlink:href="#linearGradient3"
       id="linearGradient14"
       x1="18"
       y1="8"
       x2="18"
       y2="44"
       gradientUnits="userSpaceOnUse" />
    <linearGradient
       inkscape:collect="always"
       xlink:href="#linearGradient39"
       id="linearGradient36"
       x1="38"
       y1="12"
       x2="38"
       y2="44"
       gradientUnits="userSpaceOnUse" />
  </defs>
  <metadata
     id="metadata6654">
    <rdf:RDF>
      <cc:Work
         rdf:about="">
        <dc:format>image/svg+xml</dc:format>
        <dc:type
           rdf:resource="http://purl.org/dc/dcmitype/StillImage" />
      </cc:Work>
    </rdf:RDF>
  </metadata>
  <path
     style="fill:#3d211b;fill-opacity:1;stroke:#57392d;stroke-linecap:round;stroke-linejoin:round;stroke-opacity:0.3"
     d="m 34.5,32.5 a 30.825427,30.825427 155.37644 0 1 -24,11 7.1468635,7.1468635 61.38954 0 1 -6,-11 z"
     id="path8"
     sodipodi:nodetypes="ccccc"
     inkscape:path-effect="#path-effect10"
     inkscape:original-d="m 34.5,32.5 -9,11 h -28 l 7,-11 z"
     transform="matrix(-1,0,0,1,47.869931,2)" />
  <rect
     style="fill:#3d211b;fill-opacity:1;stroke:#57392d;stroke-linecap:round;stroke-linejoin:round;stroke-opacity:0.3"
     id="rect10"
     width="13"
     height="2"
     x="10.449647"
     y="7.8859129"
     rx="4"
     ry="1"
     transform="rotate(-7.8107219)" />
  <path
     id="rect1"
     style="fill:url(#linearGradient6);stroke:#804b00;stroke-linecap:round;stroke-linejoin:round;stroke-opacity:0.3"
     d="M 10.96289,35.505133 16,35.5 l 17.5,-1 h 10 V 13.488281 C 43.5,6.9419974 28.144123,6.5 24,6.5 v 0 c -0.09767,0 -0.201588,2.455e-4 -0.311396,8.109e-4 L 15,9 c -2.5,0.5 -4,2.5 -4.013515,5 z"
     sodipodi:nodetypes="ccccssscccc" />
  <path
     id="path9"
     style="fill:none;stroke:url(#linearGradient11);stroke-linecap:round;stroke-linejoin:round;stroke-opacity:1;opacity:0.5"
     d="m 23.789062,7.5136719 c -3.326432,1.0152937 -6.736742,1.7909206 -9.994658,3.0105051 -1.597563,0.978964 -2.008285,3.037828 -1.808237,4.777385 L 12,33.5 l 30.496098,-0.0059 -0.07532,-20.60085 C 41.891649,10.875856 39.761076,9.9384236 37.961554,9.32681 33.400899,7.7809965 28.540756,7.5808013 23.789062,7.5136719 Z"
     sodipodi:nodetypes="cccccccc" />
  <path
     id="path5"
     style="fill:url(#linearGradient8);fill-opacity:1;stroke:#804b00;stroke-linecap:round;stroke-linejoin:round;stroke-opacity:0.3"
     d="M 23.684483,6.5008323 C 19.134484,6.5245603 4.5,7.0976133 4.5,13.488281 v 22.023438 l 6.46289,-0.0066 C 11.144908,29.937247 10.986485,14 10.986485,14 11,11.5 12.5,9.5 15,9 15,9 19.400826,7.7018083 23.684483,6.5008323 Z"
     sodipodi:nodetypes="csccccc" />
  <path
     id="path4"
     style="fill:none;fill-opacity:1;stroke:#804b00;stroke-linecap:round;stroke-linejoin:round;stroke-opacity:0.3"
     d="M 23.688604 6.5008109 L 23.684483 6.5008323 " />
  <path
     id="path12"
     style="fill:#3d211b;fill-opacity:1;stroke:#57392d;stroke-linecap:round;stroke-linejoin:round;stroke-opacity:0.3"
     d="m 24.5,2.5 a 3,2 0 0 0 -3,2 3,2 0 0 0 3,2 3,2 0 0 0 3,-2 3,2 0 0 0 -3,-2 z m 0,1.5 A 1.5,0.5 0 0 1 26,4.5 1.5,0.5 0 0 1 24.5,5 1.5,0.5 0 0 1 23,4.5 1.5,0.5 0 0 1 24.5,4 Z" />
  <rect
     style="fill:#3d211b;fill-opacity:1;stroke:#57392d;stroke-linecap:round;stroke-linejoin:round;stroke-opacity:0.3"
     id="rect11"
     width="13"
     height="2"
     x="23.492159"
     y="-8.2738914"
     rx="4"
     ry="1"
     transform="rotate(30)" />
  <path
     id="path11"
     style="fill:#3d211b;fill-opacity:1;stroke:#57392d;stroke-linecap:round;stroke-linejoin:round;stroke-opacity:0.3"
     d="m 22.5,3.5 a 3,2 0 0 0 -3,2 3,2 0 0 0 3,2 3,2 0 0 0 3,-2 3,2 0 0 0 -3,-2 z m 0,1.5 A 1.5,0.5 0 0 1 24,5.5 1.5,0.5 0 0 1 22.5,6 1.5,0.5 0 0 1 21,5.5 1.5,0.5 0 0 1 22.5,5 Z" />
  <path
     style="fill:url(#linearGradient2);fill-opacity:1;stroke:#804b00;stroke-linecap:round;stroke-linejoin:round;stroke-opacity:0.3"
     d="m 34.5,32.5 a 30.825427,30.825427 155.37644 0 1 -24,11 7.1468635,7.1468635 61.38954 0 1 -6,-11 z"
     id="path7"
     sodipodi:nodetypes="ccccc"
     inkscape:path-effect="#path-effect8"
     inkscape:original-d="m 34.5,32.5 -9,11 h -28 l 7,-11 z"
     transform="translate(0,2)" />
  <rect
     style="opacity:0.15;fill:#000000;fill-opacity:1;stroke:none;stroke-linecap:round;stroke-linejoin:round;stroke-opacity:1"
     id="rect8"
     width="13.999985"
     height="25.000004"
     x="29.500015"
     y="9.4999952"
     rx="4"
     ry="3.9887762" />
  <rect
     style="fill:#cfa25e;fill-opacity:1;stroke:#804b00;stroke-linecap:round;stroke-linejoin:round;stroke-opacity:0.3"
     id="rect4"
     width="13.999985"
     height="25.000004"
     x="30.500015"
     y="10.499995"
     rx="4"
     ry="3.9887762" />
  <path
     id="path2"
     style="fill:none;fill-opacity:1;stroke:url(#linearGradient4);stroke-linecap:round;stroke-linejoin:round;stroke-opacity:1"
     d="m 26.121094,35.5 c -7.001302,0.0032 -14.002604,7.55e-4 -21.0039065,0 -1.460269,2.556136 -0.6259291,6.065437 1.7578058,7.767274 1.7917755,1.476883 4.3208887,1.264071 6.4218817,1.121398 4.147479,-0.360586 8.116325,-1.512331 11.778919,-3.50677 2.677842,-1.444285 5.04611,-3.242822 7.16444,-5.397527 -2.039713,0.0052 -4.079427,0.01042 -6.11914,0.01563 z" />
  <path
     id="path13"
     style="fill:none;fill-opacity:1;stroke:url(#linearGradient14);stroke-linecap:round;stroke-linejoin:round;stroke-opacity:1;opacity:0.5"
     d="M 13.205078,8.4472656 C 11.0643,8.9064341 8.9890339,9.4997385 7.1347656,10.716797 6.0490942,11.470067 5.2914039,12.754053 5.5,14.104688 V 33.5 l 4.4804688,-0.0059 0.060316,-20.364994 c 0.225493,-2.074002 1.649341,-3.9731151 3.582262,-4.7619585 l -0.417969,0.080078 z"
     sodipodi:nodetypes="ccccccccc" />
  <rect
     style="fill:none;fill-opacity:1;stroke:url(#linearGradient36);stroke-linecap:round;stroke-linejoin:round;stroke-opacity:1;opacity:0.5"
     id="rect35"
     width="12"
     height="23"
     x="31.5"
     y="11.5"
     rx="3"
     ry="3" />
</svg>
