<?xml version="1.0" encoding="UTF-8" standalone="no"?>
<svg
   version="1.1"
   width="48"
   height="48"
   id="svg6649"
   sodipodi:docname="48.svg"
   inkscape:version="1.4.2 (ebf0e940d0, 2025-05-08)"
   inkscape:export-filename="48.png"
   inkscape:export-xdpi="300"
   inkscape:export-ydpi="300"
   xmlns:inkscape="http://www.inkscape.org/namespaces/inkscape"
   xmlns:sodipodi="http://sodipodi.sourceforge.net/DTD/sodipodi-0.dtd"
   xmlns:xlink="http://www.w3.org/1999/xlink"
   xmlns="http://www.w3.org/2000/svg"
   xmlns:svg="http://www.w3.org/2000/svg"
   xmlns:rdf="http://www.w3.org/1999/02/22-rdf-syntax-ns#"
   xmlns:cc="http://creativecommons.org/ns#"
   xmlns:dc="http://purl.org/dc/elements/1.1/">
  <sodipodi:namedview
     id="namedview1"
     pagecolor="#ffffff"
     bordercolor="#000000"
     borderopacity="0.25"
     inkscape:showpageshadow="2"
     inkscape:pageopacity="0.0"
     inkscape:pagecheckerboard="0"
     inkscape:deskcolor="#d1d1d1"
     showgrid="false"
     inkscape:current-layer="svg6649"
     showguides="true"
     inkscape:lockguides="false">
    <inkscape:grid
       id="grid1"
       units="px"
       originx="0"
       originy="0"
       spacingx="0.5"
       spacingy="0.5"
       empcolor="#0099e5"
       empopacity="0.30196078"
       color="#0099e5"
       opacity="0.078431373"
       empspacing="2"
       enabled="true"
       visible="false" />
  </sodipodi:namedview>
  <defs
     id="defs6651">
    <linearGradient
       id="linearGradient25"
       inkscape:collect="always">
      <stop
         style="stop-color:#ffffff;stop-opacity:1;"
         offset="0"
         id="stop22" />
      <stop
         style="stop-color:#ffffff;stop-opacity:0.25;"
         offset="0.02564439"
         id="stop23" />
      <stop
         style="stop-color:#ffffff;stop-opacity:0.25;"
         offset="0.87837839"
         id="stop24" />
      <stop
         style="stop-color:#ffffff;stop-opacity:0.5;"
         offset="1"
         id="stop25" />
    </linearGradient>
    <linearGradient
       id="linearGradient17"
       inkscape:collect="always">
      <stop
         style="stop-color:#715344;stop-opacity:1;"
         offset="0"
         id="stop17" />
      <stop
         style="stop-color:#57392d;stop-opacity:1;"
         offset="1"
         id="stop18" />
    </linearGradient>
    <linearGradient
       id="linearGradient7"
       inkscape:collect="always">
      <stop
         style="stop-color:#57392d;stop-opacity:1;"
         offset="0"
         id="stop9" />
      <stop
         style="stop-color:#715344;stop-opacity:1;"
         offset="1"
         id="stop10" />
    </linearGradient>
    <linearGradient
       id="linearGradient39"
       inkscape:collect="always">
      <stop
         style="stop-color:#ffffff;stop-opacity:1;"
         offset="0"
         id="stop36" />
      <stop
         style="stop-color:#ffffff;stop-opacity:0.25;"
         offset="0.078125"
         id="stop37" />
      <stop
         style="stop-color:#ffffff;stop-opacity:0.25;"
         offset="0.87837839"
         id="stop38" />
      <stop
         style="stop-color:#ffffff;stop-opacity:0.5;"
         offset="1"
         id="stop39" />
    </linearGradient>
    <linearGradient
       id="linearGradient3"
       inkscape:collect="always">
      <stop
         style="stop-color:#ffffff;stop-opacity:1;"
         offset="0"
         id="stop3" />
      <stop
         style="stop-color:#ffffff;stop-opacity:0.25;"
         offset="0.12162162"
         id="stop7" />
      <stop
         style="stop-color:#ffffff;stop-opacity:0.25;"
         offset="0.87837839"
         id="stop8" />
      <stop
         style="stop-color:#ffffff;stop-opacity:0.5;"
         offset="1"
         id="stop4" />
    </linearGradient>
    <inkscape:path-effect
       effect="fillet_chamfer"
       id="path-effect3"
       is_visible="true"
       lpeversion="1"
       nodesatellites_param="F,0,0,1,0,0,0,1 @ F,0,0,1,0,15,0,1 @ F,0,0,1,0,13.038405,0,1 @ F,0,0,1,0,0,0,1"
       radius="0"
       unit="px"
       method="auto"
       mode="F"
       chamfer_steps="1"
       flexible="false"
       use_knot_distance="true"
       apply_no_radius="true"
       apply_with_radius="true"
       only_selected="false"
       hide_knots="false" />
    <linearGradient
       id="linearGradient1"
       inkscape:collect="always">
      <stop
         style="stop-color:#cfa25e;stop-opacity:1;"
         offset="0"
         id="stop1" />
      <stop
         style="stop-color:#e7c591;stop-opacity:1;"
         offset="1"
         id="stop2" />
    </linearGradient>
    <linearGradient
       id="linearGradient5"
       inkscape:collect="always">
      <stop
         style="stop-color:#cfa25e;stop-opacity:1;"
         offset="0"
         id="stop5" />
      <stop
         style="stop-color:#b6802e;stop-opacity:1;"
         offset="1"
         id="stop6" />
    </linearGradient>
    <inkscape:path-effect
       effect="fillet_chamfer"
       id="path-effect16"
       is_visible="true"
       lpeversion="1"
       nodesatellites_param="F,0,0,1,0,0,0,1 @ F,0,0,1,0,4.1230503,0,1 @ F,0,0,1,0,0,0,1"
       radius="0"
       unit="px"
       method="auto"
       mode="F"
       chamfer_steps="1"
       flexible="false"
       use_knot_distance="true"
       apply_no_radius="true"
       apply_with_radius="true"
       only_selected="false"
       hide_knots="false" />
    <inkscape:path-effect
       effect="fillet_chamfer"
       id="path-effect14"
       is_visible="true"
       lpeversion="1"
       nodesatellites_param="F,0,0,1,0,0,0,1 @ F,0,0,1,0,4.1230503,0,1 @ F,0,0,1,0,0,0,1"
       radius="0"
       unit="px"
       method="auto"
       mode="F"
       chamfer_steps="1"
       flexible="false"
       use_knot_distance="true"
       apply_no_radius="true"
       apply_with_radius="true"
       only_selected="false"
       hide_knots="false" />
    <inkscape:path-effect
       effect="fillet_chamfer"
       id="path-effect10"
       is_visible="true"
       lpeversion="1"
       nodesatellites_param="F,0,0,1,0,0,0,1 @ F,0,0,1,0,15,0,1 @ F,0,0,1,0,13.038405,0,1 @ F,0,0,1,0,0,0,1"
       radius="0"
       unit="px"
       method="auto"
       mode="F"
       chamfer_steps="1"
       flexible="false"
       use_knot_distance="true"
       apply_no_radius="true"
       apply_with_radius="true"
       only_selected="false"
       hide_knots="false" />
    <inkscape:path-effect
       effect="fillet_chamfer"
       id="path-effect8"
       is_visible="true"
       lpeversion="1"
       nodesatellites_param="F,0,0,1,0,0,0,1 @ F,0,0,1,0,15,0,1 @ F,0,0,1,0,13.038405,0,1 @ F,0,0,1,0,0,0,1"
       radius="0"
       unit="px"
       method="auto"
       mode="F"
       chamfer_steps="1"
       flexible="false"
       use_knot_distance="true"
       apply_no_radius="true"
       apply_with_radius="true"
       only_selected="false"
       hide_knots="false" />
    <linearGradient
       id="linearGradient1201">
      <stop
         id="stop1193"
         style="stop-color:#ffffff;stop-opacity:1"
         offset="0" />
      <stop
         id="stop1195"
         style="stop-color:#ffffff;stop-opacity:0.23529412"
         offset="0.06781636" />
      <stop
         id="stop1197"
         style="stop-color:#ffffff;stop-opacity:0.15686275"
         offset="0.94694352" />
      <stop
         id="stop1199"
         style="stop-color:#ffffff;stop-opacity:0.39215687"
         offset="1" />
    </linearGradient>
    <linearGradient
       id="linearGradient3688-166-749">
      <stop
         id="stop2883"
         style="stop-color:#181818;stop-opacity:1"
         offset="0" />
      <stop
         id="stop2885"
         style="stop-color:#181818;stop-opacity:0"
         offset="1" />
    </linearGradient>
    <linearGradient
       id="linearGradient3702-501-757">
      <stop
         id="stop2895"
         style="stop-color:#181818;stop-opacity:0"
         offset="0" />
      <stop
         id="stop2897"
         style="stop-color:#181818;stop-opacity:1"
         offset="0.5" />
      <stop
         id="stop2899"
         style="stop-color:#181818;stop-opacity:0"
         offset="1" />
    </linearGradient>
    <radialGradient
       cx="4.9929786"
       cy="43.5"
       r="2.5"
       fx="4.9929786"
       fy="43.5"
       id="radialGradient3013-6"
       xlink:href="#linearGradient3688-166-749"
       gradientUnits="userSpaceOnUse"
       gradientTransform="matrix(2.003784,0,0,0.89999994,29.98813,4.8500025)" />
    <radialGradient
       cx="4.9929786"
       cy="43.5"
       r="2.5"
       fx="4.9929786"
       fy="43.5"
       id="radialGradient3015-1"
       xlink:href="#linearGradient3688-166-749"
       gradientUnits="userSpaceOnUse"
       gradientTransform="matrix(2.003784,0,0,0.89999994,-18.01187,-83.149997)" />
    <linearGradient
       x1="38.999996"
       y1="5.9999938"
       x2="38.999996"
       y2="41.945408"
       id="linearGradient3058-5"
       xlink:href="#linearGradient1201"
       gradientUnits="userSpaceOnUse"
       gradientTransform="translate(4e-6,1.0000062)" />
    <linearGradient
       xlink:href="#linearGradient3702-501-757"
       id="linearGradient1191"
       gradientUnits="userSpaceOnUse"
       x1="25.058096"
       y1="47.027729"
       x2="25.058096"
       y2="39.999443"
       gradientTransform="matrix(1.1428571,0,0,0.6428571,-3.428569,16.035716)" />
    <linearGradient
       xlink:href="#linearGradient870"
       id="linearGradient930-9-2"
       x1="16.767664"
       y1="2.7676599"
       x2="16.767664"
       y2="29.896721"
       gradientUnits="userSpaceOnUse"
       gradientTransform="matrix(1.444444,0,0,1.444444,0.888913,1.888891)" />
    <linearGradient
       id="linearGradient870">
      <stop
         id="stop866"
         offset="0"
         style="stop-color:#cd9ef7;stop-opacity:1" />
      <stop
         id="stop868"
         offset="1"
         style="stop-color:#a56de2;stop-opacity:1" />
    </linearGradient>
    <linearGradient
       inkscape:collect="always"
       xlink:href="#linearGradient5"
       id="linearGradient6"
       x1="25"
       y1="7"
       x2="25"
       y2="34"
       gradientUnits="userSpaceOnUse" />
    <linearGradient
       inkscape:collect="always"
       xlink:href="#linearGradient5"
       id="linearGradient8"
       x1="11"
       y1="7"
       x2="11"
       y2="33"
       gradientUnits="userSpaceOnUse" />
    <linearGradient
       inkscape:collect="always"
       xlink:href="#linearGradient1"
       id="linearGradient2"
       x1="18.5"
       y1="32.5"
       x2="18.5"
       y2="44"
       gradientUnits="userSpaceOnUse" />
    <linearGradient
       inkscape:collect="always"
       xlink:href="#linearGradient3"
       id="linearGradient4"
       x1="18"
       y1="7"
       x2="18"
       y2="44"
       gradientUnits="userSpaceOnUse" />
    <linearGradient
       inkscape:collect="always"
       xlink:href="#linearGradient3"
       id="linearGradient11"
       x1="23"
       y1="8"
       x2="23"
       y2="44"
       gradientUnits="userSpaceOnUse" />
    <linearGradient
       inkscape:collect="always"
       xlink:href="#linearGradient3"
       id="linearGradient14"
       x1="18"
       y1="8"
       x2="18"
       y2="44"
       gradientUnits="userSpaceOnUse" />
    <linearGradient
       inkscape:collect="always"
       xlink:href="#linearGradient39"
       id="linearGradient36"
       x1="38"
       y1="12"
       x2="38"
       y2="44"
       gradientUnits="userSpaceOnUse" />
    <linearGradient
       inkscape:collect="always"
       xlink:href="#linearGradient7"
       id="linearGradient10"
       x1="18.36993"
       y1="33"
       x2="18.36993"
       y2="43"
       gradientUnits="userSpaceOnUse" />
    <linearGradient
       inkscape:collect="always"
       xlink:href="#linearGradient17"
       id="linearGradient18"
       x1="19.5"
       y1="5"
       x2="19.5"
       y2="8"
       gradientUnits="userSpaceOnUse" />
    <linearGradient
       inkscape:collect="always"
       xlink:href="#linearGradient17"
       id="linearGradient20"
       x1="28.5"
       y1="4.5"
       x2="28.5"
       y2="8"
       gradientUnits="userSpaceOnUse" />
    <linearGradient
       inkscape:collect="always"
       xlink:href="#linearGradient25"
       id="linearGradient22"
       x1="23"
       y1="6"
       x2="23"
       y2="44.994877"
       gradientUnits="userSpaceOnUse" />
  </defs>
  <metadata
     id="metadata6654">
    <rdf:RDF>
      <cc:Work
         rdf:about="">
        <dc:format>image/svg+xml</dc:format>
        <dc:type
           rdf:resource="http://purl.org/dc/dcmitype/StillImage" />
      </cc:Work>
    </rdf:RDF>
  </metadata>
  <path
     id="path16"
     style="baseline-shift:baseline;display:inline;overflow:visible;fill:none;stroke:#3d211b;stroke-width:1;stroke-linejoin:round;stroke-dasharray:none;stroke-opacity:0.3;enable-background:accumulate;stop-color:#000000"
     d="M 22.386718,4.4453125 C 21.31482,4.4062215 19.907377,4.4613614 18.359375,4.6152344 16.811372,4.7691073 15.422134,4.9928518 14.378906,5.2421875 13.857292,5.3668555 13.426158,5.4910698 13.060547,5.6503906 12.877741,5.7300516 12.710935,5.8094721 12.521484,5.9648438 12.332035,6.1202154 12.01033,6.4555033 12.064453,7 c 0.05412,0.5444969 0.434061,0.8068382 0.65039,0.921875 0.21633,0.1150369 0.396886,0.1610098 0.591797,0.203125 0.38982,0.08423 0.837099,0.1230329 1.373047,0.1425781 1.071898,0.03909 2.477388,-0.014096 4.025391,-0.1679687 C 20.25308,7.9457366 21.644272,7.7200389 22.6875,7.4707031 23.209115,7.346035 23.638294,7.2218209 24.003906,7.0625 c 0.179133,-0.078061 0.344495,-0.1573391 0.529297,-0.3066406 0.184801,0.1493015 0.34821,0.22858 0.527344,0.3066406 0.365611,0.1593209 0.794791,0.283535 1.316406,0.4082031 1.043228,0.2493358 2.43442,0.4750335 3.982422,0.6289063 1.548003,0.1538724 2.955445,0.2070587 4.027343,0.1679687 C 34.922666,8.2480331 35.367992,8.2092301 35.757812,8.125 35.952723,8.082885 36.133279,8.036912 36.349609,7.921875 36.565938,7.8068382 36.94588,7.5444969 37,7 37.054123,6.4555033 36.734371,6.1202154 36.544921,5.9648438 36.355471,5.8094721 36.186712,5.7300516 36.003906,5.6503906 35.638295,5.4910698 35.209114,5.3668555 34.6875,5.2421875 33.644272,4.9928518 32.253081,4.7691073 30.705078,4.6152344 29.157076,4.4613614 27.749632,4.4062215 26.677734,4.4453125 c -0.535949,0.019545 -0.981273,0.058348 -1.371094,0.1425781 -0.19491,0.042115 -0.375468,0.086135 -0.591797,0.2011719 -0.05347,0.028435 -0.115484,0.066521 -0.18164,0.1152344 C 24.467046,4.8555839 24.403082,4.8174978 24.349609,4.7890625 24.13328,4.6740257 23.952722,4.6300058 23.757812,4.5878906 23.367991,4.5036606 22.922667,4.4648576 22.386718,4.4453125 Z" />
  <path
     style="fill:url(#linearGradient10);fill-opacity:1;stroke:#57392d;stroke-linecap:round;stroke-linejoin:round;stroke-opacity:0.3"
     d="m 34.5,32.5 a 30.825427,30.825427 155.37644 0 1 -24,11 7.1468635,7.1468635 61.38954 0 1 -6,-11 z"
     id="path8"
     sodipodi:nodetypes="ccccc"
     inkscape:path-effect="#path-effect10"
     inkscape:original-d="m 34.5,32.5 -9,11 h -28 l 7,-11 z"
     transform="matrix(-1,0,0,1,47.869931,2)" />
  <path
     style="baseline-shift:baseline;display:inline;overflow:visible;vector-effect:none;fill:url(#linearGradient20);stroke-linejoin:round;enable-background:accumulate;stop-color:#000000"
     d="m 30.528253,4.67077 c 1.548003,0.1538729 2.937876,0.3760314 3.981104,0.6253671 0.521614,0.124668 0.95189,0.2503505 1.317501,0.4096713 0.182806,0.079661 0.350428,0.1593385 0.539879,0.3147101 0.189449,0.1553717 0.510665,0.4901101 0.456542,1.0346068 -0.05412,0.5444969 -0.434756,0.8075082 -0.651085,0.922545 -0.21633,0.1150369 -0.396356,0.1601582 -0.591267,0.2022734 -0.38982,0.08423 -0.836419,0.1227508 -1.372367,0.142296 -1.071898,0.03909 -2.478501,-0.014761 -4.026504,-0.1686334 C 28.634054,7.9997335 27.242431,7.7754384 26.199203,7.5261026 25.677588,7.4014345 25.249256,7.2759453 24.883644,7.1166244 24.700839,7.0369639 24.533218,6.957286 24.343767,6.8019143 24.154316,6.6465426 23.832907,6.3137477 23.88703,5.7692509 23.94115,5.2247541 24.32198,4.9597993 24.53831,4.8447625 24.754639,4.7297257 24.934666,4.6846043 25.129576,4.6424891 25.519397,4.5582591 25.964051,4.5195451 26.5,4.5 c 1.071898,-0.039091 2.480251,0.016897 4.028253,0.17077 z"
     id="path14" />
  <path
     id="rect1"
     style="fill:url(#linearGradient6);stroke:#804b00;stroke-linecap:round;stroke-linejoin:round;stroke-opacity:0.3"
     d="M 10.96289,35.505133 16,35.5 l 17.5,-1 h 10 V 13.488281 C 43.5,6.9419974 28.144123,6.5 24,6.5 v 0 c -0.09767,0 -0.201588,2.455e-4 -0.311396,8.109e-4 L 15,9 c -2.5,0.5 -4,2.5 -4.013515,5 z"
     sodipodi:nodetypes="ccccssscccc" />
  <path
     id="path9"
     style="fill:none;stroke:url(#linearGradient11);stroke-linecap:round;stroke-linejoin:round;stroke-opacity:1;opacity:0.5"
     d="m 23.789062,7.5136719 c -3.326432,1.0152937 -6.736742,1.7909206 -9.994658,3.0105051 -1.597563,0.978964 -2.008285,3.037828 -1.808237,4.777385 L 12,33.5 l 30.496098,-0.0059 -0.07532,-20.60085 C 41.891649,10.875856 39.761076,9.9384236 37.961554,9.32681 33.400899,7.7809965 28.540756,7.5808013 23.789062,7.5136719 Z"
     sodipodi:nodetypes="cccccccc" />
  <path
     id="path5"
     style="fill:url(#linearGradient8);fill-opacity:1;stroke:#804b00;stroke-linecap:round;stroke-linejoin:round;stroke-opacity:0.3"
     d="M 23.684483,6.5008323 C 19.134484,6.5245603 4.5,7.0976133 4.5,13.488281 v 22.023438 l 6.46289,-0.0066 C 11.144908,29.937247 10.986485,14 10.986485,14 11,11.5 12.5,9.5 15,9 15,9 19.400826,7.7018083 23.684483,6.5008323 Z"
     sodipodi:nodetypes="csccccc" />
  <path
     id="path4"
     style="fill:none;fill-opacity:1;stroke:#804b00;stroke-linecap:round;stroke-linejoin:round;stroke-opacity:0.3"
     d="M 23.688604 6.5008109 L 23.684483 6.5008323 " />
  <path
     style="fill:url(#linearGradient2);fill-opacity:1;stroke:#804b00;stroke-linecap:round;stroke-linejoin:round;stroke-opacity:0.3"
     d="m 34.5,32.5 a 30.825427,30.825427 155.37644 0 1 -24,11 7.1468635,7.1468635 61.38954 0 1 -6,-11 z"
     id="path7"
     sodipodi:nodetypes="ccccc"
     inkscape:path-effect="#path-effect8"
     inkscape:original-d="m 34.5,32.5 -9,11 h -28 l 7,-11 z"
     transform="translate(0,2)" />
  <rect
     style="opacity:0.15;fill:#000000;fill-opacity:1;stroke:none;stroke-linecap:round;stroke-linejoin:round;stroke-opacity:1"
     id="rect8"
     width="13.999985"
     height="25.000004"
     x="29.500015"
     y="9.4999952"
     rx="4"
     ry="3.9887762" />
  <path
     id="path17"
     style="opacity:1;fill:#000000;stroke:none;stroke-width:2.78788;stroke-linejoin:round;fill-opacity:0.15000001"
     d="M 25.892578,7.5 A 12.10794,5.9076595 0 0 0 24.248047,7.5546875 12.979834,6.1576595 0 0 1 35.425781,13 h 2.544922 A 12.10794,5.9076595 0 0 0 25.892578,7.5 Z" />
  <path
     id="path15"
     style="opacity:1;fill:#57392d;stroke:none;stroke-width:2.78788;stroke-linejoin:round"
     d="M 25.892578 6.5 A 12.10794 5.9076595 0 0 0 24.248047 6.5546875 A 12.979834 6.1576595 0 0 1 35.425781 12 L 37.970703 12 A 12.10794 5.9076595 0 0 0 25.892578 6.5 z " />
  <rect
     style="fill:#cfa25e;fill-opacity:1;stroke:#804b00;stroke-linecap:round;stroke-linejoin:round;stroke-opacity:0.3"
     id="rect4"
     width="13.999985"
     height="25.000004"
     x="30.500015"
     y="10.499995"
     rx="4"
     ry="3.9887762" />
  <path
     id="path2"
     style="fill:none;fill-opacity:1;stroke:url(#linearGradient4);stroke-linecap:round;stroke-linejoin:round;stroke-opacity:1"
     d="m 26.121094,35.5 c -7.001302,0.0032 -14.002604,7.55e-4 -21.0039065,0 -1.460269,2.556136 -0.6259291,6.065437 1.7578058,7.767274 1.7917755,1.476883 4.3208887,1.264071 6.4218817,1.121398 4.147479,-0.360586 8.116325,-1.512331 11.778919,-3.50677 2.677842,-1.444285 5.04611,-3.242822 7.16444,-5.397527 -2.039713,0.0052 -4.079427,0.01042 -6.11914,0.01563 z" />
  <path
     id="path13"
     style="fill:none;fill-opacity:1;stroke:url(#linearGradient14);stroke-linecap:round;stroke-linejoin:round;stroke-opacity:1;opacity:0.5"
     d="M 13.205078,8.4472656 C 11.0643,8.9064341 8.9890339,9.4997385 7.1347656,10.716797 6.0490942,11.470067 5.2914039,12.754053 5.5,14.104688 V 33.5 l 4.4804688,-0.0059 0.060316,-20.364994 c 0.225493,-2.074002 1.649341,-3.9731151 3.582262,-4.7619585 l -0.417969,0.080078 z"
     sodipodi:nodetypes="ccccccccc" />
  <rect
     style="fill:none;fill-opacity:1;stroke:url(#linearGradient36);stroke-linecap:round;stroke-linejoin:round;stroke-opacity:1;opacity:0.5"
     id="rect35"
     width="12"
     height="23"
     x="31.5"
     y="11.5"
     rx="3"
     ry="3" />
  <path
     style="baseline-shift:baseline;display:inline;overflow:visible;vector-effect:none;fill:#000000;stroke-linejoin:round;enable-background:accumulate;stop-color:#000000;fill-opacity:1;opacity:0.15"
     d="m 18.471747,5.67077 c -1.548003,0.1538729 -2.937876,0.3760314 -3.981104,0.6253671 -0.521614,0.124668 -0.95189,0.2503505 -1.317501,0.4096713 -0.182806,0.079661 -0.350428,0.1593385 -0.539879,0.3147101 -0.189449,0.1553717 -0.510665,0.4901101 -0.456542,1.0346068 0.05412,0.5444969 0.434756,0.8075082 0.651085,0.922545 0.21633,0.1150369 0.396356,0.1601582 0.591267,0.2022734 0.38982,0.08423 0.836419,0.1227508 1.372367,0.142296 1.071898,0.03909 2.478501,-0.014761 4.026504,-0.1686334 1.548002,-0.1538728 2.939625,-0.3781679 3.982853,-0.6275037 0.521615,-0.1246681 0.949947,-0.2501573 1.315559,-0.4094782 0.182805,-0.07966 0.350426,-0.1593384 0.539877,-0.3147101 C 24.845684,7.6465426 25.167093,7.3137477 25.11297,6.7692509 25.058846,6.2247541 24.67802,5.9597993 24.46169,5.8447625 24.245361,5.7297257 24.065334,5.6846043 23.870424,5.6424891 23.480603,5.5582591 23.035949,5.5195451 22.5,5.5 21.428102,5.460909 20.019749,5.516897 18.471747,5.67077 Z"
     id="path1" />
  <path
     style="baseline-shift:baseline;display:inline;overflow:visible;vector-effect:none;fill:url(#linearGradient18);stroke-linejoin:round;enable-background:accumulate;stop-color:#000000"
     d="m 18.471747,4.67077 c -1.548003,0.1538729 -2.937876,0.3760314 -3.981104,0.6253671 -0.521614,0.124668 -0.95189,0.2503505 -1.317501,0.4096713 -0.182806,0.079661 -0.350428,0.1593385 -0.539879,0.3147101 -0.189449,0.1553717 -0.510665,0.4901101 -0.456542,1.0346068 0.05412,0.5444969 0.434756,0.8075082 0.651085,0.922545 0.21633,0.1150369 0.396356,0.1601582 0.591267,0.2022734 0.38982,0.08423 0.836419,0.1227508 1.372367,0.142296 1.071898,0.03909 2.478501,-0.014761 4.026504,-0.1686334 C 20.365946,7.9997335 21.757569,7.7754384 22.800797,7.5261026 23.322412,7.4014345 23.750744,7.2759453 24.116356,7.1166244 24.299161,7.0369639 24.466782,6.957286 24.656233,6.8019143 24.845684,6.6465426 25.167093,6.3137477 25.11297,5.7692509 25.058846,5.2247541 24.67802,4.9597993 24.46169,4.8447625 24.245361,4.7297257 24.065334,4.6846043 23.870424,4.6424891 23.480603,4.5582591 23.035949,4.5195451 22.5,4.5 21.428102,4.460909 20.019749,4.516897 18.471747,4.67077 Z"
     id="path12" />
  <path
     id="path20"
     style="baseline-shift:baseline;display:inline;overflow:visible;fill:none;stroke:url(#linearGradient22);stroke-width:1;stroke-linejoin:round;stroke-dasharray:none;stroke-opacity:1;enable-background:accumulate;stop-color:#000000;opacity:0.2"
     d="m 22.195312,5.4414062 c -2.750917,0.063847 -5.414336,0.1631819 -8.08769,0.9437616 -0.27563,0.2105337 -0.988428,0.094013 -1.013872,0.5308478 0.143751,0.2892837 0.667348,0.1819908 0.940599,0.2907858 1.704063,0.1784704 3.424319,-0.052492 5.09198,-0.158728 1.780668,-0.1538122 3.520623,-0.6064368 5.221327,-1.1164328 1.353127,0.1299477 2.582032,0.768205 3.946092,0.8730555 2.459223,0.4139472 4.982361,0.6128994 7.464064,0.2988195 0.275508,-0.090128 0.31879,-0.3800294 -0.002,-0.4355468 C 34.530597,6.066583 33.122113,6.0224568 31.800781,5.7578125 29.493077,5.4489079 27.117929,5.2676369 24.789062,5.734375 23.907966,5.7912889 23.071939,5.399504 22.195312,5.4414062 Z" />
</svg>
