<?xml version="1.0" encoding="UTF-8"?>
<svg xmlns="http://www.w3.org/2000/svg" xmlns:xlink="http://www.w3.org/1999/xlink" width="64px" height="64px" viewBox="0 0 64 64" version="1.1">
<defs>
<filter id="alpha" filterUnits="objectBoundingBox" x="0%" y="0%" width="100%" height="100%">
  <feColorMatrix type="matrix" in="SourceGraphic" values="0 0 0 0 1 0 0 0 0 1 0 0 0 0 1 0 0 0 1 0"/>
</filter>
<mask id="mask0">
  <g filter="url(#alpha)">
<rect x="0" y="0" width="64" height="64" style="fill:rgb(0%,0%,0%);fill-opacity:0.901961;stroke:none;"/>
  </g>
</mask>
<clipPath id="clip1">
  <rect x="0" y="0" width="64" height="64"/>
</clipPath>
<g id="surface5" clip-path="url(#clip1)">
<path style="fill-rule:nonzero;fill:rgb(88.627451%,92.156863%,92.941176%);fill-opacity:1;stroke-width:1;stroke-linecap:butt;stroke-linejoin:miter;stroke:rgb(85.490196%,91.372549%,92.941176%);stroke-opacity:1;stroke-miterlimit:10;" d="M 144.140625 112.145996 C 143.286133 112.084961 142.504883 111.608887 142.06543 110.864258 C 141.650391 110.119629 141.137695 109.423828 140.551758 108.80127 C 136.291504 104.443359 129.467773 103.881836 124.54834 107.48291 C 123.864746 108.007812 123.242188 108.605957 122.705078 109.277344 C 121.813965 110.290527 120.3125 110.498047 119.189453 109.765625 C 118.652344 109.448242 118.286133 108.911133 118.164062 108.300781 C 118.054199 107.702637 118.212891 107.067871 118.591309 106.57959 C 119.372559 105.615234 120.263672 104.736328 121.264648 103.991699 C 128.356934 98.803711 138.195801 99.609375 144.335938 105.895996 C 145.202637 106.799316 145.935059 107.8125 146.54541 108.898926 C 146.838379 109.436035 146.875 110.083008 146.655273 110.644531 C 146.447754 111.218262 145.996094 111.682129 145.43457 111.901855 C 145.031738 112.084961 144.580078 112.17041 144.140625 112.145996 Z M 144.140625 112.145996 " transform="matrix(0.32,0,0,0.32,0,0)"/>
</g>
<mask id="mask1">
  <g filter="url(#alpha)">
<rect x="0" y="0" width="64" height="64" style="fill:rgb(0%,0%,0%);fill-opacity:0.8;stroke:none;"/>
  </g>
</mask>
<clipPath id="clip2">
  <rect x="0" y="0" width="64" height="64"/>
</clipPath>
<g id="surface8" clip-path="url(#clip2)">
<path style=" stroke:none;fill-rule:nonzero;fill:rgb(59.215686%,81.176471%,90.980392%);fill-opacity:1;" d="M 50.359375 38.289062 C 50.359375 42.757812 46.734375 46.378906 42.265625 46.378906 C 37.796875 46.378906 34.171875 42.757812 34.171875 38.289062 C 34.171875 33.820312 37.796875 30.195312 42.265625 30.195312 C 46.734375 30.195312 50.359375 33.820312 50.359375 38.289062 Z M 50.359375 38.289062 "/>
</g>
</defs>
<g id="surface1">
<path style=" stroke:none;fill-rule:nonzero;fill:rgb(30.980392%,26.27451%,21.960784%);fill-opacity:1;" d="M 34.921875 48.804688 C 34.535156 48.140625 33.894531 47.65625 33.144531 47.46875 C 32.445312 47.304688 31.722656 47.28125 31.015625 47.394531 C 31.40625 49.507812 33.292969 50.914062 35.238281 50.5625 C 37.183594 50.210938 38.4375 48.179688 38.078125 46.0625 C 37.375 46.21875 36.707031 46.503906 36.113281 46.910156 C 35.476562 47.355469 35.046875 48.039062 34.921875 48.804688 Z M 34.921875 48.804688 "/>
<path style=" stroke:none;fill-rule:nonzero;fill:rgb(29.803922%,3.137255%,3.137255%);fill-opacity:1;" d="M 34.546875 46.722656 L 34.542969 46.722656 L 34.609375 47.070312 Z M 34.546875 46.722656 "/>
<path style=" stroke:none;fill-rule:nonzero;fill:rgb(39.607843%,44.313725%,48.627451%);fill-opacity:1;" d="M 7.097656 15.457031 L 3.726562 15.8125 C 2.945312 15.996094 2.457031 16.769531 2.628906 17.550781 L 8.988281 52.773438 C 9.042969 53.152344 9.242188 53.496094 9.546875 53.726562 C 9.851562 53.953125 10.234375 54.054688 10.613281 54 L 30.167969 51.144531 C 30.59375 51.078125 31.027344 51.222656 31.324219 51.535156 C 32.507812 52.570312 34.109375 52.980469 35.640625 52.644531 C 37.199219 52.394531 38.546875 51.429688 39.28125 50.035156 C 39.457031 49.632812 39.816406 49.339844 40.242188 49.246094 L 59.484375 44.800781 C 60.238281 44.660156 60.726562 43.882812 60.539062 42.839844 L 54.179688 7.605469 C 53.988281 6.90625 53.292969 6.46875 52.578125 6.605469 L 49.445312 7.472656 L 50.34375 8.871094 L 50.539062 9.511719 L 56.433594 41.191406 "/>
<path style=" stroke:none;fill-rule:nonzero;fill:rgb(27.843137%,31.372549%,33.72549%);fill-opacity:1;" d="M 38.191406 45.804688 L 38.0625 45.835938 C 38.4375 47.953125 37.175781 49.96875 35.222656 50.335938 C 33.269531 50.703125 31.382812 49.28125 31 47.167969 C 30.957031 47.167969 30.910156 47.167969 30.871094 47.1875 "/>
<path style=" stroke:none;fill-rule:nonzero;fill:rgb(78.823529%,76.470588%,75.686275%);fill-opacity:1;" d="M 12.363281 50.203125 L 14.308594 46.339844 L 8.046875 11.65625 L 7.003906 15.804688 L 6.652344 17.703125 L 6.605469 18.308594 Z M 12.363281 50.203125 "/>
<path style=" stroke:none;fill-rule:nonzero;fill:rgb(62.745098%,60%,57.647059%);fill-opacity:1;" d="M 34.488281 46.398438 L 34.363281 45.730469 C 34.40625 45.945312 34.507812 46.511719 34.542969 46.71875 L 34.488281 46.398438 L 39.101562 45.761719 L 38.203125 46.050781 C 44.171875 44.105469 50.316406 42.75 56.550781 41.996094 C 55.320312 41.210938 54.355469 40.078125 53.351562 38.996094 L 53.351562 39.023438 C 27.777344 44.480469 38.910156 55.941406 29.273438 11.09375 C 28.3125 11.816406 28.3125 11.949219 27.070312 11.511719 C 33.636719 56.832031 40.097656 42.195312 14.3125 46.363281 L 14.3125 46.34375 C 14.1875 46.605469 12.308594 50.183594 12.316406 50.328125 L 12.367188 50.203125 L 12.316406 50.328125 C 14.808594 49.519531 17.351562 48.890625 19.929688 48.4375 C 23.550781 47.824219 27.214844 47.484375 30.886719 47.414062 "/>
<path style=" stroke:none;fill-rule:nonzero;fill:rgb(78.823529%,76.470588%,75.686275%);fill-opacity:1;" d="M 50.773438 9.980469 L 50.515625 9.125 L 49.539062 7.851562 L 47.101562 4.289062 L 47.097656 4.292969 L 53.363281 38.980469 L 55.210938 40.988281 L 56.550781 41.980469 "/>
<path style=" stroke:none;fill-rule:nonzero;fill:rgb(62.745098%,60%,57.647059%);fill-opacity:1;" d="M 38.71875 45.808594 L 34.488281 46.398438 L 34.546875 46.71875 L 34.609375 47.070312 L 34.558594 46.71875 L 34.503906 46.398438 L 34.378906 45.730469 L 34.503906 46.398438 L 30.851562 47.359375 L 30.875 47.425781 L 31.003906 47.40625 C 31.714844 47.289062 32.4375 47.316406 33.136719 47.476562 C 33.882812 47.664062 34.523438 48.148438 34.910156 48.816406 C 35.039062 48.050781 35.46875 47.367188 36.101562 46.917969 C 36.703125 46.515625 37.375 46.230469 38.078125 46.078125 L 38.207031 46.050781 Z M 38.71875 45.808594 "/>
<path style=" stroke:none;fill-rule:nonzero;fill:rgb(62.745098%,60%,57.647059%);fill-opacity:1;" d="M 53.363281 38.980469 L 47.097656 4.296875 C 40.875 5.648438 34.007812 7.359375 28.839844 11.417969 L 28.90625 11.417969 L 34.695312 43.476562 C 35.46875 47.28125 38.410156 43.796875 40.175781 43.257812 C 44.089844 41.175781 49.152344 40.277344 53.367188 39.015625 Z M 53.363281 38.980469 "/>
<path style=" stroke:none;fill-rule:nonzero;fill:rgb(94.901961%,93.72549%,92.941176%);fill-opacity:1;" d="M 53.367188 39.011719 L 47.171875 4.703125 C 40.960938 6.050781 34.160156 7.703125 28.988281 11.722656 L 28.988281 11.773438 L 34.71875 43.488281 C 35.480469 47.246094 38.425781 43.785156 40.191406 43.257812 C 44.109375 41.191406 49.175781 40.292969 53.390625 39.035156 Z M 53.367188 39.011719 "/>
<path style=" stroke:none;fill-rule:nonzero;fill:rgb(60%,62.352941%,63.921569%);fill-opacity:1;" d="M 44.726562 14.003906 C 41.289062 14.613281 37.941406 15.65625 34.765625 17.101562 C 34.269531 17.320312 33.316406 18.132812 33.027344 17.285156 L 32.882812 16.488281 C 32.84375 15.800781 34.148438 15.273438 34.664062 15.089844 C 39.390625 13.390625 41.027344 12.964844 44.367188 12.257812 C 44.628906 12.203125 44.886719 12.363281 44.953125 12.621094 C 45.09375 13.074219 45.371094 13.863281 44.726562 14.003906 Z M 44.726562 14.003906 "/>
<path style=" stroke:none;fill-rule:nonzero;fill:rgb(60%,62.352941%,63.921569%);fill-opacity:1;" d="M 45.65625 18.738281 C 42.617188 19.4375 39.367188 20.183594 36.519531 21.460938 C 35.863281 21.742188 35.214844 22.039062 34.582031 22.359375 C 34.449219 22.433594 34.289062 22.4375 34.152344 22.375 C 34.015625 22.3125 33.914062 22.1875 33.886719 22.039062 L 33.742188 21.246094 C 33.707031 21.039062 33.8125 20.835938 34 20.742188 C 34.597656 20.421875 35.210938 20.148438 35.832031 19.871094 C 38.78125 18.519531 42.0625 17.707031 45.230469 17.027344 C 45.515625 16.988281 45.78125 17.179688 45.828125 17.460938 C 45.914062 17.898438 46.191406 18.558594 45.65625 18.738281 Z M 45.65625 18.738281 "/>
<path style=" stroke:none;fill-rule:nonzero;fill:rgb(60%,62.352941%,63.921569%);fill-opacity:1;" d="M 46.617188 23.445312 C 42.851562 24.335938 38.847656 25.296875 35.441406 27.105469 C 35.308594 27.179688 35.148438 27.183594 35.011719 27.121094 C 34.875 27.058594 34.773438 26.933594 34.742188 26.789062 L 34.597656 25.996094 C 34.566406 25.792969 34.671875 25.589844 34.859375 25.496094 C 38.34375 23.679688 42.238281 22.59375 46.078125 21.789062 C 46.363281 21.753906 46.621094 21.945312 46.675781 22.222656 C 46.761719 22.59375 47.015625 23.230469 46.617188 23.445312 Z M 46.617188 23.445312 "/>
<path style=" stroke:none;fill-rule:nonzero;fill:rgb(60%,62.352941%,63.921569%);fill-opacity:1;" d="M 47.511719 28.160156 C 45.328125 28.839844 42.804688 29.191406 40.65625 30.027344 C 39.164062 30.542969 37.707031 31.15625 36.296875 31.863281 C 36.164062 31.925781 36.007812 31.929688 35.875 31.867188 C 35.738281 31.804688 35.640625 31.6875 35.601562 31.542969 C 35.574219 31.175781 35.238281 30.460938 35.71875 30.261719 C 38.4375 28.878906 41.316406 27.835938 44.292969 27.15625 L 45.570312 26.863281 L 46.871094 26.5625 C 47.015625 26.519531 47.171875 26.542969 47.300781 26.625 C 47.429688 26.703125 47.515625 26.835938 47.539062 26.984375 C 47.617188 27.328125 47.863281 27.9375 47.511719 28.160156 Z M 47.511719 28.160156 "/>
<path style=" stroke:none;fill-rule:nonzero;fill:rgb(62.745098%,60%,57.647059%);fill-opacity:1;" d="M 27.566406 11.660156 C 21.328125 9.757812 14.335938 10.648438 8.046875 11.660156 L 14.3125 46.351562 L 14.3125 46.371094 C 18.691406 46.015625 23.734375 45.011719 28.117188 45.53125 C 29.957031 45.378906 33.921875 47.566406 33.316406 43.738281 "/>
<path style=" stroke:none;fill-rule:nonzero;fill:rgb(95.686275%,94.509804%,93.72549%);fill-opacity:1;" d="M 14.320312 46.398438 C 19.882812 45.84375 25.875 44.769531 31.433594 45.976562 C 32.582031 46.199219 33.738281 45.710938 33.320312 43.753906 L 27.589844 12.03125 L 27.566406 11.992188 C 21.335938 10.121094 14.398438 11.054688 8.121094 12.0625 Z M 14.320312 46.398438 "/>
<path style=" stroke:none;fill-rule:nonzero;fill:rgb(60%,62.352941%,63.921569%);fill-opacity:1;" d="M 13.226562 19.941406 C 16.644531 19.257812 20.132812 19.007812 23.613281 19.199219 C 24.152344 19.226562 25.328125 19.632812 25.300781 18.738281 L 25.160156 17.9375 C 24.953125 17.300781 23.558594 17.265625 23 17.300781 C 17.996094 17.4375 16.316406 17.636719 12.945312 18.191406 C 12.683594 18.238281 12.5 18.480469 12.53125 18.746094 C 12.558594 19.199219 12.574219 20.042969 13.226562 19.941406 Z M 13.226562 19.941406 "/>
<path style=" stroke:none;fill-rule:nonzero;fill:rgb(60%,62.352941%,63.921569%);fill-opacity:1;" d="M 14.011719 24.703125 C 17.09375 24.25 20.390625 23.742188 23.496094 23.914062 C 24.207031 23.9375 24.914062 23.980469 25.621094 24.046875 C 25.769531 24.070312 25.921875 24.019531 26.027344 23.910156 C 26.132812 23.800781 26.183594 23.652344 26.160156 23.5 L 26.019531 22.71875 C 25.980469 22.511719 25.808594 22.355469 25.601562 22.332031 C 24.933594 22.261719 24.261719 22.21875 23.585938 22.1875 C 20.359375 21.996094 17.011719 22.433594 13.8125 22.957031 C 13.523438 23.023438 13.34375 23.308594 13.40625 23.597656 C 13.476562 24 13.441406 24.734375 14.011719 24.703125 Z M 14.011719 24.703125 "/>
<path style=" stroke:none;fill-rule:nonzero;fill:rgb(60%,62.352941%,63.921569%);fill-opacity:1;" d="M 14.757812 29.441406 C 18.597656 28.894531 22.664062 28.335938 26.476562 28.785156 C 26.625 28.800781 26.777344 28.75 26.882812 28.644531 C 26.988281 28.535156 27.039062 28.386719 27.019531 28.238281 L 26.878906 27.460938 C 26.839844 27.257812 26.667969 27.105469 26.460938 27.089844 C 22.566406 26.644531 18.542969 27.0625 14.671875 27.726562 C 14.390625 27.800781 14.214844 28.082031 14.269531 28.367188 C 14.324219 28.707031 14.308594 29.390625 14.757812 29.441406 Z M 14.757812 29.441406 "/>
<path style=" stroke:none;fill-rule:nonzero;fill:rgb(60%,62.352941%,63.921569%);fill-opacity:1;" d="M 15.566406 34.179688 C 17.847656 34.019531 20.320312 33.425781 22.625 33.425781 C 24.195312 33.359375 25.769531 33.402344 27.335938 33.546875 C 27.480469 33.558594 27.628906 33.503906 27.730469 33.398438 C 27.835938 33.292969 27.886719 33.148438 27.875 33 C 27.773438 32.648438 27.835938 31.859375 27.316406 31.835938 C 24.285156 31.539062 21.230469 31.613281 18.222656 32.0625 L 16.917969 32.253906 L 15.601562 32.449219 C 15.449219 32.464844 15.3125 32.542969 15.21875 32.664062 C 15.128906 32.785156 15.09375 32.9375 15.125 33.089844 C 15.179688 33.441406 15.160156 34.101562 15.566406 34.179688 Z M 15.566406 34.179688 "/>
<path style=" stroke:none;fill-rule:nonzero;fill:rgb(60%,62.352941%,63.921569%);fill-opacity:1;" d="M 16.402344 39.226562 C 16.585938 39.402344 17.640625 39.125 17.867188 39.121094 C 21.296875 38.503906 24.789062 38.347656 28.257812 38.660156 C 28.410156 38.679688 28.5625 38.625 28.667969 38.515625 C 28.773438 38.40625 28.820312 38.253906 28.800781 38.105469 C 28.683594 37.757812 28.769531 36.925781 28.238281 36.910156 C 25.207031 36.59375 22.148438 36.660156 19.136719 37.105469 C 18.496094 37.203125 17.066406 37.425781 16.441406 37.507812 C 16.171875 37.546875 15.988281 37.796875 16.027344 38.0625 C 16.070312 38.371094 16.078125 39.109375 16.402344 39.226562 Z M 16.402344 39.226562 "/>
<use xlink:href="#surface5" mask="url(#mask0)"/>
<path style=" stroke:none;fill-rule:nonzero;fill:rgb(38.431373%,47.058824%,53.72549%);fill-opacity:1;" d="M 48.585938 49.816406 C 48.257812 49.425781 47.714844 49.292969 47.246094 49.496094 C 45.679688 50.199219 43.984375 50.558594 42.269531 50.558594 C 41.933594 50.558594 41.585938 50.558594 41.25 50.519531 C 35.746094 50.054688 31.230469 45.972656 30.21875 40.542969 C 29.207031 35.113281 31.949219 29.675781 36.914062 27.257812 C 41.882812 24.84375 47.851562 26.046875 51.496094 30.195312 C 55.140625 34.34375 55.566406 40.417969 52.53125 45.035156 C 52.246094 45.457031 52.277344 46.023438 52.609375 46.414062 L 55.285156 49.578125 L 51.269531 52.980469 Z M 42.257812 30.671875 C 38.113281 30.679688 34.734375 34 34.65625 38.144531 C 34.578125 42.285156 37.828125 45.730469 41.96875 45.898438 C 46.109375 46.0625 49.621094 42.886719 49.875 38.753906 C 50.125 34.617188 47.027344 31.039062 42.894531 30.699219 C 42.679688 30.679688 42.46875 30.671875 42.257812 30.671875 Z M 42.257812 30.671875 "/>
<path style=" stroke:none;fill-rule:nonzero;fill:rgb(100%,100%,100%);fill-opacity:1;" d="M 42.238281 26.480469 C 46.582031 26.480469 50.574219 28.859375 52.636719 32.679688 C 54.699219 36.5 54.5 41.144531 52.117188 44.773438 C 51.714844 45.375 51.761719 46.171875 52.226562 46.726562 L 54.597656 49.523438 L 51.3125 52.308594 L 48.960938 49.507812 C 48.492188 48.957031 47.714844 48.78125 47.054688 49.074219 C 45.550781 49.742188 43.921875 50.085938 42.273438 50.082031 C 41.949219 50.082031 41.621094 50.070312 41.296875 50.042969 C 34.980469 49.535156 30.199219 44.128906 30.457031 37.800781 C 30.714844 31.472656 35.921875 26.476562 42.257812 26.480469 M 42.273438 46.371094 C 46.617188 46.378906 50.195312 42.953125 50.371094 38.613281 C 50.546875 34.269531 47.261719 30.5625 42.929688 30.21875 C 42.707031 30.199219 42.484375 30.191406 42.257812 30.191406 C 37.792969 30.191406 34.167969 33.8125 34.167969 38.28125 C 34.167969 42.75 37.792969 46.371094 42.257812 46.371094 M 42.238281 25.519531 C 35.40625 25.535156 29.796875 30.933594 29.515625 37.761719 C 29.238281 44.589844 34.390625 50.425781 41.199219 51 C 41.546875 51.03125 41.902344 51.042969 42.257812 51.042969 C 44.039062 51.046875 45.800781 50.675781 47.425781 49.953125 C 47.699219 49.832031 48.015625 49.902344 48.207031 50.128906 L 50.578125 52.929688 L 51.199219 53.660156 L 51.933594 53.039062 L 55.21875 50.257812 L 55.953125 49.636719 L 55.359375 48.902344 L 52.988281 46.105469 C 52.796875 45.878906 52.78125 45.550781 52.945312 45.300781 C 55.53125 41.375 55.75 36.34375 53.511719 32.207031 C 51.273438 28.074219 46.941406 25.503906 42.238281 25.519531 Z M 42.257812 45.410156 C 38.320312 45.410156 35.125 42.21875 35.125 38.28125 C 35.125 34.34375 38.320312 31.152344 42.257812 31.152344 C 42.453125 31.152344 42.652344 31.152344 42.851562 31.175781 C 46.671875 31.476562 49.566406 34.746094 49.410156 38.574219 C 49.253906 42.402344 46.101562 45.421875 42.269531 45.410156 Z M 42.257812 45.410156 "/>
<path style=" stroke:none;fill-rule:nonzero;fill:rgb(40.784314%,31.372549%,1.568627%);fill-opacity:1;" d="M 59.777344 59.058594 C 59.25 59.507812 58.566406 59.726562 57.875 59.671875 C 57.183594 59.613281 56.542969 59.285156 56.097656 58.753906 L 50.558594 52.230469 C 50.132812 51.726562 50.183594 50.976562 50.671875 50.535156 L 52.71875 48.683594 C 52.96875 48.457031 53.296875 48.34375 53.632812 48.367188 C 53.972656 48.386719 54.285156 48.546875 54.503906 48.804688 L 60.078125 55.378906 C 61.011719 56.476562 60.878906 58.125 59.777344 59.058594 Z M 59.777344 59.058594 "/>
<use xlink:href="#surface8" mask="url(#mask1)"/>
</g>
</svg>
