<?xml version="1.0" encoding="UTF-8" standalone="no"?>
<svg
   version="1.1"
   id="svg4332"
   height="64"
   width="64"
   sodipodi:docname="64.svg"
   xml:space="preserve"
   inkscape:version="1.4.2 (ebf0e940d0, 2025-05-08)"
   xmlns:inkscape="http://www.inkscape.org/namespaces/inkscape"
   xmlns:sodipodi="http://sodipodi.sourceforge.net/DTD/sodipodi-0.dtd"
   xmlns:xlink="http://www.w3.org/1999/xlink"
   xmlns="http://www.w3.org/2000/svg"
   xmlns:svg="http://www.w3.org/2000/svg"
   xmlns:rdf="http://www.w3.org/1999/02/22-rdf-syntax-ns#"
   xmlns:cc="http://creativecommons.org/ns#"
   xmlns:dc="http://purl.org/dc/elements/1.1/"><sodipodi:namedview
     id="namedview1"
     pagecolor="#ffffff"
     bordercolor="#000000"
     borderopacity="0.25"
     inkscape:showpageshadow="2"
     inkscape:pageopacity="0.0"
     inkscape:pagecheckerboard="0"
     inkscape:deskcolor="#d1d1d1"
     inkscape:current-layer="svg4332"
     showgrid="true"
     showguides="false"><inkscape:page
       x="0"
       y="0"
       width="64"
       height="64"
       id="page1"
       margin="0"
       bleed="0" /><inkscape:grid
       id="grid1"
       units="px"
       originx="0"
       originy="0"
       spacingx="0.5"
       spacingy="0.5"
       empcolor="#0099e5"
       empopacity="0.30196078"
       color="#0099e5"
       opacity="0.078431373"
       empspacing="2"
       enabled="true"
       visible="true" /></sodipodi:namedview><defs
     id="defs4334"><linearGradient
       id="linearGradient75"
       inkscape:collect="always"><stop
         style="stop-color:#ffffff;stop-opacity:1;"
         offset="0"
         id="stop72" /><stop
         style="stop-color:#ffffff;stop-opacity:0.25;"
         offset="0.10185185"
         id="stop73" /><stop
         style="stop-color:#ffffff;stop-opacity:0.25;"
         offset="0.89814812"
         id="stop74" /><stop
         style="stop-color:#ffffff;stop-opacity:0.5;"
         offset="1"
         id="stop75" /></linearGradient><linearGradient
       id="linearGradient67"
       inkscape:collect="always"><stop
         style="stop-color:#ffffff;stop-opacity:1;"
         offset="0"
         id="stop64" /><stop
         style="stop-color:#ffffff;stop-opacity:0.25;"
         offset="0.11"
         id="stop65" /><stop
         style="stop-color:#ffffff;stop-opacity:0.25;"
         offset="0.88999999"
         id="stop66" /><stop
         style="stop-color:#ffffff;stop-opacity:0.5;"
         offset="1"
         id="stop67" /></linearGradient><linearGradient
       id="linearGradient61"
       inkscape:collect="always"><stop
         style="stop-color:#ffffff;stop-opacity:1;"
         offset="0"
         id="stop58" /><stop
         style="stop-color:#ffffff;stop-opacity:0.25;"
         offset="0.10714286"
         id="stop59" /><stop
         style="stop-color:#ffffff;stop-opacity:0.25;"
         offset="0.89285713"
         id="stop60" /><stop
         style="stop-color:#ffffff;stop-opacity:0.5;"
         offset="1"
         id="stop61" /></linearGradient><linearGradient
       id="linearGradient53"
       inkscape:collect="always"><stop
         style="stop-color:#ffffff;stop-opacity:1;"
         offset="0"
         id="stop50" /><stop
         style="stop-color:#ffffff;stop-opacity:0.25;"
         offset="0.09"
         id="stop51" /><stop
         style="stop-color:#ffffff;stop-opacity:0.25;"
         offset="0.90862"
         id="stop52" /><stop
         style="stop-color:#ffffff;stop-opacity:0.5;"
         offset="1"
         id="stop53" /></linearGradient><inkscape:path-effect
       effect="fillet_chamfer"
       id="path-effect29"
       is_visible="true"
       lpeversion="1"
       nodesatellites_param="F,0,0,1,0,0,0,1 @ F,0,0,1,0,15,0,1 @ F,0,0,1,0,13.038405,0,1 @ F,0,0,1,0,0,0,1"
       radius="0"
       unit="px"
       method="auto"
       mode="F"
       chamfer_steps="1"
       flexible="false"
       use_knot_distance="true"
       apply_no_radius="true"
       apply_with_radius="true"
       only_selected="false"
       hide_knots="false" /><inkscape:path-effect
       effect="fillet_chamfer"
       id="path-effect27"
       is_visible="true"
       lpeversion="1"
       nodesatellites_param="F,0,0,1,0,0,0,1 @ F,0,0,1,0,15,0,1 @ F,0,0,1,0,13.038405,0,1 @ F,0,0,1,0,0,0,1"
       radius="0"
       unit="px"
       method="auto"
       mode="F"
       chamfer_steps="1"
       flexible="false"
       use_knot_distance="true"
       apply_no_radius="true"
       apply_with_radius="true"
       only_selected="false"
       hide_knots="false" /><linearGradient
       id="linearGradient909"><stop
         id="stop901"
         style="stop-color:#cd9ef7;stop-opacity:1"
         offset="0" /><stop
         id="stop907"
         style="stop-color:#a56de2;stop-opacity:1"
         offset="1" /></linearGradient><linearGradient
       y2="42.091705"
       x2="23.99999"
       y1="5.9093657"
       x1="23.99999"
       gradientTransform="matrix(1.4324324,0,0,1.4362832,-2.3783747,-2.4707827)"
       gradientUnits="userSpaceOnUse"
       id="linearGradient3904"
       xlink:href="#linearGradient4270" /><linearGradient
       id="linearGradient4270"><stop
         id="stop4272"
         style="stop-color:#ffffff;stop-opacity:1"
         offset="0" /><stop
         id="stop4274"
         style="stop-color:#ffffff;stop-opacity:0.23529412"
         offset="0.0348749" /><stop
         id="stop4276"
         style="stop-color:#ffffff;stop-opacity:0.15686275"
         offset="0.96216321" /><stop
         id="stop4278"
         style="stop-color:#ffffff;stop-opacity:0.39215687"
         offset="1" /></linearGradient><linearGradient
       id="linearGradient3688-166-749-654"><stop
         offset="0"
         style="stop-color:#181818;stop-opacity:1"
         id="stop3088" /><stop
         offset="1"
         style="stop-color:#181818;stop-opacity:0"
         id="stop3090" /></linearGradient><linearGradient
       id="linearGradient3702-501-757-795"><stop
         offset="0"
         style="stop-color:#181818;stop-opacity:0"
         id="stop3100" /><stop
         offset="0.5"
         style="stop-color:#181818;stop-opacity:1"
         id="stop3102" /><stop
         offset="1"
         style="stop-color:#181818;stop-opacity:0"
         id="stop3104" /></linearGradient><radialGradient
       cx="4.9929786"
       cy="43.5"
       r="2.5"
       fx="4.9929786"
       fy="43.5"
       id="radialGradient3337-2-2"
       xlink:href="#linearGradient3688-166-749-654"
       gradientUnits="userSpaceOnUse"
       gradientTransform="matrix(2.4045407,0,0,0.99999998,41.985755,15.500001)" /><radialGradient
       cx="4.9929786"
       cy="43.5"
       r="2.5"
       fx="4.9929786"
       fy="43.5"
       id="radialGradient3339-1-4"
       xlink:href="#linearGradient3688-166-749-654"
       gradientUnits="userSpaceOnUse"
       gradientTransform="matrix(2.4045407,0,0,0.99999998,-22.014244,-102.5)" /><linearGradient
       x1="25.058096"
       y1="47.027729"
       x2="25.058096"
       y2="39.999443"
       id="linearGradient6394"
       xlink:href="#linearGradient3702-501-757-795"
       gradientUnits="userSpaceOnUse"
       gradientTransform="matrix(1.5714286,0,0,0.7142857,-5.7142853,27.928572)" /><linearGradient
       xlink:href="#linearGradient909"
       id="linearGradient899"
       x1="31.781376"
       y1="4.9266648"
       x2="31.781376"
       y2="59.148476"
       gradientUnits="userSpaceOnUse" /><linearGradient
       id="linearGradient7"
       inkscape:collect="always"><stop
         style="stop-color:#57392d;stop-opacity:1;"
         offset="0"
         id="stop9" /><stop
         style="stop-color:#715344;stop-opacity:1;"
         offset="1"
         id="stop10" /></linearGradient><inkscape:path-effect
       effect="fillet_chamfer"
       id="path-effect3"
       is_visible="true"
       lpeversion="1"
       nodesatellites_param="F,0,0,1,0,0,0,1 @ F,0,0,1,0,15,0,1 @ F,0,0,1,0,13.038405,0,1 @ F,0,0,1,0,0,0,1"
       radius="0"
       unit="px"
       method="auto"
       mode="F"
       chamfer_steps="1"
       flexible="false"
       use_knot_distance="true"
       apply_no_radius="true"
       apply_with_radius="true"
       only_selected="false"
       hide_knots="false" /><linearGradient
       id="linearGradient1"
       inkscape:collect="always"><stop
         style="stop-color:#cfa25e;stop-opacity:1;"
         offset="0"
         id="stop1" /><stop
         style="stop-color:#e7c591;stop-opacity:1;"
         offset="1"
         id="stop2" /></linearGradient><linearGradient
       id="linearGradient5"
       inkscape:collect="always"><stop
         style="stop-color:#cfa25e;stop-opacity:1;"
         offset="0"
         id="stop5" /><stop
         style="stop-color:#b6802e;stop-opacity:1;"
         offset="1"
         id="stop6" /></linearGradient><inkscape:path-effect
       effect="fillet_chamfer"
       id="path-effect16"
       is_visible="true"
       lpeversion="1"
       nodesatellites_param="F,0,0,1,0,0,0,1 @ F,0,0,1,0,4.1230503,0,1 @ F,0,0,1,0,0,0,1"
       radius="0"
       unit="px"
       method="auto"
       mode="F"
       chamfer_steps="1"
       flexible="false"
       use_knot_distance="true"
       apply_no_radius="true"
       apply_with_radius="true"
       only_selected="false"
       hide_knots="false" /><inkscape:path-effect
       effect="fillet_chamfer"
       id="path-effect14"
       is_visible="true"
       lpeversion="1"
       nodesatellites_param="F,0,0,1,0,0,0,1 @ F,0,0,1,0,4.1230503,0,1 @ F,0,0,1,0,0,0,1"
       radius="0"
       unit="px"
       method="auto"
       mode="F"
       chamfer_steps="1"
       flexible="false"
       use_knot_distance="true"
       apply_no_radius="true"
       apply_with_radius="true"
       only_selected="false"
       hide_knots="false" /><inkscape:path-effect
       effect="fillet_chamfer"
       id="path-effect10"
       is_visible="true"
       lpeversion="1"
       nodesatellites_param="F,0,0,1,0,0,0,1 @ F,0,0,1,0,15,0,1 @ F,0,0,1,0,13.038405,0,1 @ F,0,0,1,0,0,0,1"
       radius="0"
       unit="px"
       method="auto"
       mode="F"
       chamfer_steps="1"
       flexible="false"
       use_knot_distance="true"
       apply_no_radius="true"
       apply_with_radius="true"
       only_selected="false"
       hide_knots="false" /><inkscape:path-effect
       effect="fillet_chamfer"
       id="path-effect8"
       is_visible="true"
       lpeversion="1"
       nodesatellites_param="F,0,0,1,0,0,0,1 @ F,0,0,1,0,15,0,1 @ F,0,0,1,0,13.038405,0,1 @ F,0,0,1,0,0,0,1"
       radius="0"
       unit="px"
       method="auto"
       mode="F"
       chamfer_steps="1"
       flexible="false"
       use_knot_distance="true"
       apply_no_radius="true"
       apply_with_radius="true"
       only_selected="false"
       hide_knots="false" /><linearGradient
       id="linearGradient1201"><stop
         id="stop1193"
         style="stop-color:#ffffff;stop-opacity:1"
         offset="0" /><stop
         id="stop1195"
         style="stop-color:#ffffff;stop-opacity:0.23529412"
         offset="0.06781636" /><stop
         id="stop1197"
         style="stop-color:#ffffff;stop-opacity:0.15686275"
         offset="0.94694352" /><stop
         id="stop1199"
         style="stop-color:#ffffff;stop-opacity:0.39215687"
         offset="1" /></linearGradient><radialGradient
       cx="4.9929786"
       cy="43.5"
       r="2.5"
       fx="4.9929786"
       fy="43.5"
       id="radialGradient3013-6"
       xlink:href="#linearGradient3688-166-749-654"
       gradientUnits="userSpaceOnUse"
       gradientTransform="matrix(2.003784,0,0,0.89999994,29.98813,4.8500025)" /><radialGradient
       cx="4.9929786"
       cy="43.5"
       r="2.5"
       fx="4.9929786"
       fy="43.5"
       id="radialGradient3015-1"
       xlink:href="#linearGradient3688-166-749-654"
       gradientUnits="userSpaceOnUse"
       gradientTransform="matrix(2.003784,0,0,0.89999994,-18.01187,-83.149997)" /><linearGradient
       x1="38.999996"
       y1="5.9999938"
       x2="38.999996"
       y2="41.945408"
       id="linearGradient3058-5"
       xlink:href="#linearGradient1201"
       gradientUnits="userSpaceOnUse"
       gradientTransform="translate(4e-6,1.0000062)" /><linearGradient
       xlink:href="#linearGradient3702-501-757-795"
       id="linearGradient1191"
       gradientUnits="userSpaceOnUse"
       x1="25.058096"
       y1="47.027729"
       x2="25.058096"
       y2="39.999443"
       gradientTransform="matrix(1.1428571,0,0,0.6428571,-3.428569,16.035716)" /><linearGradient
       xlink:href="#linearGradient909"
       id="linearGradient930-9-2"
       x1="16.767664"
       y1="2.7676599"
       x2="16.767664"
       y2="29.896721"
       gradientUnits="userSpaceOnUse"
       gradientTransform="matrix(1.444444,0,0,1.444444,0.888913,1.888891)" /><linearGradient
       inkscape:collect="always"
       xlink:href="#linearGradient1"
       id="linearGradient44"
       x1="30.934345"
       y1="46"
       x2="30.934345"
       y2="60"
       gradientUnits="userSpaceOnUse" /><linearGradient
       inkscape:collect="always"
       xlink:href="#linearGradient5"
       id="linearGradient46"
       x1="31"
       y1="8"
       x2="31"
       y2="45"
       gradientUnits="userSpaceOnUse" /><linearGradient
       inkscape:collect="always"
       xlink:href="#linearGradient5"
       id="linearGradient48"
       x1="32"
       y1="8"
       x2="32"
       y2="45"
       gradientUnits="userSpaceOnUse" /><linearGradient
       inkscape:collect="always"
       xlink:href="#linearGradient53"
       id="linearGradient50"
       x1="33"
       y1="9"
       x2="33"
       y2="59"
       gradientUnits="userSpaceOnUse" /><linearGradient
       inkscape:collect="always"
       xlink:href="#linearGradient5"
       id="linearGradient54"
       gradientUnits="userSpaceOnUse"
       x1="32"
       y1="8"
       x2="32"
       y2="45" /><linearGradient
       inkscape:collect="always"
       xlink:href="#linearGradient53"
       id="linearGradient56"
       x1="21.5"
       y1="8.9739923"
       x2="21.5"
       y2="59.071239"
       gradientUnits="userSpaceOnUse" /><linearGradient
       inkscape:collect="always"
       xlink:href="#linearGradient61"
       id="linearGradient58"
       x1="50.5"
       y1="16"
       x2="50.5"
       y2="58"
       gradientUnits="userSpaceOnUse" /><linearGradient
       inkscape:collect="always"
       xlink:href="#linearGradient1"
       id="linearGradient62"
       gradientUnits="userSpaceOnUse"
       x1="30.934345"
       y1="46"
       x2="30.934345"
       y2="60" /><linearGradient
       inkscape:collect="always"
       xlink:href="#linearGradient67"
       id="linearGradient64"
       x1="32"
       y1="9"
       x2="32"
       y2="59"
       gradientUnits="userSpaceOnUse" /><linearGradient
       inkscape:collect="always"
       xlink:href="#linearGradient75"
       id="linearGradient72"
       x1="31"
       y1="5"
       x2="31"
       y2="59"
       gradientUnits="userSpaceOnUse" /><linearGradient
       inkscape:collect="always"
       xlink:href="#linearGradient7"
       id="linearGradient77"
       x1="45.5"
       y1="46"
       x2="45.5"
       y2="60"
       gradientUnits="userSpaceOnUse" /></defs><metadata
     id="metadata4337"><rdf:RDF><cc:Work
         rdf:about=""><dc:format>image/svg+xml</dc:format><dc:type
           rdf:resource="http://purl.org/dc/dcmitype/StillImage" /></cc:Work></rdf:RDF></metadata><path
     id="ellipse69"
     style="fill:#57392d;fill-opacity:1;stroke:#3d211b;stroke-width:1;stroke-linecap:butt;stroke-linejoin:round;stroke-dasharray:none;stroke-opacity:0.5"
     d="M 39.347656,3.390625 A 9.5,3 5.2060682 0 0 32.482422,4.8457032 3,9.5 85.038765 0 0 23.240234,3.5117187 3,9.5 85.038765 0 0 14.035156,7.3222656 3,9.5 85.038765 0 0 23.759766,9.4882812 3,9.5 85.038765 0 0 32.517578,6.7128906 9.5,3 5.2060682 0 0 41.228516,9.4882813 9.5,3 5.2060682 0 0 50.960938,7.3613281 9.5,3 5.2060682 0 0 41.771484,3.5117188 9.5,3 5.2060682 0 0 39.347656,3.390625 Z" /><ellipse
     style="fill:#57392d;fill-opacity:1;stroke:none;stroke-width:1.45296;stroke-linecap:butt;stroke-linejoin:round;stroke-dasharray:none;stroke-opacity:1"
     id="ellipse68"
     cx="41.962849"
     cy="3.1931696"
     rx="9.5"
     ry="3"
     transform="rotate(5.2060682)" /><path
     id="path42"
     style="fill:url(#linearGradient77);stroke:#3d211b;stroke-width:1;stroke-linejoin:round;stroke-dasharray:none;stroke-opacity:0.5"
     d="m 57.499986,45.5 c 1.329951,1.521092 2,3 2,5 0,4.5 -1,10 -13,10 -15,-0.5 -27.5,-9 -29,-15 z"
     sodipodi:nodetypes="csccc" /><path
     id="path43"
     style="fill:url(#linearGradient46);stroke:#804b00;stroke-linecap:butt;stroke-linejoin:round;stroke-opacity:0.5"
     d="M 32,7.5 30.914062,7.65625 C 25.91157,9.2090505 20.299958,9.5420244 16.5,13.5 c -1.333333,1.333333 -2,2.666667 -2,4 v 28 h 29 l 15,-10 v -17 H 58.46875 C 58.489563,18.333452 58.499982,18.166738 58.5,18 58.5,12.20101 47.187831,7.5 32,7.5 Z" /><path
     id="rect2"
     style="fill:url(#linearGradient48);stroke:#804b00;stroke-linejoin:round;stroke-opacity:0.5"
     d="M 31.494141,7.5019531 C 16.539414,7.6048218 4.5,12.265445 4.5,18 c 1.77e-5,0.166738 0.010437,0.333452 0.03125,0.5 H 4.5 v 27 h 10 v -28 c 0,-1.333333 0.666667,-2.666667 2,-4 3.943984,-4.1079907 9.854727,-4.2809171 14.994141,-5.9980469 z" /><path
     id="path41"
     style="fill:url(#linearGradient44);stroke:#804b00;stroke-width:1;stroke-linejoin:round;stroke-dasharray:none;stroke-opacity:0.5"
     d="m 4.5,45.5 c -1.3299512,1.521092 -2,3 -2,5 0,4.5 1,10 13,10 15,-0.5 27.5,-9 29,-15 z"
     sodipodi:nodetypes="csccc" /><path
     id="path67"
     style="opacity:0.2;fill:#000000;fill-opacity:1;stroke:none;stroke-width:1;stroke-linejoin:round;stroke-dasharray:none;stroke-opacity:1"
     d="m 41.90625,13.558594 c -2.323753,0.500632 -3.565134,3.067978 -3.395436,5.289452 0.0056,6.808749 -0.06143,13.620577 0.03678,20.427378 0.201465,2.147398 1.937007,4.400027 4.270761,4.219636 3.429296,-0.02257 6.869254,0.07996 10.291783,-0.06377 2.315584,-0.491132 3.527048,-3.058103 3.389972,-5.260592 -0.02185,-6.837499 0.06171,-13.67928 -0.05623,-20.514048 -0.225486,-2.120851 -1.952364,-4.334888 -4.260295,-4.150796 -3.385528,0.02505 -6.777386,-0.05017 -10.158947,0.03773 l -0.09921,0.01258 z" /><path
     id="path48"
     style="opacity:0.5;fill:none;stroke:url(#linearGradient50);stroke-linecap:butt;stroke-linejoin:round;stroke-opacity:1"
     d="M 32.617188,8.5175781 C 30.986289,8.4648528 29.484231,9.2089536 27.903213,9.4999401 24.19931,10.386004 20.215086,11.254647 17.393784,14.006597 16.2825,15.044065 15.379366,16.460604 15.492423,18.037485 15.512377,26.85761 15.493422,35.679239 15.5,44.5 c 9.232422,0 18.464844,0 27.697266,0 4.767578,-3.178385 9.535156,-6.356771 14.302734,-9.535156 0,-5.488282 0,-10.976563 0,-16.464844 0.01155,-0.656665 -0.06005,-1.487897 -0.404253,-2.137775 -1.259693,-2.388387 -3.826078,-3.659586 -6.19145,-4.711834 C 46.962429,9.9862618 42.562807,9.2189748 38.304505,8.7901071 36.387544,8.6310793 34.536734,8.4918545 32.617188,8.5175781 Z m 25.238281,9.8828129 c 0.614478,-0.105162 0.695332,-0.34917 0,0 z" /><path
     id="path75"
     style="opacity:1;fill:#57392d;fill-opacity:1;stroke:none;stroke-width:1.2649;stroke-linecap:butt;stroke-linejoin:round;stroke-dasharray:none;stroke-opacity:1"
     d="M 32.5,7 A 20,14 0 0 0 30.5,7.091797 20,14 0 0 1 47.427734,16.5 h 4.011719 A 20,14 0 0 0 32.5,7 Z" /><rect
     style="fill:#cfa25e;stroke:#804b00;stroke-width:1;stroke-linejoin:round;stroke-dasharray:none;stroke-opacity:0.5"
     id="rect42"
     width="20"
     height="32"
     x="39.5"
     y="14.5"
     ry="6"
     rx="5" /><path
     id="path53"
     style="opacity:0.5;fill:url(#linearGradient54);stroke:url(#linearGradient56);stroke-linejoin:round;stroke-opacity:0.5"
     d="m 21.09375,9.375 c -4.126043,0.7085 -8.202885,1.77317 -11.8435925,3.898516 -1.6548467,0.983918 -3.4148098,2.380608 -3.7249191,4.396835 -0.066513,2.973264 -0.00276,5.961627 -0.025238,8.941758 0,5.962631 0,11.925261 0,17.887891 2.6666667,0 5.3333326,0 7.9999996,0 0.01596,-9.190662 -0.04244,-18.385161 0.04086,-27.573406 0.401657,-2.814889 2.721063,-4.852931 4.994547,-6.296027 0.825073,-0.502031 1.704959,-0.9090515 2.60327,-1.2614264 z" /><path
     id="rect56"
     style="opacity:0.5;fill:#cfa25e;stroke:url(#linearGradient58);stroke-width:1;stroke-linejoin:round;stroke-dasharray:none;stroke-opacity:1"
     d="m 43.90625,15.558594 c -2.323753,0.500632 -3.565134,3.067978 -3.395436,5.289452 0.0056,6.808749 -0.06143,13.620577 0.03678,20.427378 0.201465,2.147398 1.937007,4.400027 4.270761,4.219636 3.429296,-0.02257 6.869254,0.07996 10.291783,-0.06377 2.315584,-0.491132 3.527048,-3.058103 3.389972,-5.260592 -0.02185,-6.837499 0.06171,-13.67928 -0.05623,-20.514048 -0.225486,-2.120851 -1.952364,-4.334888 -4.260295,-4.150796 -3.385528,0.02505 -6.777386,-0.05017 -10.158947,0.03773 l -0.09921,0.01258 z" /><path
     id="path61"
     style="fill:url(#linearGradient62);stroke:url(#linearGradient64);stroke-width:1;stroke-linejoin:round;stroke-dasharray:none"
     d="m 4.8164062,46.693359 c -1.5623743,1.832575 -1.4816044,4.420036 -1.0898437,6.652344 0.3739802,2.036915 1.7056338,3.885992 3.6332799,4.706819 3.0147286,1.431544 6.4599216,1.535075 9.7339076,1.353728 6.253626,-0.478031 12.428065,-2.282371 17.855469,-5.447266 2.287487,-1.349886 4.62051,-3.009443 6.435261,-5.053838 0.64203,-0.73293 1.208582,-1.535756 1.650676,-2.405146 -12.686849,0 -25.373698,0 -38.0605466,0 -0.052734,0.06445 -0.1054688,0.128906 -0.1582032,0.193359 z" /><ellipse
     style="fill:#57392d;fill-opacity:1;stroke:none;stroke-width:1.45296;stroke-linecap:butt;stroke-linejoin:round;stroke-dasharray:none;stroke-opacity:1"
     id="path68"
     cx="22.822014"
     cy="8.8283396"
     rx="9.5"
     ry="3"
     transform="rotate(-4.961235)" /><path
     id="path70"
     style="opacity:0.3;fill:none;fill-opacity:1;stroke:url(#linearGradient72);stroke-width:1;stroke-linecap:butt;stroke-linejoin:round;stroke-dasharray:none;stroke-opacity:1"
     d="m 38.035156,4.4199219 c -1.45648,0.08564 -3.057701,0.2270128 -4.449218,0.9003906 -0.597012,0.475797 -1.467626,0.6459252 -2.077493,0.09485 C 29.420402,4.353578 26.988337,4.4155641 24.705427,4.4288214 21.865214,4.5779951 18.954926,4.973554 16.362455,6.1993299 15.91297,6.479426 15.32852,6.7424806 15.074219,7.203125 c 0.546964,0.7566124 1.634205,0.8045113 2.46875,1.0722656 3.298593,0.594251 6.710103,0.3002498 9.970697,-0.3909251 1.575293,-0.3562631 3.14623,-0.9342097 4.416022,-1.939153 0.702101,-0.3538089 1.424906,0.071803 1.939483,0.5335426 2.625433,1.5078666 5.719467,1.8865164 8.690058,2.0834604 2.04481,0.086282 4.004357,0.055468 5.888037,-0.5115343 0.51523,-0.2023783 1.22027,-0.2882526 1.484375,-0.8300781 C 48.550551,5.7239982 46.398413,5.3889237 44.512355,4.9182881 42.382782,4.5004074 40.203448,4.3384792 38.035156,4.4199219 Z" /></svg>
